<svg xmlns="http://www.w3.org/2000/svg" viewBox="0 0 662.7 379.9">
<style>
  .a{
    fill:#ebebeb;
  }
  .b{
    fill:#e0e0e0;
  }
  .c{
    fill:#0057e6;
  }
  .d{
    opacity:0.7;
  }
  .e{
    fill:#fff;
  }
  .f{
    fill:#263238;
  }
  .g{
    fill:#f4d3bd;
  }
  .h{
    fill:#eaae94;
  }
  .i{
    fill:#455a64;
  }
  .j{
    fill:#fff;
    opacity:0.6;
  }
  .k{
    opacity:0.3;
  }
  .l{
    fill:#b78876;
  }
  .m{
    fill:#aa6550;
  }
</style>
  <g transform="translate(-47.482 -97.32)">
    <path d="m71.6 377.6s-2.9 6.8 13 11.6 24.8 6 24.8 6 3.4 1.4 1.8 3.9-6.7 6.4-5.1 9.7 6.1 4 12 2.2 19-5.3 20.2-5.6 3 0.1 2.2 1.9-9.6 13.2-4 17.1 21.3-3.9 23-4.7 2.6-0.6 3.2 0.2-2.7 4.3-5.1 7.7-4.5 7.6-1.1 9.6 16 0.5 34-15l7.9-7.7-2.6-10.8c-6.9-22.7-16.8-30.6-20.7-30.8s-4.4 4.6-4.2 8.7 1.1 8.9 0.2 9.2-1.7 0.1-2.8-1.5-10.1-16.5-16.9-16.3-5.5 14.5-5.7 16.5-2.1 1.3-2.9 0.4-10.1-10.8-14.1-15.5-7.9-6.6-11.3-4.6-0.9 8-0.9 10.9-3.6 2.3-3.6 2.3-8.2-3.7-24.1-8.1-17.1 3-17.1 3" class="a"/>
    <g class="b">
      <path d="m200.6 415.6c-11.7-3.3-32.4-9.6-50.2-14.8s-33.9-10-45.6-13.4l-13.8-4-3.8-1.1-1-0.3-0.3-0.1 0.3 0.1 1 0.3 3.8 1c3.3 0.9 8 2.2 13.9 3.9 11.7 3.3 27.9 8.1 45.7 13.3s38.5 11.6 50.2 15"/>
      <path d="m113.5 403.6a3.6 3.6 0 0 1 0.7-0.4c0.5-0.2 1.1-0.6 1.9-1 1.6-0.8 3.9-1.9 6.5-3l6.6-2.8 2-0.9a3.5 3.5 0 0 1 0.7-0.3 4 4 0 0 1-0.7 0.4c-0.4 0.2-1.1 0.6-1.9 1-1.6 0.8-4 1.8-6.5 2.9l-6.5 2.9-2 0.9a3.3 3.3 0 0 1-0.7 0.3z"/>
      <path d="m131.9 394.1c-0.1 0-2.5-4.6-5.3-10.4s-5.1-10.5-5-10.5 2.5 4.6 5.3 10.4 5.1 10.5 5 10.5z"/>
      <path d="m158.9 403.5a4.5 4.5 0 0 1-0.2-0.8c-0.1-0.6-0.2-1.3-0.4-2.2-0.3-1.8-0.8-4.4-1.4-7.1s-1.2-5.3-1.7-7.1c-0.2-0.8-0.4-1.6-0.6-2.1a4 4 0 0 1-0.2-0.8 4.3 4.3 0 0 1 0.3 0.8c0.2 0.5 0.4 1.2 0.7 2.1 0.5 1.8 1.2 4.3 1.8 7.1s1.1 5.3 1.3 7.2c0.1 0.9 0.2 1.7 0.3 2.2a2.9 2.9 0 0 1 0.1 0.8z"/>
      <path d="m144.1 415.7a3 3 0 0 1 0.5-0.5c0.4-0.4 0.9-0.8 1.5-1.4 1.3-1.1 3.1-2.7 5.1-4.4s3.8-3.2 5.2-4.3l1.6-1.3a3.4 3.4 0 0 1 0.6-0.4 3.8 3.8 0 0 1-0.5 0.5l-1.5 1.4c-1.3 1.1-3.1 2.7-5.1 4.4s-3.8 3.2-5.2 4.3l-1.6 1.3a3.1 3.1 0 0 1-0.6 0.4z"/>
      <path d="m166.9 426.9a4.8 4.8 0 0 1 0.7-0.7l2-1.7c1.7-1.5 4-3.5 6.5-5.7s4.9-4.2 6.6-5.6l2-1.7a5.3 5.3 0 0 1 0.8-0.6 5.1 5.1 0 0 1-0.7 0.7l-1.9 1.8c-1.6 1.5-3.9 3.5-6.5 5.7s-4.9 4.2-6.6 5.6l-2 1.7a4.7 4.7 0 0 1-0.8 0.6z"/>
      <path d="m184.8 411.2a6.2 6.2 0 0 1-0.2-1c-0.2-0.7-0.3-1.6-0.6-2.7-0.5-2.3-1.2-5.5-2.1-9s-1.7-6.6-2.4-8.9c-0.3-1.1-0.6-2-0.8-2.7a6.3 6.3 0 0 1-0.2-1 7.4 7.4 0 0 1 0.4 1c0.2 0.6 0.5 1.5 0.9 2.7 0.7 2.3 1.6 5.4 2.5 8.9s1.6 6.7 2 9c0.2 1.2 0.4 2.1 0.5 2.8a5.2 5.2 0 0 1 0.1 1z"/>
    </g>
    <path d="m523 202.1c-14-9.4-17.4-27.2-17.1-43.3 0-2.7-0.3-5.5 0.9-7.9s4.2-4 6.6-2.9c2 0.9 2.9 3.2 4.1 5.1a15.6 15.6 0 0 0 6.4 5.9c1.7 0.9 3.8 1.4 5.5 0.4 2.3-1.3 2.5-4.5 2.5-7.2l-0.4-14.9a24.9 24.9 0 0 1 0.7-7.9c0.8-2.5 2.6-4.9 5.1-5.7s5.7 0.7 6.3 3.3a26.1 26.1 0 0 1 0.1 3.3 2.8 2.8 0 0 0 1.7 2.6c1.1 0.3 2.1-0.5 2.9-1.3 2.7-2.7 4.5-6.2 6.2-9.7s3.3-7 5.8-10 5.9-5.4 9.7-5.7 7.9 2 9 5.7-1.1 7.6-3.4 10.7a59.5 59.5 0 0 1-12.2 12.1 4.9 4.9 0 0 0-2 2.3c-0.5 1.8 1.2 3.5 2.9 4.1 2 0.6 4.2 0.4 6.2 0.6s4.4 1.1 5.2 3c1.1 2.7-1.1 5.6-3.3 7.5a50.8 50.8 0 0 1-14.9 9 17.2 17.2 0 0 0-5.6 2.8c-1.6 1.4-2.5 3.8-1.5 5.7s3.5 2.4 5.5 2 3.9-1.6 5.8-2.3c3.7-1.4 8.4-1.3 10.8 1.8a8.5 8.5 0 0 1 1 7.5 19.3 19.3 0 0 1-3.9 6.7 51.3 51.3 0 0 1-21.7 15.8c-8.5 3.1-16.3 4-24.8 1.1" class="a"/>
    <g class="b">
      <path d="m527 192a240.2 240.2 0 0 1 9-25.9c0.9-2.2 1.8-4.5 2.7-6.7s1.8-4.4 2.8-6.4a119.9 119.9 0 0 1 6.4-11.6c2.2-3.6 4.5-6.9 6.6-10s4.2-5.9 6.1-8.4a94.3 94.3 0 0 1 10.1-11.1c1.3-1.2 2.3-2.1 3-2.7l0.8-0.7a2.1 2.1 0 0 1 0.3-0.2 1.7 1.7 0 0 1-0.3 0.3l-0.8 0.7c-0.7 0.6-1.7 1.6-3 2.8a99.3 99.3 0 0 0-10 11.2c-1.9 2.5-4 5.3-6.1 8.4s-4.3 6.4-6.5 10a120.2 120.2 0 0 0-6.4 11.5c-1 2.1-1.9 4.2-2.8 6.4l-2.7 6.7a244.8 244.8 0 0 0-9 25.9"/>
      <path d="m541.6 152.9a5.4 5.4 0 0 1-0.3-1.1c-0.1-0.7-0.3-1.8-0.5-3.1-0.4-2.6-0.9-6.3-1.4-10.4s-1-7.7-1.5-10.4c-0.2-1.3-0.4-2.4-0.6-3.1a5.7 5.7 0 0 1-0.2-1.2 5.2 5.2 0 0 1 0.4 1.1c0.2 0.7 0.5 1.8 0.7 3.1 0.6 2.6 1.1 6.3 1.6 10.4s0.9 7.6 1.2 10.4c0.2 1.3 0.3 2.3 0.4 3.2a4.8 4.8 0 0 1 0.1 1.2z"/>
      <path d="m575.8 145.9a6.7 6.7 0 0 1-1.4 0.2c-0.9 0.1-2.2 0.2-3.7 0.4-3.1 0.4-7.4 1.1-12.2 2.1s-9 2.1-12 2.9c-1.5 0.4-2.7 0.8-3.6 1.1a6.2 6.2 0 0 1-1.3 0.4 7.9 7.9 0 0 1 1.3-0.5c0.8-0.3 2-0.7 3.6-1.2 3-0.9 7.3-2.1 12-3.1a119.1 119.1 0 0 1 12.2-1.9c1.6-0.2 2.9-0.2 3.7-0.3a8.1 8.1 0 0 1 1.4 0z"/>
      <path d="m527.4 191.3a3.4 3.4 0 0 1-0.2-0.4c-0.2-0.3-0.4-0.7-0.6-1.2-0.5-1.1-1.2-2.6-2.1-4.6-1.7-3.9-3.9-9.4-6.3-15.4s-4.5-11.5-6.2-15.5c-0.8-1.9-1.5-3.5-2-4.6l-0.5-1.3a2 2 0 0 1-0.2-0.5s0.1 0.1 0.3 0.4l0.6 1.2c0.5 1.1 1.2 2.6 2.1 4.6 1.7 3.9 3.9 9.4 6.3 15.4s4.6 11.5 6.2 15.5c0.8 1.9 1.5 3.5 2 4.7l0.5 1.3a1.3 1.3 0 0 1 0.1 0.4z"/>
      <path d="m572.7 175.8a1.6 1.6 0 0 1-0.4 0.2l-1.3 0.5-4.8 1.7c-4.1 1.4-9.7 3.4-16 5.7s-11.9 4.2-16 5.5c-2.1 0.7-3.7 1.2-4.9 1.5l-1.3 0.4a2.3 2.3 0 0 1-0.5 0.1 1.6 1.6 0 0 1 0.5-0.2l1.3-0.5c1.2-0.4 2.9-1 4.9-1.7 4.1-1.4 9.7-3.4 16-5.6s11.9-4.2 16-5.5c2.1-0.7 3.7-1.2 4.9-1.5l1.4-0.4a2.3 2.3 0 0 1 0.5-0.1z"/>
    </g>
    <path d="m675.9 269.2a10.2 10.2 0 0 1-3.7 7 17.9 17.9 0 0 1-7.3 3.5c-5.1 1.3-11.1 0.4-16.1-1.2 2.1-5.5 8-8.8 11.1-10.3 4.9-2.3 15.3-3.6 16.1 1" class="a"/>
    <path d="m642.4 286.4a8.7 8.7 0 0 1 8.7-0.3 11.5 11.5 0 0 1 5.5 7 4.8 4.8 0 0 1-0.3 4.1 3.7 3.7 0 0 1-3.5 1.4 7.5 7.5 0 0 1-3.5-1.6c-3.6-2.7-6.5-6-6.8-10.5" class="a"/>
    <path d="m629.3 285.7a16.8 16.8 0 0 1 3.4-0.6 16.1 16.1 0 0 1 3.8 0 35 35 0 0 1 4.6 0.7 17.4 17.4 0 0 1 7.5 3.8 12.8 12.8 0 0 1 1.7 1.9 2.7 2.7 0 0 1 0.5 0.8c-0.1 0.1-0.8-1.1-2.4-2.4a18.7 18.7 0 0 0-7.4-3.5 43.5 43.5 0 0 0-4.5-0.7 18.4 18.4 0 0 0-3.7-0.1 22.8 22.8 0 0 1-3.5 0.2z" class="b"/>
    <path d="m668.1 270.9a10.6 10.6 0 0 1-1.6 0.8c-1 0.5-2.5 1.1-4.4 1.9-3.7 1.6-8.9 3.7-14.7 5.9s-11.1 4.1-14.9 5.3c-1.9 0.6-3.5 1.1-4.6 1.4a9.8 9.8 0 0 1-1.7 0.4 10.2 10.2 0 0 1 1.6-0.7l4.5-1.6c3.8-1.4 9.1-3.3 14.8-5.5l14.7-5.8 4.5-1.7a10 10 0 0 1 1.7-0.6z" class="b"/>
    <path d="m638.2 280.8a20.3 20.3 0 0 0 7.8-16.8c-0.1-1.6-0.6-3.5-2.1-4.1s-3.1 0.6-4.2 1.9a17.3 17.3 0 0 0-1.9 19.1" class="a"/>
    <path d="m642.4 267.2a2.8 2.8 0 0 1 0 0.9c0 0.6-0.1 1.5-0.2 2.5a23 23 0 0 1-2.5 8 14.5 14.5 0 0 1-2.9 3.6 14.1 14.1 0 0 1-5.5 3 2.9 2.9 0 0 1-0.9 0.2c0-0.1 1.2-0.5 3.1-1.4a14.9 14.9 0 0 0 3-2.1 14.5 14.5 0 0 0 2.7-3.5 25.5 25.5 0 0 0 2.6-7.7 31.9 31.9 0 0 1 0.6-3.4z" class="b"/>
    <path d="m108.3 97.3a12 12 0 0 1 8.9 3.2 21.2 21.2 0 0 1 5.3 8c2.4 5.8 2.3 12.9 1.4 19.1-6.8-1.5-11.6-7.8-13.9-11.2-3.6-5.4-6.8-17.2-1.6-19" class="a"/>
    <path d="m134 133.6a10.3 10.3 0 0 1-1.8-10.1 13.6 13.6 0 0 1 7.3-7.6c1.5-0.7 3.3-1.1 4.8-0.4a4.4 4.4 0 0 1 2.2 3.9 8.9 8.9 0 0 1-1.3 4.4c-2.6 4.7-6 8.7-11.2 9.8" class="a"/>
    <path d="m135.5 149.2a20.7 20.7 0 0 1-1.3-3.9 19.1 19.1 0 0 1-0.7-4.5 42.3 42.3 0 0 1 0.1-5.5 20.5 20.5 0 0 1 3.2-9.4 15.6 15.6 0 0 1 1.9-2.3c0.5-0.5 0.9-0.7 0.9-0.7s-1.1 1.1-2.4 3.3a22 22 0 0 0-2.9 9.3 49.7 49.7 0 0 0-0.1 5.4 20.8 20.8 0 0 0 0.5 4.4 28.4 28.4 0 0 1 0.9 4z" class="b"/>
    <path d="m111.5 106.2a11.1 11.1 0 0 1 1.2 1.7c0.7 1.1 1.8 2.8 3 4.8 2.5 4.1 5.9 9.8 9.4 16.2s6.7 12.3 8.8 16.6c1.1 2.1 1.9 3.9 2.5 5.1a10.9 10.9 0 0 1 0.8 1.9 12.9 12.9 0 0 1-1-1.8l-2.7-5c-2.2-4.2-5.4-10.1-8.9-16.4l-9.3-16.2c-1.1-2-2.1-3.7-2.8-4.9a12.5 12.5 0 0 1-0.9-1.9z" class="b"/>
    <path d="m128.3 139.5a23.9 23.9 0 0 0-21-6.2c-1.9 0.4-4 1.3-4.4 3.2s1.3 3.6 2.9 4.6a20.5 20.5 0 0 0 22.7-1" class="a"/>
    <path d="m111.6 137a3.2 3.2 0 0 1 1.1-0.2c0.7-0.1 1.7-0.1 3-0.1a27 27 0 0 1 9.7 1.5 16.6 16.6 0 0 1 4.7 2.8 16.4 16.4 0 0 1 3 3.3 15.9 15.9 0 0 1 1.4 2.6 3.5 3.5 0 0 1 0.4 1c-0.1 0.1-0.7-1.4-2.2-3.4a17.9 17.9 0 0 0-3-3.1 17.4 17.4 0 0 0-4.6-2.6 30.4 30.4 0 0 0-9.5-1.7 36.5 36.5 0 0 1-4.1-0.1z" class="b"/>
    <path d="m345.5 465.6a10.7 10.7 0 0 1 0.1-8.4 18.8 18.8 0 0 1 5.1-6.8c4.1-3.7 10.2-5.8 15.7-6.8 0.8 6.1-3.1 12.1-5.3 15-3.4 4.6-12.5 10.9-15.5 7" class="a"/>
    <path d="m368.4 433.1a9.1 9.1 0 0 1-8 4.5 12.1 12.1 0 0 1-8.5-3.9 5.1 5.1 0 0 1-1.7-3.9 3.9 3.9 0 0 1 2.6-3 7.9 7.9 0 0 1 4.1-0.2c4.7 0.8 9.1 2.4 11.6 6.5" class="a"/>
    <path d="m381 427.3a17.2 17.2 0 0 1-2.9 2.3 16.9 16.9 0 0 1-3.5 1.9 37.9 37.9 0 0 1-4.6 1.6 18.3 18.3 0 0 1-8.9 0.2 13.8 13.8 0 0 1-2.5-0.9c-0.6-0.3-0.8-0.5-0.8-0.5s1.3 0.6 3.5 1.1a19.6 19.6 0 0 0 8.6-0.3 48 48 0 0 0 4.6-1.5 18.3 18.3 0 0 0 3.5-1.7 28 28 0 0 1 3.1-1.9z" class="b"/>
    <path d="m352 460.2a11.1 11.1 0 0 1 1.1-1.5c0.7-0.9 1.8-2.3 3.2-3.9 2.7-3.3 6.5-7.8 10.8-12.7s8.3-9.2 11.3-12.3c1.5-1.5 2.7-2.8 3.6-3.6a11.1 11.1 0 0 1 1.4-1.2 10.4 10.4 0 0 1-1.2 1.4c-0.9 1-2 2.2-3.4 3.7-2.9 3.1-6.9 7.5-11.2 12.4l-10.9 12.6-3.3 3.8a11 11 0 0 1-1.3 1.4z" class="b"/>
    <path d="m375 436.2a21.4 21.4 0 0 0 1 19.5c0.9 1.5 2.3 3 4 2.8s2.6-2.1 3-3.8a18.3 18.3 0 0 0-7.6-18.8" class="a"/>
    <path d="m377.8 451s-0.2-0.3-0.5-0.9-0.6-1.4-1-2.4a24.3 24.3 0 0 1-1.6-8.6 15.3 15.3 0 0 1 0.9-4.8 14.5 14.5 0 0 1 1.9-3.5 13.7 13.7 0 0 1 1.8-2c0.5-0.4 0.7-0.6 0.8-0.6s-0.9 1-2.2 2.9a16.2 16.2 0 0 0-1.7 3.4 15.7 15.7 0 0 0-0.8 4.6 27.2 27.2 0 0 0 1.4 8.5 31.3 31.3 0 0 1 1.1 3.5z" class="b"/>
    <path d="m48.5 242.2c-4.2-24.3 4.2-51.1 23.6-66.4s49.5-16.3 68.3-0.4c13.2 11.2 19.4 28.4 27.3 43.8s19.8 31.1 36.9 33.8c14.8 2.3 29.6-5.8 44.5-3.8 14.5 1.9 26.6 13.7 30.8 27.7s1 29.5-6.4 42.1-19 22.3-31.5 29.7c-40.5 23.8-94.2 23-134-1.9s-63.8-73-60-119.8" class="c"/>
    <g class="d">
      <path d="m48.5 242.2c-4.2-24.3 4.2-51.1 23.6-66.4s49.5-16.3 68.3-0.4c13.2 11.2 19.4 28.4 27.3 43.8s19.8 31.1 36.9 33.8c14.8 2.3 29.6-5.8 44.5-3.8 14.5 1.9 26.6 13.7 30.8 27.7s1 29.5-6.4 42.1-19 22.3-31.5 29.7c-40.5 23.8-94.2 23-134-1.9s-63.8-73-60-119.8" class="e"/>
    </g>
    <path d="m283.1 459.7c13.2-9 19.3-28.8 11.1-42.4-8.3-12.4-21.2-22.3-36-24.4s-31.1 4.9-37.7 18.3c-4.1 8.4-4.2 18.6-0.7 27.4a43.5 43.5 0 0 0 18.2 20.9c13.6 8.2 32 9.1 45.2 0.2z" class="c"/>
    <g class="d">
      <path d="m283.1 459.7c13.2-9 19.3-28.8 11.1-42.4-8.3-12.4-21.2-22.3-36-24.4s-31.1 4.9-37.7 18.3c-4.1 8.4-4.2 18.6-0.7 27.4a43.5 43.5 0 0 0 18.2 20.9c13.6 8.2 32 9.1 45.2 0.2z" class="e"/>
    </g>
    <path d="m710.1 376.8c-0.8-21-11.2-41.9-28.7-53.7s-41.8-13.4-59.8-2.4c-11.2 6.8-19.3 17.7-26.1 28.9-3.7 6.2-7.6 13-14.2 15.6-8.7 3.5-18.2-1.3-27.4-3.1a43.1 43.1 0 0 0-50 30.9c-8 33.2 15.3 56.9 40.2 71.3 27.8 16.1 63 16.1 93.2 5.3 19.9-7 38.4-18.6 51.9-34.7s21.8-37.1 20.9-58.1z" class="c"/>
    <g class="d">
      <path d="m710.1 376.8c-0.8-21-11.2-41.9-28.7-53.7s-41.8-13.4-59.8-2.4c-11.2 6.8-19.3 17.7-26.1 28.9-3.7 6.2-7.6 13-14.2 15.6-8.7 3.5-18.2-1.3-27.4-3.1a43.1 43.1 0 0 0-50 30.9c-8 33.2 15.3 56.9 40.2 71.3 27.8 16.1 63 16.1 93.2 5.3 19.9-7 38.4-18.6 51.9-34.7s21.8-37.1 20.9-58.1z" class="e"/>
    </g>
    <path d="m662.3 197c-2.6-16.8-18.8-31.9-35.7-30.3-15.8 2.3-31.3 10.2-40.1 23.4s-9.7 32.3 0.2 44.8c6.2 7.9 16 12.6 26 13.4a46.5 46.5 0 0 0 28.5-7.9c14.3-9.3 23.6-26.6 21.1-43.4z" class="c"/>
    <g class="d">
      <path d="m662.3 197c-2.6-16.8-18.8-31.9-35.7-30.3-15.8 2.3-31.3 10.2-40.1 23.4s-9.7 32.3 0.2 44.8c6.2 7.9 16 12.6 26 13.4a46.5 46.5 0 0 0 28.5-7.9c14.3-9.3 23.6-26.6 21.1-43.4z" class="e"/>
    </g>
    <path d="m466.5 201.2c2.2-0.3 3.9-1.9 5.9-2.8a10.2 10.2 0 0 1 9.4 0.5c2.8 1.7 4.8 3.7 5 7l-3.7 4" class="f"/>
    <path d="m489.8 221.7-5.9 35.4c-1 6-3.7 14.7-13.1 12.7-8.1-2.4-8.9-10.5-7.9-16.2 0.5-2.7 0.8-4.9 0.8-5.2 0 0-8.9-2.3-8-11.4 0.4-4.4 2-13.3 3.5-21.3a16.9 16.9 0 0 1 18.3-13.7l0.9 0.1c9.3 1.5 13.2 10.3 11.5 19.6z" class="g"/>
    <path d="m463.6 248.3a21.1 21.1 0 0 0 12.1-2.1s-3.5 6.2-12.4 4.5z" class="h"/>
    <g class="f">
      <path d="m459.9 221.1c0.2 0.2 1.4-0.3 3.1-0.1s2.8 0.9 3 0.8-0.1-0.3-0.6-0.7a5.8 5.8 0 0 0-2.4-0.8 5.2 5.2 0 0 0-2.5 0.3c-0.5 0.2-0.7 0.5-0.6 0.5z"/>
      <path d="m473.6 222.6c0.2 0.2 1.4-0.3 3.1-0.1s2.8 0.9 3 0.8-0.1-0.3-0.6-0.7a6.1 6.1 0 0 0-2.4-0.8 5.4 5.4 0 0 0-2.4 0.3c-0.5 0.2-0.7 0.4-0.6 0.5z"/>
      <path d="m473.3 224.8a1 1 0 0 0 0.9 1.1 1 1 0 0 0 1.1-0.8 1 1 0 0 0-0.8-1.1 1 1 0 0 0-1.1 0.8z"/>
      <path d="m460.3 223.4a1 1 0 0 0 0.9 1.1 1 1 0 0 0 1.1-0.8 1 1 0 0 0-0.8-1.1 1 1 0 0 0-1.1 0.8z"/>
      <path d="m468 231.7a8.8 8.8 0 0 0-2.2-0.6c-0.3-0.1-0.7-0.2-0.7-0.4a1.8 1.8 0 0 1 0.4-1c0.4-0.8 0.9-1.7 1.3-2.6a49.2 49.2 0 0 0 3.1-6.8c-0.1-0.1-1.8 2.9-3.6 6.5l-1.2 2.6a2 2 0 0 0-0.3 1.4 0.9 0.9 0 0 0 0.5 0.6 2.6 2.6 0 0 0 0.6 0.2 9.1 9.1 0 0 0 2.2 0.2z"/>
      <path d="m475.3 216.6c0.1 0.4 1.3 0.3 2.7 0.7s2.5 0.9 2.8 0.6-0.1-0.5-0.5-0.9a4.6 4.6 0 0 0-2-1 4.4 4.4 0 0 0-2.2 0c-0.5 0.2-0.8 0.5-0.8 0.7z"/>
      <path d="m460.6 216.8c0.1 0.3 1.3 0.2 2.7 0.4s2.6 0.6 2.8 0.3-0.1-0.4-0.6-0.7a5.3 5.3 0 0 0-4.2-0.6c-0.5 0.2-0.8 0.4-0.8 0.5z"/>
    </g>
    <path d="m488.3 228.3c0.2 0 6.4-1.2 5.6 5s-6.8 4-6.8 3.9 1.3-8.8 1.3-8.8z" class="g"/>
    <path d="m489.2 235s0.1 0.1 0.3 0.2a1.1 1.1 0 0 0 0.8 0.1 2.7 2.7 0 0 0 1.6-2.2 3.5 3.5 0 0 0-0.1-1.6 1.2 1.2 0 0 0-0.7-0.9 0.6 0.6 0 0 0-0.7 0.2c-0.1 0.2-0.1 0.3-0.1 0.3s-0.1-0.1 0-0.4a0.7 0.7 0 0 1 0.3-0.3 0.8 0.8 0 0 1 0.6-0.1 1.5 1.5 0 0 1 1 1.1 3.7 3.7 0 0 1 0.1 1.8 2.8 2.8 0 0 1-1.9 2.4 1.2 1.2 0 0 1-1-0.3c-0.2-0.2-0.2-0.3-0.2-0.3z" class="h"/>
    <path d="m457.4 213.6a13.1 13.1 0 0 0 11.9-1.4c2.4-1.6 4.4-4.1 7.2-4.7a7.4 7.4 0 0 1 5.5 1.4 14.2 14.2 0 0 1 3.8 4.4c-2.2 4.4-1.6 9.6-0.9 14.5a2.5 2.5 0 0 0 0.6 1.5 2 2 0 0 0 2.5-0.3 7.7 7.7 0 0 0 2.1-3.8 25.5 25.5 0 0 0 1-10 17.4 17.4 0 0 0-3.8-9.2 16.4 16.4 0 0 0-11-5.5 20.2 20.2 0 0 0-12.1 2.9 11.9 11.9 0 0 0-4.2 4" class="f"/>
    <path d="m457.9 222.1c0.6-2.5 0.9-5.6 1.4-8.1a15.1 15.1 0 0 0 11.1-2.8c1.6-1.3 3.1-3 5.1-3.6 2.6-0.7 5.2 0.6 7.6 1.9l-0.1-0.1a11.4 11.4 0 0 1 3 3.1 35.3 35.3 0 0 0-1.1 15 2.6 2.6 0 0 0 1.2 1.9c1.3 0.8 2.2-0.1 3.2-0.7 0.7-0.4 1.7-0.7 2.3-0.1a35 35 0 0 0 4.1-10 2.5 2.5 0 0 0 4.4 2.2 5.3 5.3 0 0 1-1.2-2.5 3.3 3.3 0 0 0 4.7-0.4l-1.9-2 2.8 0.2a14.9 14.9 0 0 1-5.3-4.6 22.9 22.9 0 0 0-4.9-5c-2-1.3-4.6-1.8-6.7-0.6 0.1-3.2-2.2-6.3-5.1-7.6a21.1 21.1 0 0 0-11.2-1.1c-2.5 0.5-5 2-8.2 4.3a29.9 29.9 0 0 0-4.3 3.7c-1.9 2.1-5.8 5.4-9.5 4.4l0.3 3.8c2 1.9 6.1 0.2 6.1 0.2s-2.4 2.4-4.6 2.3l0.6 3.3s3.4 0.6 4.9-2z" class="f"/>
    <g class="i">
      <path d="m485.8 213.2s-0.3-0.5-0.9-1.3a11.4 11.4 0 0 0-3.1-2.9 11.8 11.8 0 0 0-2.7-1 5.9 5.9 0 0 0-3.2-0.1c-2.3 0.7-3.9 3-6.3 4.4a13.9 13.9 0 0 1-7.5 2.2 17.2 17.2 0 0 1-1.8-0.1 1.6 1.6 0 0 0-0.7 0 7.7 7.7 0 0 0-0.7 0.4 6.8 6.8 0 0 0-1.9 2.1 5.4 5.4 0 0 1-3.7 2.2 6.2 6.2 0 0 1-1.2 0 1.4 1.4 0 0 1-0.4-0.1c0 0 0.6 0 1.6-0.1a5.3 5.3 0 0 0 3.5-2.2 6.9 6.9 0 0 1 2-2.3 6.7 6.7 0 0 1 0.8-0.4 2.1 2.1 0 0 1 0.9-0.1 16.4 16.4 0 0 0 1.7 0.1 13.8 13.8 0 0 0 7.3-2.2 25.9 25.9 0 0 0 3.2-2.4 9.5 9.5 0 0 1 3.3-2 6.3 6.3 0 0 1 3.5 0.1 12 12 0 0 1 2.8 1.1 10.8 10.8 0 0 1 3.1 3.1 7.1 7.1 0 0 1 0.6 1c0.1 0.3 0.2 0.4 0.1 0.4z"/>
      <path d="m495.5 218.6s0 0.2-0.2 0.5a4.6 4.6 0 0 1-0.8 1.3 2.4 2.4 0 0 1-2.1 0.9 1.7 1.7 0 0 1-1.2-0.9 2.5 2.5 0 0 1-0.3-1.5l0.5 0.1a2 2 0 0 1-1.7 1.2 2.4 2.4 0 0 1-1.8-0.7 3.8 3.8 0 0 1-1-1.5 10 10 0 0 1-0.4-2.9 14.2 14.2 0 0 0-0.3-2.6 4.8 4.8 0 0 1 0.7 2.6 10.4 10.4 0 0 0 0.5 2.7 3.3 3.3 0 0 0 0.9 1.3 2 2 0 0 0 1.5 0.6 1.5 1.5 0 0 0 1.3-0.9l0.8-2.1-0.4 2.2a1.6 1.6 0 0 0 1.1 1.9 2.1 2.1 0 0 0 1.8-0.7 6.1 6.1 0 0 0 0.9-1.1c0.2-0.3 0.3-0.4 0.3-0.4z"/>
      <path d="m493.2 225.4a2.7 2.7 0 0 1-1.7 0.5 5.9 5.9 0 0 1-3.9-1.7 11.2 11.2 0 0 1-2.3-3.6 5.5 5.5 0 0 1-0.6-1.7 7.4 7.4 0 0 1 0.9 1.5 13.8 13.8 0 0 0 2.4 3.4 6.2 6.2 0 0 0 3.6 1.7 13.2 13.2 0 0 0 1.7-0.1z"/>
      <path d="m492.9 226.5a3.3 3.3 0 0 1-1.5 0.1 8.3 8.3 0 0 1-3.5-1.2 8.1 8.1 0 0 1-2.6-2.6 3 3 0 0 1-0.6-1.4 10.1 10.1 0 0 1 0.9 1.2 9.9 9.9 0 0 0 2.6 2.4 9.7 9.7 0 0 0 3.3 1.3 9.2 9.2 0 0 1 1.5 0.2z"/>
      <path d="m496.9 203.5a9.9 9.9 0 0 1-1.5-0.2 10.3 10.3 0 0 0-3.6 0.2 10.4 10.4 0 0 0-3.3 1.5c-0.8 0.5-1.2 1-1.3 0.9a3.6 3.6 0 0 1 1.1-1.2 8.9 8.9 0 0 1 3.4-1.7 8.6 8.6 0 0 1 3.8-0.1 3.5 3.5 0 0 1 1.5 0.6z"/>
      <path d="m488.5 198.2a7.8 7.8 0 0 1-1.3 8.2 19.1 19.1 0 0 0 1.3-4 18.5 18.5 0 0 0 0-4.2z"/>
      <path d="m452.6 209.4a4.2 4.2 0 0 0 1.3 0.7 7.1 7.1 0 0 0 4-0.5c0.8-0.3 1.7-0.6 2.7-1a17.1 17.1 0 0 0 2.9-1.4c2-1.1 4-2.8 6.5-3.9a11.3 11.3 0 0 1 3.8-1 7.1 7.1 0 0 1 3.6 0.8c2.1 1.1 3.6 2.6 5.2 3.3a5.2 5.2 0 0 0 3.9 0.2 4.2 4.2 0 0 0 1.2-0.9s0 0.1-0.2 0.3a2.9 2.9 0 0 1-0.9 0.7 5.3 5.3 0 0 1-4.1 0c-1.7-0.6-3.2-2.2-5.3-3.2a6.7 6.7 0 0 0-3.4-0.7 11.2 11.2 0 0 0-3.7 1c-2.4 1.1-4.4 2.7-6.4 3.8a16.8 16.8 0 0 1-3 1.4c-1 0.3-1.9 0.7-2.7 0.9a7 7 0 0 1-4.1 0.3 2.7 2.7 0 0 1-1-0.6 1.5 1.5 0 0 1-0.3-0.4z"/>
      <path d="m487.5 205.8a30.6 30.6 0 0 0-2.4-2.4 14.1 14.1 0 0 0-7.3-3.2 24.5 24.5 0 0 0-4.5 0.1 25.1 25.1 0 0 1-3.7 0.1 8.2 8.2 0 0 1-2.5-0.5 2.5 2.5 0 0 1-0.8-0.4 12.4 12.4 0 0 0 3.3 0.6 29.4 29.4 0 0 0 3.7-0.2 22 22 0 0 1 4.6-0.1 13.6 13.6 0 0 1 7.5 3.4 12.2 12.2 0 0 1 1.7 1.9 3 3 0 0 1 0.5 0.8z"/>
    </g>
    <path d="m468.7 236.2c0-0.2 1.2-0.3 2.3-1.3a6.9 6.9 0 0 0 1.1-1.4c0.3-0.4 0.5-0.7 0.5-0.6s0 0.3-0.2 0.8a4.4 4.4 0 0 1-1.1 1.6 3.7 3.7 0 0 1-1.8 0.9c-0.5 0.1-0.8 0.1-0.8 0z" class="f"/>
    <path d="m629.6 408.1 16.4-9.3s14.9 13.5 18.1 12.1l-16.9-32.4-26.1 13.4z" class="c"/>
    <g class="j">
      <path d="m639.4 389.5a1.5 1.5 0 0 1 1-1.7 1.4 1.4 0 0 1 1.7 1 1.6 1.6 0 0 1-1.1 1.8 1.5 1.5 0 0 1-1.6-1.2"/>
      <path d="m647.3 378.5-2.6 1.5 17.1 30.5s1.4 1.1 2.3 0.4z"/>
    </g>
    <g class="f">
      <path d="m646.1 399.4c0.2-0.1-0.2-0.9-0.1-1.9s0.6-1.8 0.4-1.9-0.9 0.6-1 1.9 0.6 2.1 0.7 2z"/>
      <path d="m649.3 402.1c0.2 0 0.1-0.9 0.5-1.7s1-1.4 0.9-1.6-1 0.2-1.5 1.3-0.1 2.1 0.1 2z"/>
      <path d="m654.3 401.9c0-0.2-0.9 0-1.6 0.9s-0.6 1.8-0.4 1.8 0.4-0.7 0.9-1.4 1.2-1.1 1.1-1.3z"/>
      <path d="m642.1 401.1c0.1-0.1-0.5-0.8-0.9-1.7s-0.5-1.8-0.7-1.8-0.4 1 0.1 2 1.4 1.6 1.5 1.5z"/>
    </g>
    <g class="k">
      <polygon points="627.4 388.7 624.7 390.1 632.9 406.2 635.8 404.6"/>
    </g>
    <path d="m638.8 402.9c0.1 0-0.2-0.7-0.8-1.6a8.6 8.6 0 0 0-1.4-1.4 8.4 8.4 0 0 0-1-0.7 2.1 2.1 0 0 0-0.6-0.3 0.8 0.8 0 0 0-0.9 0.4 1 1 0 0 0 0 0.9 2.1 2.1 0 0 0 0.4 0.6 6.8 6.8 0 0 0 0.9 0.8 6.3 6.3 0 0 0 1.8 1 3 3 0 0 0 1.8 0.3c0-0.1-0.7-0.2-1.6-0.7a7.8 7.8 0 0 1-1.6-1 7.1 7.1 0 0 1-0.8-0.8c-0.3-0.3-0.4-0.6-0.3-0.7s0.1-0.1 0.2-0.1a2.1 2.1 0 0 1 0.5 0.2 9.5 9.5 0 0 1 0.9 0.6 10.7 10.7 0 0 1 1.4 1.3c0.8 0.8 1.1 1.4 1.2 1.3z" class="f"/>
    <path d="m638.9 402.6a2.9 2.9 0 0 0-1.8 0.4 6.1 6.1 0 0 0-1.7 1.1 6 6 0 0 0-0.8 0.9 1.5 1.5 0 0 0-0.3 1.5 0.8 0.8 0 0 0 0.8 0.4 2.2 2.2 0 0 0 0.7-0.1 4.2 4.2 0 0 0 2.4-2.1 2.4 2.4 0 0 0 0.3-1.8c-0.1 0-0.1 0.7-0.7 1.6a4.3 4.3 0 0 1-1.3 1.3 3.6 3.6 0 0 1-0.9 0.5c-0.4 0.1-0.7 0.2-0.7 0a1 1 0 0 1 0.2-0.8 5.7 5.7 0 0 1 0.7-0.8 6.6 6.6 0 0 1 1.5-1.2c0.9-0.5 1.6-0.7 1.6-0.8z" class="f"/>
    <path d="m583 433.6 18.6-3s9.3 17.9 12.8 17.6l-4.6-36.2-29.1 3.6z" class="c"/>
    <g class="j">
      <path d="m598.5 419.5a1.5 1.5 0 0 1 1.6-1.2 1.4 1.4 0 0 1 1.2 1.5 1.6 1.6 0 0 1-1.6 1.3 1.5 1.5 0 0 1-1.1-1.7"/>
      <path d="m609.7 411.9-2.9 0.5 5.5 34.6s0.9 1.5 2 1.2z"/>
    </g>
    <g class="f">
      <path d="m601.4 431.1c0.2 0 0.2-0.9 0.6-1.9s1.2-1.5 1.1-1.7-1.1 0.2-1.6 1.4-0.2 2.2 0 2.1z"/>
      <path d="m603.5 434.7c0.2 0 0.4-0.8 1-1.5s1.4-1 1.4-1.1-1-0.2-1.9 0.7-0.7 1.9-0.5 1.9z"/>
      <path d="m608.3 436.3c0-0.2-0.9-0.3-1.8 0.3s-1.2 1.5-1 1.5 0.6-0.5 1.4-1 1.5-0.6 1.5-0.8z"/>
      <path d="m597.1 431.4c0.2-0.1-0.2-0.9-0.2-1.9s0.2-1.8 0-1.9-0.7 0.8-0.6 1.9 0.8 1.9 0.9 1.8z"/>
    </g>
    <g class="k">
      <polygon points="587.5 414.7 584.5 415 586.6 433 590 432.4"/>
    </g>
    <g class="f">
      <path d="m593.4 431.9a3.6 3.6 0 0 0-0.2-1.8 8.6 8.6 0 0 0-0.8-1.8 9.5 9.5 0 0 0-0.7-1 2.3 2.3 0 0 0-0.5-0.5 0.8 0.8 0 0 0-1 0 1 1 0 0 0-0.3 0.8 2.7 2.7 0 0 0 0.2 0.7 6.8 6.8 0 0 0 0.5 1.1 6.9 6.9 0 0 0 1.3 1.5 3.2 3.2 0 0 0 1.6 0.9c0-0.1-0.5-0.4-1.3-1.2a7.5 7.5 0 0 1-1.1-1.5 7.1 7.1 0 0 1-0.5-1c-0.1-0.4-0.2-0.7 0-0.8s0.1 0 0.2 0a2.1 2.1 0 0 1 0.4 0.4 9 9 0 0 1 0.7 0.9 10.2 10.2 0 0 1 0.9 1.7 13.5 13.5 0 0 0 0.7 1.7z"/>
      <path d="m593.6 431.6a3 3 0 0 0-1.8-0.2 6 6 0 0 0-2 0.5 6.5 6.5 0 0 0-1 0.6 1.5 1.5 0 0 0-0.8 1.3 0.9 0.9 0 0 0 0.6 0.7 2.6 2.6 0 0 0 0.7 0.1 4.4 4.4 0 0 0 1.2-0.1 4.3 4.3 0 0 0 1.8-1c0.9-0.8 1-1.6 0.9-1.6s-0.3 0.6-1.2 1.3a4.1 4.1 0 0 1-1.6 0.8 3.6 3.6 0 0 1-1 0.1c-0.4 0-0.7-0.1-0.7-0.3s0.2-0.5 0.5-0.7a5.4 5.4 0 0 1 0.9-0.6 6.9 6.9 0 0 1 1.8-0.6c1-0.2 1.7-0.1 1.7-0.2z"/>
      <path d="m506.7 333.4c-0.6 0.2 8.8 9.3 10.3 15.4 1.8 7.4 6.8 15.8 6.8 15.8l34.6 33.2 65.2-9.5 11 20.1-78.6 21.3a14.3 14.3 0 0 1-12.3-2.3l-50.7-37.7-29.1-36z"/>
      <path d="m459.1 356.3 4.2 15.4c11.8 24.3 34.2 70.4 40.2 73.4 8.3 4.1 84.2-11 84.2-11l-1.7-20.9-63.7 5.5-42.6-74.9z"/>
    </g>
    <g class="i">
      <path d="m629.6 409.6s-0.1 0.1-0.4 0.2l-1.3 0.4-4.9 1.4-18.2 5.2-27 7.7-15.9 4.5c-1.4 0.4-2.8 0.8-4.2 1.2a19.8 19.8 0 0 1-13.3-1.4 21.8 21.8 0 0 1-3.9-2.4l-3.5-2.8q-3.5-2.8-6.8-5.5c-4.4-3.7-8.6-7.2-12.6-10.7-7.9-7-14.8-13.6-20.4-19.2s-9.9-10.5-12.7-14l-1.8-2.3c-0.5-0.7-0.9-1.3-1.3-1.8l-0.8-1.1c-0.2-0.2-0.2-0.4-0.2-0.4s0.1 0.1 0.3 0.4 0.5 0.6 0.8 1.1 0.8 1.1 1.3 1.7l1.9 2.3c2.8 3.4 7.2 8.3 12.8 13.9s12.6 12.2 20.5 19.1c4 3.5 8.2 7.1 12.6 10.7 2.2 1.8 4.5 3.7 6.8 5.5l3.5 2.7a20.2 20.2 0 0 0 3.8 2.4 19.4 19.4 0 0 0 12.9 1.4c1.4-0.3 2.8-0.8 4.2-1.2l15.9-4.5 27-7.5 18.2-5.1 5-1.3 1.3-0.3z"/>
      <path d="m480.4 357.3c0.1 0.1-0.4 0.3-0.5 1a1.3 1.3 0 0 0 0.3 1 1.2 1.2 0 0 0 1.9-0.8 1.3 1.3 0 0 0-0.5-0.9c-0.6-0.4-1-0.2-1-0.3s0.1-0.1 0.3-0.2a1.4 1.4 0 0 1 0.9 0.2 1.5 1.5 0 0 1 0.8 1.2 1.6 1.6 0 0 1-2.7 1.2 1.6 1.6 0 0 1-0.3-1.4 1.4 1.4 0 0 1 0.5-0.8c0.2-0.1 0.3-0.1 0.3-0.1z"/>
      <path d="m513.6 348.2a3 3 0 0 1-0.6 0.6 14.5 14.5 0 0 1-1.8 1.4 15.8 15.8 0 0 1-7.1 2.4 15.6 15.6 0 0 1-7.4-1.2 12.2 12.2 0 0 1-2-1.1 2.7 2.7 0 0 1-0.7-0.5c0.1-0.1 1 0.6 2.8 1.3a16.5 16.5 0 0 0 14.3-1.1c1.6-0.9 2.5-1.7 2.6-1.7z"/>
      <path d="m572.4 292.9s-45.3-17-48.1-19.5-14.7-16-19.7-17.7c0 0-8.1-2.1-13.6-1.8l-5.8 0.7v-4.4l-23.9 0.4-0.7 5.9-4.1 1.5s-9.6 20-9.6 29.1-4.7 62.5 4.6 72.8c1.4 1.6 7 0.6 7 0.6s26.8-2.9 53.5-21.5l-9.8-11.3s-3.4-23.6 0.6-40.5c0.1-0.4 0.2-0.7 0.3-1.1 11.6 5.7 29.3 14 34.6 14 0 0 29.2 9.9 34.6 3.6 0.6-0.7 0-10.6 0-10.6z"/>
      <path d="m461.3 257.1s-9.3 0.4-15.4 7.9-16 39.9-16 39.9l-13.6-14-13 7.2s18.4 25.6 22 28.6a19.4 19.4 0 0 0 6.6 2.8c8.7 0.8 14.6-8.1 16.4-15.5l6-30.1"/>
    </g>
    <path d="m407.2 295.9-14-8.3s-4.2-10-2.6-10.5 3 5.6 3 5.6l2 1s-2.7-5.1-1.8-5.6 2.3 1 3 2.2c0.6 0.9 2.4 4.6 2.4 4.6l0.9-1.3-0.7-3.4s-1-2.3 0.1-2.3 1.1-0.1 1.9 1.8 1.4 3.3 1.4 3.3 4.1 2.4 5 2.2a5.1 5.1 0 0 1 4 0.3s3.9 2 2.9 6.2" class="g"/>
    <g class="f">
      <path d="m501.9 258.4c0.1 0-0.3 1-0.7 2.5a28 28 0 0 0-0.7 12.5c0.3 1.6 0.5 2.6 0.5 2.6a9.8 9.8 0 0 1-0.8-2.5 23.8 23.8 0 0 1-0.5-6.4 23.5 23.5 0 0 1 1.2-6.3 9.6 9.6 0 0 1 1.1-2.4z"/>
      <path d="m464.4 257.1a9.4 9.4 0 0 1-0.2-3.4 9.3 9.3 0 0 1 0.5-3.4 16.5 16.5 0 0 1 0 3.4 16.8 16.8 0 0 1-0.3 3.4z"/>
      <path d="m470 258a14.7 14.7 0 0 1 0.1-3.8 15.6 15.6 0 0 1 0.6-3.8 14.5 14.5 0 0 1-0.1 3.8 15.3 15.3 0 0 1-0.6 3.8z"/>
      <path d="m477.4 257.8c-0.1 0 0.2-1.7 0.3-3.7s0-3.7 0.2-3.7a12.4 12.4 0 0 1-0.5 7.4z"/>
      <path d="m482.9 256.4c-0.1 0 0.1-1.4 0.1-3.1s-0.3-3.1-0.1-3.1a5.9 5.9 0 0 1 0.6 3.1 6.2 6.2 0 0 1-0.5 3.1z"/>
      <path d="m447.6 269.3c0.1 0 0 13.1-0.3 29.2s-0.7 29.2-0.8 29.2 0-13.1 0.3-29.2 0.7-29.1 0.8-29.1z"/>
    </g>
    <g fill="#fafafa">
      <path d="m446.7 300a12.4 12.4 0 0 1-2-1.1 27.6 27.6 0 0 0-4.8-2.4 12.2 12.2 0 0 0-5.2-0.8c-1.4 0.1-2.2 0.5-2.2 0.4a4.8 4.8 0 0 1 2.2-0.7 11.2 11.2 0 0 1 5.4 0.7 21.5 21.5 0 0 1 4.8 2.6 8.9 8.9 0 0 1 1.8 1.4z"/>
      <path d="m501.4 290.8a3.4 3.4 0 0 1-0.5 0.3l-1.4 0.8c-0.6 0.4-1.3 0.8-2.2 1.2s-1.9 1-3 1.4-2.4 1.1-3.8 1.6-2.8 1-4.4 1.5a80.1 80.1 0 0 1-10.4 2.4 81.2 81.2 0 0 1-10.7 0.9c-1.6 0-3.2 0-4.7-0.1s-2.8-0.2-4.1-0.3-2.3-0.3-3.3-0.5-1.8-0.3-2.5-0.4l-1.6-0.3a2.1 2.1 0 0 1-0.5-0.1 2.1 2.1 0 0 1 0.6 0.1l1.6 0.3c0.7 0.1 1.5 0.3 2.5 0.4s2.1 0.3 3.3 0.4 2.6 0.2 4 0.3 3 0.1 4.6 0.1a77.6 77.6 0 0 0 21-3.3c1.6-0.5 3.1-0.9 4.4-1.5s2.6-1 3.8-1.5 2.2-1 3-1.4 1.7-0.8 2.3-1.1l1.4-0.7a2 2 0 0 1 0.5-0.2z"/>
      <path d="m527.7 276.4c0.1 0.1-0.8 0.6-2 1.7a25.9 25.9 0 0 0-4.3 4.7 26.7 26.7 0 0 0-3 5.6c-0.6 1.5-0.8 2.5-0.9 2.5a2.2 2.2 0 0 1 0.1-0.7 15.7 15.7 0 0 1 0.5-1.9 22 22 0 0 1 7.3-10.4 12.9 12.9 0 0 1 1.6-1.1c0.4-0.2 0.6-0.3 0.6-0.3z"/>
      <path d="m532.7 277.9c0 0.1-1 0.5-2.5 1.5a21.9 21.9 0 0 0-8.5 10.7c-0.6 1.7-0.8 2.8-0.9 2.7s0-0.3 0.1-0.8a14.3 14.3 0 0 1 0.5-2.1 19.9 19.9 0 0 1 8.7-10.8 14.7 14.7 0 0 1 1.9-1 2.5 2.5 0 0 1 0.8-0.2z"/>
      <path d="m501.7 286.7a2.3 2.3 0 0 1-0.5 0.2l-1.5 0.6c-0.6 0.3-1.4 0.6-2.4 0.9s-2 0.7-3.2 1.1c-2.4 0.8-5.2 1.5-8.4 2.3s-6.7 1.3-10.5 1.8-7.4 0.6-10.6 0.7-6.2-0.1-8.7-0.3c-1.2-0.1-2.3-0.2-3.3-0.3s-1.8-0.2-2.5-0.3l-1.6-0.2a2 2 0 0 1-0.6-0.1 2.2 2.2 0 0 1 0.6 0l1.6 0.2c0.7 0.1 1.5 0.2 2.5 0.2s2.1 0.2 3.3 0.2c2.5 0.2 5.4 0.2 8.7 0.2s6.8-0.3 10.6-0.7 7.3-1.1 10.5-1.7 6-1.4 8.4-2.1c1.2-0.3 2.2-0.7 3.2-1s1.7-0.6 2.4-0.8l1.5-0.5a2.2 2.2 0 0 1 0.6-0.2z"/>
      <path d="m447.2 292.4a36.1 36.1 0 0 0-5.3-2.9 36.7 36.7 0 0 0-5.9-1.5 5.1 5.1 0 0 1 1.8 0 16.7 16.7 0 0 1 4.3 1 16.3 16.3 0 0 1 3.8 2.1 4.8 4.8 0 0 1 1.3 1.3z"/>
    </g>
    <path d="m587.4 289.1-9.9 3.3-5 0.4v10.7l5.1 1.8 13.8-0.7s7.9 4 9.9 3.8 2-0.9 2-0.9l-9.8-5.9a5.6 5.6 0 0 1 3.8 0.5c2.3 1 6.1 3.3 7.5 2.6s1.1-1.1 1.1-1.1l-7.6-4.8s6.6 2.9 7.7 2.4a2 2 0 0 0 1.2-1.5l-4.3-3.8-6.4-5z" class="g"/>
    <path d="m581.9 293.5a5.1 5.1 0 0 1 1.1 0.5c0.7 0.3 1.6 0.8 2.8 1.4s2.6 1.3 4.2 2.2a3.5 3.5 0 0 1 1.1 0.9 2.6 2.6 0 0 1 0.6 1.4 2.4 2.4 0 0 1-0.3 1.6 2.3 2.3 0 0 1-1.4 0.9 4.6 4.6 0 0 1-2.2 0 15.8 15.8 0 0 1-1.9-0.7c-1.2-0.5-2.3-1-3.3-1.5l0.3-0.1a5.9 5.9 0 0 1-2.3 1.8 5.2 5.2 0 0 1-2.2 0.4 5.3 5.3 0 0 1-1.4-0.2c-0.3-0.1-0.5-0.2-0.5-0.2a10.3 10.3 0 0 0 1.9 0.2 5.3 5.3 0 0 0 2.1-0.5 5.8 5.8 0 0 0 2.1-1.8l0.1-0.1 0.2 0.1c1 0.5 2.1 1 3.3 1.5a15.5 15.5 0 0 0 1.9 0.7 4.4 4.4 0 0 0 1.9 0 1.9 1.9 0 0 0 1.1-0.7 2 2 0 0 0 0.3-1.2 2.5 2.5 0 0 0-1.5-1.9c-1.5-0.9-2.9-1.6-4.1-2.3l-2.8-1.5a5 5 0 0 1-1-0.6z" class="h"/>
    <path d="m598.7 298.7a19.2 19.2 0 0 1-4.4-2.7 9.7 9.7 0 0 1-0.9-0.8h0.3a6.2 6.2 0 0 1-2.8 0.8 2.2 2.2 0 0 1-1.1-0.1c0-0.1 0.4-0.1 1.1-0.2a7.5 7.5 0 0 0 2.6-0.8l0.2-0.1 0.1 0.1c0.3 0.2 0.6 0.5 0.9 0.7a45.2 45.2 0 0 1 4 3.1z" class="h"/>
    <path d="m615.6 375.4a20.5 20.5 0 0 1-5.9-0.8c-19-5.7-18-19.4-17.2-30.4 0.7-10.3 0.8-16.7-7.7-19.9-11.2-4.2-15.8-0.1-22.8 6.1-8.3 7.4-18.7 16.5-43.8 12.8-13-1.9-34-8.8-59.7-30.6a205.3 205.3 0 0 1-25.3-25.4l3.9-3.1c0.4 0.5 38.8 47.8 81.9 54.2 22.8 3.4 31.8-4.6 39.7-11.6 7.1-6.3 13.8-12.2 27.9-7 12.4 4.7 11.6 15.4 10.9 24.9-0.8 11.1-1.5 20.7 13.7 25.3 17.1 5.1 39.6-22 53-38.2 4.8-5.8 8.1-9.9 10.8-12.1l3.8 3c-1.7 2-6.3 7-10.7 12.3-13.7 16.5-33.7 40.6-52.4 40.6z" class="c"/>
    <g class="e">
      <path d="m545.1 336s-0.2 0.2-0.6 0.4a15.3 15.3 0 0 1-1.7 1 26.8 26.8 0 0 1-6.3 2.2 26.4 26.4 0 0 1-6.6 0.5 19.3 19.3 0 0 1-2-0.2 2.5 2.5 0 0 1-0.7-0.2c0-0.1 1.1 0 2.7 0a31.4 31.4 0 0 0 12.8-2.6c1.5-0.7 2.5-1.2 2.5-1.1z"/>
      <path d="m574.4 320.9a11.1 11.1 0 0 1-1.6-0.1 11.2 11.2 0 0 0-7.2 2.5 11.1 11.1 0 0 1-1.2 1.1 3.7 3.7 0 0 1 1-1.3 9.6 9.6 0 0 1 7.4-2.6 3.6 3.6 0 0 1 1.6 0.4z"/>
      <path d="m606.2 368.1a6.6 6.6 0 0 1-2.2-0.7 14.5 14.5 0 0 1-7.6-8.2 6.7 6.7 0 0 1-0.5-2.3c0.1 0 0.3 0.9 0.8 2.2a16.5 16.5 0 0 0 3 4.6 16.2 16.2 0 0 0 4.4 3.4c1.3 0.7 2.1 0.9 2.1 1z"/>
      <path d="m675.9 321.3a61 61 0 0 1-7.9 7.9 64.5 64.5 0 0 1 7.9-7.9z"/>
    </g>
    <path d="m437.6 288.2a5.8 5.8 0 0 1-8.1 0.4l-8.8-8 7.7-8.5 8.8 8a5.8 5.8 0 0 1 0.4 8.1z" class="c"/>
    <path d="m437.6 288.2a14.2 14.2 0 0 0 0.8-1.3 5.7 5.7 0 0 0 0.3-4.2 5.6 5.6 0 0 0-1.6-2.5l-2.6-2.4c-1.9-1.7-3.9-3.6-6.2-5.6h0.3l-3.9 4.3-3.9 4.3v-0.3l6.1 5.6 2.6 2.4a5.6 5.6 0 0 0 2.6 1.4 5.7 5.7 0 0 0 4.1-0.7 13.4 13.4 0 0 0 1.3-0.9 4.4 4.4 0 0 1-1.2 1.1 5.7 5.7 0 0 1-4.3 0.8 5.9 5.9 0 0 1-2.8-1.4c-0.8-0.7-1.7-1.5-2.6-2.4l-6.2-5.6-0.2-0.2 0.2-0.2 3.9-4.3 3.9-4.2 0.2-0.2 0.2 0.2 6.1 5.6 2.6 2.4a5.8 5.8 0 0 1 1.6 2.7 5.7 5.7 0 0 1-0.4 4.3 4.2 4.2 0 0 1-1 1.3z" class="f"/>
    <path d="m393.2 240.1-15.1-12.5a2.8 2.8 0 0 1-0.4-3.9 2.8 2.8 0 0 1 3.9-0.4l15.1 12.5z" class="c"/>
    <path d="m379 258.4-15.1-12.5a2.8 2.8 0 0 1-0.4-3.9 2.8 2.8 0 0 1 3.9-0.4l15.1 12.5z" class="c"/>
    <g class="j">
      <path d="m393.2 240.1-15.1-12.5a2.8 2.8 0 0 1-0.4-3.9 2.8 2.8 0 0 1 3.9-0.4l15.1 12.5z"/>
      <path d="m379 258.4-15.1-12.5a2.8 2.8 0 0 1-0.4-3.9 2.8 2.8 0 0 1 3.9-0.4l15.1 12.5z"/>
    </g>
    <path d="m393.2 240.1a3 3 0 0 1 0.2-0.3l0.7-0.9 2.5-3.2v0.2l-7.1-5.8-4.4-3.7-2.4-2-1.2-1a2.5 2.5 0 0 0-1.3-0.6 2.5 2.5 0 0 0-2.2 0.9 2.6 2.6 0 0 0-0.5 2.3 2.4 2.4 0 0 0 0.5 1 8.1 8.1 0 0 0 0.9 0.8l1.9 1.6 6.5 5.5 4.4 3.7 1.2 1a4.1 4.1 0 0 1 0.4 0.4 2.6 2.6 0 0 1-0.4-0.3l-1.2-1c-1.1-0.9-2.6-2.1-4.5-3.6l-6.7-5.4-1.9-1.6a11 11 0 0 1-1-0.9 3 3 0 0 1 2.7-5 3.1 3.1 0 0 1 1.6 0.7l1.2 1 2.4 2 4.4 3.7 7 5.9 0.1 0.1-0.1 0.1-2.7 3.2-0.7 0.8a1.8 1.8 0 0 1-0.2 0.4z" class="f"/>
    <path d="m379 258.4a1.9 1.9 0 0 1 0.2-0.3c0.2-0.2 0.4-0.5 0.7-0.9l2.5-3.2v0.2l-7.1-5.8-4.4-3.6-2.4-2-1.2-1a2.6 2.6 0 0 0-1.3-0.6 2.6 2.6 0 0 0-2.2 0.9 2.5 2.5 0 0 0-0.5 2.3 2.4 2.4 0 0 0 0.5 1 8.2 8.2 0 0 0 0.9 0.8l1.9 1.6 6.5 5.5 4.4 3.7 1.2 1a2.6 2.6 0 0 1 0.4 0.4s-0.1-0.1-0.4-0.3l-1.2-0.9-4.5-3.6-6.6-5.4-1.9-1.6a8.6 8.6 0 0 1-1-0.9 2.9 2.9 0 0 1-0.6-1.2 3 3 0 0 1 0.6-2.7 3.1 3.1 0 0 1 2.7-1 3.1 3.1 0 0 1 1.6 0.7c0.4 0.4 0.8 0.7 1.2 1l2.4 2 4.4 3.7 7 5.9 0.1 0.1-0.1 0.1c-1.1 1.3-2 2.4-2.7 3.2l-0.7 0.8c-0.1 0.2-0.2 0.3-0.2 0.3z" class="f"/>
    <path d="m427.6 256 0.4-0.5a5.4 5.4 0 0 0-7.4-7.6l-22.2-18.5-25.3 30.3 22.7 18a5.4 5.4 0 0 0 1.1 7 5.3 5.3 0 0 0 7.4-0.6 15.4 15.4 0 0 0 21.3-2.7l3.6-4.5a15.4 15.4 0 0 0-1.6-20.9z" class="c"/>
    <path d="m427.6 256 0.2 0.2 0.5 0.5a7.4 7.4 0 0 1 0.8 0.9l0.5 0.6 0.5 0.7a14.6 14.6 0 0 1 2 4.2 15.4 15.4 0 0 1-2.2 13.3c-0.8 1.2-1.7 2.2-2.7 3.4a29.3 29.3 0 0 1-3.1 3.5 15.4 15.4 0 0 1-9.3 4.1 15.7 15.7 0 0 1-10.7-3.1h0.3a5.6 5.6 0 0 1-3.6 1.9 5.5 5.5 0 0 1-4.1-1.2 5.6 5.6 0 0 1-1.1-7.3l0.1 0.3-17.6-14-5.1-4.1-0.2-0.1 0.2-0.2c9.2-11 17.9-21.3 25.4-30.3l0.1-0.2 0.2 0.1 22.1 18.5h-0.2a5.5 5.5 0 0 1 8.8 4.4 5.3 5.3 0 0 1-1 3 6.7 6.7 0 0 1-0.5 0.6l-0.2 0.2s0.2-0.3 0.7-0.9a5.4 5.4 0 0 0 0.9-3 5.3 5.3 0 0 0-2.2-4.3 5.1 5.1 0 0 0-3-1 5.2 5.2 0 0 0-3.3 1.1l-0.1 0.1-0.1-0.1-22.2-18.4h0.3l-25.3 30.4v-0.3l5.1 4.1 17.6 14 0.2 0.1-0.1 0.2a5.1 5.1 0 0 0 1 6.7 5.1 5.1 0 0 0 7.1-0.6l0.1-0.1 0.2 0.1a15.2 15.2 0 0 0 19.5-1 29.8 29.8 0 0 0 3-3.5c0.9-1.2 1.9-2.3 2.7-3.4a15.3 15.3 0 0 0 0.4-17.2c-0.2-0.3-0.3-0.5-0.5-0.7l-0.5-0.6a9.2 9.2 0 0 0-0.8-0.9l-0.5-0.5q-0.1-0.1-0.1-0.1z" class="f"/>
    <rect transform="rotate(39.59 393.18 251.65)" x="383" y="249.7" width="20.3" height="4" class="b"/>
    <path d="m427.6 256a8.5 8.5 0 0 1-0.8 1.2c-0.6 0.8-1.4 1.8-2.4 3.1-2.1 2.6-5 6.2-8.3 10.1s-6.2 7.3-8.4 10l-2.5 3a8 8 0 0 1-1 1.1 8.5 8.5 0 0 1 0.8-1.2c0.6-0.7 1.4-1.8 2.4-3.1 2.1-2.6 5-6.2 8.3-10l8.4-10 2.6-3a7.7 7.7 0 0 1 1-1.1z" class="f"/>
    <path d="m420.6 247.9a8.4 8.4 0 0 1-0.9 1.2c-0.6 0.8-1.5 1.9-2.6 3.3-2.2 2.7-5.4 6.5-8.9 10.6s-6.6 7.7-9 10.5c-1.1 1.3-2 2.4-2.7 3.2a9.4 9.4 0 0 1-1.1 1.1 10.4 10.4 0 0 1 0.9-1.2c0.6-0.8 1.5-1.9 2.6-3.3 2.2-2.7 5.4-6.5 8.9-10.6l9-10.5 2.7-3.2a10 10 0 0 1 1.1-1.1z" class="f"/>
    <path d="m321 167.5c-0.1 0.3-11.2 8.7-11.2 8.7l-0.2 7.1 5.7 0.8 8.1-4.6 5.5-0.3s3.4 1.8 4 2a1.9 1.9 0 0 0 2.3-0.9l-5-3.6s5.5 3.1 6.1 2.7a1.7 1.7 0 0 0-0.5-2.7s1.7 0.9 2.8 0.2 0.7-1.6 0.7-1.6l-7.3-6.6a5 5 0 0 0-3.4-1.3z" class="l"/>
    <path d="m321.9 170.6a4.8 4.8 0 0 1-0.1 0.9c-0.1 0.6-0.2 1.4-0.4 2.3l-0.1-0.2 4.2-0.3a5.4 5.4 0 0 1 2.7 0.4 2.6 2.6 0 0 1 1.1 1.1 1.8 1.8 0 0 1 0.1 1.6v0.1h-0.1c-1.3 0.8-3 0.6-4.4 0.7a5.2 5.2 0 0 0-3.1 1.1 20.5 20.5 0 0 0-2.3 2.2 10.4 10.4 0 0 1-2.3 1.9 5.2 5.2 0 0 1-2.5 0.7 10 10 0 0 1-3.7-0.8 6.1 6.1 0 0 1-1.2-0.6 8.4 8.4 0 0 1 1.3 0.4 10.6 10.6 0 0 0 3.6 0.6 4.9 4.9 0 0 0 2.3-0.7 10.3 10.3 0 0 0 2.2-1.9 20.5 20.5 0 0 1 2.3-2.3 5.7 5.7 0 0 1 3.4-1.2c1.6-0.1 3.1 0.1 4.2-0.6l-0.1 0.1a1.7 1.7 0 0 0-0.9-2.1 4.9 4.9 0 0 0-2.4-0.3l-4.2 0.2h-0.2v-0.2c0.2-0.9 0.4-1.7 0.5-2.3a3.2 3.2 0 0 1 0.2-0.8z" class="m"/>
    <path d="m336.1 176.8a5 5 0 0 1-1.9-1.1c-1.1-0.8-2.3-2.3-3.9-3.4a2.7 2.7 0 0 0-1.2-0.5c-0.4 0-0.9 0-1.3 0h-2.3a9.8 9.8 0 0 1-2.2-0.1 8.9 8.9 0 0 1 2.2-0.2l2.3-0.1a11 11 0 0 1 1.4 0 3 3 0 0 1 1.5 0.6 40.2 40.2 0 0 1 3.8 3.6c1 0.9 1.7 1.3 1.7 1.3z" class="m"/>
    <path d="m336.6 388.5-0.3 17.5s17.7 6.2 18 9.4l-33.9 0.7-0.7-27.3z" class="c"/>
    <g class="j">
      <path d="m325.8 404.7a1.4 1.4 0 0 0-0.9 1.6 1.3 1.3 0 0 0 1.6 0.9 1.5 1.5 0 0 0 1-1.7 1.4 1.4 0 0 0-1.7-0.8"/>
      <path d="m320.3 416v-2.7l32.5 0.4s1.5 0.6 1.4 1.7z"/>
    </g>
    <g class="f">
      <path d="m336.8 405.8c0 0.2-0.8 0.3-1.6 0.8s-1.2 1.3-1.4 1.2 0.1-1 1.1-1.7 2-0.5 2-0.3z"/>
      <path d="m340.4 407.2c0.1 0.2-0.7 0.5-1.2 1.2s-0.7 1.5-0.9 1.5-0.3-0.9 0.4-1.8 1.7-1 1.7-0.8z"/>
      <path d="m342.5 411.4c-0.1 0-0.4-0.8 0-1.7s1.2-1.3 1.3-1.2-0.4 0.6-0.7 1.4-0.4 1.5-0.5 1.5z"/>
      <path d="m336.5 401.8c-0.1 0.2-0.8-0.1-1.8 0s-1.7 0.4-1.7 0.3 0.6-0.7 1.7-0.8 1.9 0.4 1.8 0.6z"/>
    </g>
    <g class="k">
      <polygon points="319.8 395.2 319.7 392.4 336.5 391.9 336.5 395.1"/>
    </g>
    <g class="f">
      <path d="m336.4 398.3a3.3 3.3 0 0 1-1.7 0 7.8 7.8 0 0 1-1.8-0.5 8.3 8.3 0 0 1-1-0.5 1.7 1.7 0 0 1-0.5-0.4 0.7 0.7 0 0 1-0.1-0.9 0.9 0.9 0 0 1 0.7-0.4 2.1 2.1 0 0 1 0.6 0.1 5.5 5.5 0 0 1 1.1 0.3 6 6 0 0 1 1.6 1c0.8 0.7 1.1 1.3 1 1.4s-0.5-0.4-1.3-1a6.7 6.7 0 0 0-1.5-0.8 5.6 5.6 0 0 0-1-0.3c-0.4-0.1-0.7-0.1-0.7 0.1s0 0.1 0 0.2a2.2 2.2 0 0 0 0.4 0.3c0.3 0.2 0.6 0.4 0.9 0.5a9.1 9.1 0 0 0 1.7 0.6 10.9 10.9 0 0 1 1.7 0.4z"/>
      <path d="m336.2 398.5a2.7 2.7 0 0 1-0.5-1.6 5.5 5.5 0 0 1 0.2-1.9 5.7 5.7 0 0 1 0.4-1 1.4 1.4 0 0 1 1.1-0.9 0.8 0.8 0 0 1 0.7 0.5 2 2 0 0 1 0.2 0.6 3.7 3.7 0 0 1 0 1.1 3.8 3.8 0 0 1-0.7 1.8c-0.6 0.9-1.3 1.1-1.3 1.1s0.5-0.4 1-1.3a4 4 0 0 0 0.5-1.6 3.7 3.7 0 0 0-0.1-1c-0.1-0.4-0.2-0.6-0.3-0.6s-0.4 0.3-0.6 0.6a6.7 6.7 0 0 0-0.4 0.9 6 6 0 0 0-0.3 1.7c0 1 0.2 1.6 0.1 1.6z"/>
      <path d="m274.8 289.6c0.8 1.3 37.7 39.5 37.7 39.5s-4.6 17.6-2.9 32.9 6.6 39.7 6.6 39.7l26.7-2.1-7.3-83-29.2-38.5z"/>
    </g>
    <path d="m345.8 369.1 3.3 17.2s18.6 2.4 19.5 5.6l-33.1 7.6-6.2-26.6z" class="c"/>
    <g class="j">
      <path d="m338.5 387.2a1.4 1.4 0 0 0-0.6 1.8 1.3 1.3 0 0 0 1.7 0.6 1.5 1.5 0 0 0 0.6-1.9 1.4 1.4 0 0 0-1.9-0.4"/>
      <path d="m335.5 399.4-0.5-2.7 31.9-6.2s1.6 0.3 1.7 1.4z"/>
    </g>
    <g class="f">
      <path d="m349.6 386c0 0.2-0.8 0.4-1.4 1.1s-0.9 1.5-1.1 1.5-0.1-1 0.7-1.9 1.9-0.8 1.9-0.7z"/>
      <path d="m353.4 386.7c0.1 0.2-0.6 0.6-1 1.4s-0.4 1.6-0.5 1.6-0.5-0.9 0-1.9 1.5-1.3 1.6-1.1z"/>
      <path d="m356.3 390.4c-0.1 0.1-0.5-0.7-0.3-1.7s0.9-1.5 1-1.4-0.3 0.7-0.4 1.5-0.1 1.5-0.2 1.6z"/>
      <path d="m348.4 382.2c0 0.2-0.8 0.1-1.7 0.4s-1.5 0.7-1.7 0.6 0.4-0.9 1.5-1.2 1.9 0 1.9 0.2z"/>
    </g>
    <g class="k">
      <polygon points="330.7 379.2 330.1 376.4 346.4 372.5 347 375.6"/>
    </g>
    <g class="f">
      <path d="m347.7 378.7a3.2 3.2 0 0 1-1.7 0.4 8.2 8.2 0 0 1-2.9-0.4 2.2 2.2 0 0 1-0.6-0.3 0.7 0.7 0 0 1-0.3-0.8 0.9 0.9 0 0 1 0.6-0.5 2.2 2.2 0 0 1 0.7-0.1 6.6 6.6 0 0 1 1.1 0.1 5.9 5.9 0 0 1 1.8 0.7c0.9 0.5 1.3 1.1 1.3 1.1s-0.5-0.3-1.5-0.8a6.7 6.7 0 0 0-1.7-0.5 5.6 5.6 0 0 0-1-0.1c-0.4 0-0.7 0.1-0.7 0.2s0 0.1 0.1 0.2a1.6 1.6 0 0 0 0.4 0.2 6.9 6.9 0 0 0 1 0.3 8.7 8.7 0 0 0 1.7 0.3 11.4 11.4 0 0 1 1.6 0z"/>
      <path d="m347.5 379c-0.1 0-0.5-0.5-0.8-1.5a5.9 5.9 0 0 1-0.2-1.9 5.7 5.7 0 0 1 0.2-1.1 1.4 1.4 0 0 1 0.9-1.1 0.8 0.8 0 0 1 0.8 0.3 2.2 2.2 0 0 1 0.3 0.6 3.8 3.8 0 0 1 0.3 1.1 4 4 0 0 1-0.3 1.9c-0.4 1-1.1 1.4-1.1 1.3a13.7 13.7 0 0 0 0.7-1.4 4.1 4.1 0 0 0 0.2-1.7 3.7 3.7 0 0 0-0.2-0.9c-0.1-0.3-0.3-0.6-0.4-0.5s-0.4 0.4-0.5 0.7a5.7 5.7 0 0 0-0.1 2.7c0.2 1 0.5 1.6 0.4 1.6z"/>
      <path d="m208.9 263.4s-2.5 15.8 7.1 26.2 19.9 14.9 38.1 14.1 57.5 0.1 57.5 0.1 1.7 21 6.2 38.2 13.6 43 13.6 43l17.8-1.7s-4.8-93.6-6-101.8-15-12.5-22.5-14.9-50.2-11-50.2-11l-38.8-5.4z"/>
    </g>
    <g class="i">
      <path d="m349.3 383.2h-0.3l-0.9 0.1-3.6 0.3-13.6 0.9h-0.1v-0.1c-2.4-7.7-5.5-17.6-9.1-29.1-1.8-5.7-3.7-11.9-5.7-18.3-1-3.2-2.1-6.5-2.8-9.9a67 67 0 0 1-1.5-10.6 50.7 50.7 0 0 1 0.7-12.5l0.2 0.3c-10.8-0.2-21.1-0.3-30.3-0.4-4.6 0-9 0-13 0.1s-7.8 0.2-11.3 0.2c-6.9 0-12.4-0.3-16.2-0.7-1.9-0.2-3.4-0.3-4.3-0.4l-1.1-0.1-0.4-0.1a2.3 2.3 0 0 1 0.4 0l1.1 0.1 4.4 0.4c3.8 0.3 9.3 0.6 16.2 0.5 3.4 0 7.2-0.2 11.3-0.3s8.4-0.1 13-0.1c9.2 0 19.5 0.1 30.3 0.3h0.3l-0.1 0.3a50.8 50.8 0 0 0-0.6 12.4 67.3 67.3 0 0 0 1.5 10.5c0.7 3.4 1.8 6.7 2.8 9.9 2 6.4 3.9 12.6 5.7 18.3 3.5 11.5 6.6 21.5 9 29.2l-0.1-0.1 13.6-0.8 3.6-0.2h0.9a1.6 1.6 0 0 1 0.3 0z"/>
      <path d="m321 293c0.1 0.1-2.1 2.2-4.4 5.3s-3.7 5.7-3.8 5.7a7.3 7.3 0 0 1 0.8-1.8 31 31 0 0 1 2.6-4.1 31.8 31.8 0 0 1 3.2-3.7 6.4 6.4 0 0 1 1.6-1.3z"/>
      <path d="m325.8 294.7a39 39 0 0 0-7 3.6 39.8 39.8 0 0 0-5.8 5.3 8.5 8.5 0 0 1 1.4-1.9 22 22 0 0 1 9.3-6.4 7.8 7.8 0 0 1 2.2-0.6z"/>
      <path d="m246.4 168.5c1.3 0.7 28.6 17.4 29.9 17.4s33.6-11.8 33.6-11.8l6.6 10.2s-28.3 21.8-37.6 22.1-24-7.1-24-7.1z"/>
      <path d="m189.6 177.7s-34 34.6-33.6 43.3 4.6 13.6 7.3 14.8c3.8 1.6 46.3-3.6 46.3-3.6l2.5-16.6c-7-1.4-15.9-2.4-25.5-3.4 4.3-4.5 9.1-7.9 15-8.9l10.2-11.1s-12.7-16.7-22.3-14.5z"/>
      <path d="m187.8 188s-1.6-7.5 2-10.4c6-5 11.1-7.3 15.5-9.4 5-2.5 10.3-5.4 10.3-5.4l30.9 5.7s16.5 26.3 16.1 32.8a17.2 17.2 0 0 1-4.4 10.5 39.8 39.8 0 0 0 2.3 21.1c3.7 9.2 10.2 22.4 10.2 22.4s-35.4-5.7-52.1 2.5c-9 4.4-9.8 11.4-9.8 11.4l-1.3-38.5-6.9-23.6z"/>
    </g>
    <g class="f">
      <path d="m211.2 215.4s-0.2-0.1-0.5-0.1-0.8-0.1-1.4-0.2c-1.2-0.2-2.9-0.4-5.1-0.6-4.3-0.5-10.2-1.1-16.8-1.7l-1.1-0.1-0.6-0.1 0.5-0.4c2.5-2 4.8-3.8 7-5.5a17.5 17.5 0 0 1 6.7-2.9 17 17 0 0 1 4.9-0.3 12.2 12.2 0 0 1 1.3 0.2 1.5 1.5 0 0 1 0.4 0.1 21.1 21.1 0 0 0-6.5 0.4 17.6 17.6 0 0 0-6.4 3l-7 5.6-0.1-0.4 1.1 0.1c6.6 0.6 12.5 1.3 16.8 1.9s7 1.1 6.9 1.3z"/>
      <path d="m174.7 213a4 4 0 0 1 1.4-1.2 8.9 8.9 0 0 1 4.3-1.3 8.6 8.6 0 0 1 4.4 0.9 4 4 0 0 1 1.5 1.1c0 0.1-0.6-0.3-1.6-0.8a9.8 9.8 0 0 0-4.2-0.7 9.7 9.7 0 0 0-4.1 1.2c-1 0.5-1.5 0.9-1.6 0.9z"/>
      <path d="m207 191.9c-0.1 0-0.4-1.3-1.1-3.2a22.5 22.5 0 0 0-4.1-7 14.1 14.1 0 0 0-3.5-2.8l-0.9-0.4c-0.3-0.1-0.6-0.2-0.9-0.3a9.6 9.6 0 0 0-1.6-0.4 12.3 12.3 0 0 0-2.5-0.2 3.5 3.5 0 0 1-0.9 0 2.9 2.9 0 0 1 0.9-0.1 10.4 10.4 0 0 1 4.3 0.4c0.3 0.1 0.6 0.2 0.9 0.3l1 0.5a14 14 0 0 1 3.7 2.8 20.8 20.8 0 0 1 4.1 7.3 19 19 0 0 1 0.7 2.4 3.7 3.7 0 0 1 0.1 0.8z"/>
      <path d="m257.1 212.8s0.4-0.5 1.1-1.3a15.6 15.6 0 0 0 2.3-4 16.8 16.8 0 0 0 1.2-6.7 15.7 15.7 0 0 0-2.4-7.9 60.9 60.9 0 0 0-5.2-6.7 30.9 30.9 0 0 1-3.9-5.8 14 14 0 0 1-1.4-4.5 8.4 8.4 0 0 1-0.1-1.3 1.3 1.3 0 0 1 0-0.4s0 0.6 0.2 1.7a14.8 14.8 0 0 0 1.6 4.4 31.4 31.4 0 0 0 4 5.7 57.7 57.7 0 0 1 5.2 6.8 15.9 15.9 0 0 1 2.5 8.2 16.6 16.6 0 0 1-1.3 6.9 14.7 14.7 0 0 1-2.5 4 8.3 8.3 0 0 1-0.9 0.9 1.7 1.7 0 0 1-0.3 0.3z"/>
    </g>
    <g class="k">
      <path d="m203.4 214a4.6 4.6 0 0 1 2.8-5.6 24.1 24.1 0 0 1 3.7-0.5c0.8-0.1 1.7-0.5 1.8-1.3 0.2-1-0.8-1.7-1.7-2.1a15.8 15.8 0 0 0-11.7-0.3 18.5 18.5 0 0 1 3.7 9.7"/>
      <path d="m250.1 179.8c-1.6-3.2 4.2 5.8 6.9 8.1a59.3 59.3 0 0 1 7.8 7.4c2.2 2.8 3.9 5.9 3.6 9.4l-6.4-2.3s0.8-5.2-2-9-9.1-12.4-9.8-13.6z"/>
      <path d="m186.2 212c-1.8-1.9-4.5-2.7-7.1-3a10.9 10.9 0 0 0-4.7 0.3 5.1 5.1 0 0 0-3.3 3.2 1.5 1.5 0 0 0 0.1 1.4 1.3 1.3 0 0 0 1.5 0.3 5.1 5.1 0 0 0 1.4-0.8 12.2 12.2 0 0 1 12-1.3"/>
    </g>
    <g class="f">
      <path d="m196.7 187.5a2.1 2.1 0 1 1-2.1-2.1 2.1 2.1 0 0 1 2.1 2.1z"/>
      <path d="m208.1 173.5a2.1 2.1 0 1 1-2.1-2.1 2.1 2.1 0 0 1 2.1 2.1z"/>
      <path d="m230.1 174.4a2.1 2.1 0 1 1-2.1-2.1 2.1 2.1 0 0 1 2.1 2.1z"/>
      <path d="m247.2 173.1a2.1 2.1 0 1 1-2.1-2.1 2.1 2.1 0 0 1 2.1 2.1z"/>
      <path d="m275.4 198.1a2.1 2.1 0 1 1-2.1-2.1 2.1 2.1 0 0 1 2.1 2.1z"/>
      <path d="m258.2 195.9a2.1 2.1 0 1 1-2.1-2.1 2.1 2.1 0 0 1 2.1 2.1z"/>
      <path d="m261.8 181.9a2.1 2.1 0 1 1-2.1-2.1 2.1 2.1 0 0 1 2.1 2.1z"/>
      <circle cx="285.5" cy="187.7" r="2.1"/>
      <path d="m302.2 189.6a2.1 2.1 0 1 1-2.1-2.1 2.1 2.1 0 0 1 2.1 2.1z"/>
      <path d="m249.4 212.1a2.1 2.1 0 1 1-2.1-2.1 2.1 2.1 0 0 1 2.1 2.1z"/>
      <path d="m257 224.1a2.1 2.1 0 1 1-2.1-2.1 2.1 2.1 0 0 1 2.1 2.1z"/>
      <path d="m241.3 232.1a2.1 2.1 0 1 1-2.1-2.1 2.1 2.1 0 0 1 2.1 2.1z"/>
      <path d="m231.1 245.3a2.1 2.1 0 1 1-2.1-2.1 2.1 2.1 0 0 1 2.1 2.1z"/>
      <path d="m256.1 243.1a2.1 2.1 0 1 1-2.1-2.1 2.1 2.1 0 0 1 2.1 2.1z"/>
      <path d="m215.2 255a2.1 2.1 0 1 1-2.1-2.1 2.1 2.1 0 0 1 2.1 2.1z"/>
      <path d="m224 222a2.1 2.1 0 1 1-2.1-2.1 2.1 2.1 0 0 1 2.1 2.1z"/>
      <path d="m216.9 237.3a2.1 2.1 0 1 1-2.1-2.1 2.1 2.1 0 0 1 2.1 2.1z"/>
      <path d="m242.6 190.4a2.1 2.1 0 1 1-2.1-2.1 2.1 2.1 0 0 1 2.1 2.1z"/>
      <path d="m229.5 207.2a2.1 2.1 0 1 1-2.1-2.1 2.1 2.1 0 0 1 2.1 2.1z"/>
      <path d="m216.9 193.8a2.1 2.1 0 1 1-2.1-2.1 2.1 2.1 0 0 1 2.1 2.1z"/>
      <path d="m165 226.4a2.1 2.1 0 1 1-2.1-2.1 2.1 2.1 0 0 1 2.1 2.1z"/>
      <path d="m174.8 199.8a2.1 2.1 0 1 1-2.1-2.1 2.1 2.1 0 0 1 2.1 2.1z"/>
      <path d="m193.5 229.4a2.1 2.1 0 1 1-2.1-2.1 2.1 2.1 0 0 1 2.1 2.1z"/>
      <path d="m206.3 219.6a2.1 2.1 0 1 1-2.1-2.1 2.1 2.1 0 0 1 2.1 2.1z"/>
      <path d="m180.7 217.3a2.1 2.1 0 1 1-2.1-2.1 2.1 2.1 0 0 1 2.1 2.1z"/>
      <path d="m191.7 203.4a2.1 2.1 0 1 1-2.1-2.1 2.1 2.1 0 0 1 2.1 2.1z"/>
    </g>
    <path d="m182.8 324.9a60.5 60.5 0 0 1-12.9-1.4c-8.8-1.9-15.7-4.8-21-8.7a66.8 66.8 0 0 1-20.4 3.7c-22.7 0.6-43.2-6.5-68.4-26.8q-1.9-4.1-3.7-8.6c24.2 19.6 50.5 31 71.9 30.5a62.5 62.5 0 0 0 16.2-2.6c-5.8-6.1-8.8-14.1-8.8-23.7 0-10.6 4.6-15.4 8.3-17.6 5.4-3.1 12.7-2.6 19.1 1.1 7.1 4.1 11.3 11.1 11.3 18.7a20.5 20.5 0 0 1-8.1 16 61.5 61.5 0 0 1-11.9 7.2 59.2 59.2 0 0 0 39.6 6.2c21.3-4.2 39.1-11.8 52.9-22.5a85.9 85.9 0 0 0 33.5-70.8v-0.1c-1.2-24.6-15.6-48.7-36.7-61.3-18.3-10.9-41.7-13.9-65.9-8.4-15 3.4-35.5 11.5-47.6 30.8-13 20.7-9.5 46.4 1.3 58.4 7.7 8.5 22.3 5.5 34.1 3l3.9-0.8c12.7-2.5 64.1-26.6 64.3-26.7l1.1 4.1c-0.8 0.3-51.4 24.9-64.4 27.5-1.2 0.2-2.5 0.5-3.8 0.8-13 2.7-29.3 6.1-38.8-4.5-6.9-7.7-10.8-18.9-10.8-31.4a63 63 0 0 1 9.1-33c13-20.7 34.8-29.3 50.7-33 25.5-5.8 50.2-2.6 69.5 9 22.4 13.5 37.7 39.2 39.1 65.4 0.1 1.3 1.5 20.5-8.8 42.1a90.3 90.3 0 0 1-26.7 33c-14.4 11.2-32.9 19-55 23.4a62.1 62.1 0 0 1-12.1 1.2zm-30.7-52.3a11.2 11.2 0 0 0-5.6 1.4c-3.8 2.2-5.8 6.8-5.8 13.3 0 9.3 2.9 16.5 9 21.9a56.8 56.8 0 0 0 13.6-7.7 15.5 15.5 0 0 0 6.2-12c0-5.8-3.3-11.1-8.8-14.3a17.1 17.1 0 0 0-8.5-2.5z" class="c"/>
    <path d="m152.8 317.4a5.8 5.8 0 0 1-1.9-0.9 34 34 0 0 1-4-3 31.5 31.5 0 0 1-3.6-3.5 5.4 5.4 0 0 1-1.2-1.7c0.1 0 0.5 0.6 1.4 1.5s2.2 2.1 3.7 3.4 2.9 2.3 3.9 3.1a14.7 14.7 0 0 1 1.7 1.2z" class="f"/>
    <path d="m158.1 314.5a6.1 6.1 0 0 1-2.2-0.6 18.9 18.9 0 0 1-4.8-2.9 23.9 23.9 0 0 1-3.9-4 7.3 7.3 0 0 1-1.2-2c0.1 0 0.6 0.7 1.5 1.8a30.5 30.5 0 0 0 4 3.8 22.9 22.9 0 0 0 4.6 2.9c1.2 0.6 2.1 0.9 2.1 0.9z" class="f"/>
    <g class="e">
      <path d="m138.1 297.3a2.6 2.6 0 0 1-0.3-0.8 22.7 22.7 0 0 1-0.6-2.3 29.7 29.7 0 0 1 1.1-15.4 20 20 0 0 1 0.9-2.2 3.1 3.1 0 0 1 0.4-0.8c0.1 0-0.4 1.2-1 3.1a35.2 35.2 0 0 0-1.4 7.6 34.6 34.6 0 0 0 0.3 7.7c0.3 2 0.7 3.2 0.6 3.2z"/>
      <path d="m125.7 315.2a8.7 8.7 0 0 1-2.4 0.4 26.3 26.3 0 0 1-11.6-1.6 9 9 0 0 1-2.2-1.1 19 19 0 0 1 2.3 0.7 33.4 33.4 0 0 0 5.7 1.3 34.1 34.1 0 0 0 5.8 0.3 20.2 20.2 0 0 1 2.4-0.1z"/>
      <path d="m263.5 282a12 12 0 0 1-1.5 2.2 53 53 0 0 1-8.8 9.1 11.5 11.5 0 0 1-2.1 1.5 17.7 17.7 0 0 1 1.9-1.7c1.2-1.1 2.8-2.6 4.6-4.3s3.2-3.4 4.2-4.7a18.2 18.2 0 0 1 1.8-2z"/>
      <path d="m120.9 231.1a6.7 6.7 0 0 1-0.5-1.3 35.1 35.1 0 0 1-1-3.7 48.8 48.8 0 0 1-1-5.7 51.1 51.1 0 0 1 0.4-14 49 49 0 0 1 1.3-5.6 38.4 38.4 0 0 1 1.3-3.7 6.8 6.8 0 0 1 0.6-1.3 8.9 8.9 0 0 1-0.4 1.4c-0.3 0.9-0.7 2.1-1.1 3.7a53.9 53.9 0 0 0-1.2 5.6 62 62 0 0 0-0.6 7 57.5 57.5 0 0 0 0.3 7 53.8 53.8 0 0 0 0.9 5.6c0.3 1.6 0.6 2.9 0.9 3.7a8.5 8.5 0 0 1 0.3 1.3z"/>
      <path d="m126.9 186.2a8.7 8.7 0 0 1-1.2 2.7 8.9 8.9 0 0 1-1.6 2.4 8.9 8.9 0 0 1 1.2-2.7 9.3 9.3 0 0 1 1.6-2.4z"/>
    </g>
    <g class="f">
      <path d="m248 142.1c-1.2 1.9-0.2 4.4 1.2 6.2s3 3.5 3.3 5.8c0.4 3.1-2.2 5.7-5 7a5.4 5.4 0 0 0-2.4 1.5c-0.8 1.1-0.5 2.6-0.5 3.9a6.5 6.5 0 0 1-3.3 5.6 5.4 5.4 0 0 1-6.3-1 7.7 7.7 0 0 1-1.6-3.6 16.4 16.4 0 0 1 3.6-14.2c1.7-1.9 3.8-3.3 5.7-5s3.5-3.9 3.6-6.4"/>
      <path d="m247.7 119.3c-1.4-3.6-5-5.8-8.7-7.1a24.5 24.5 0 0 0-16.2-0.3c-7.6 2.8-12.7 9.9-16.7 16.9-1.7 3.1-3.6 6.5-7 7.6-1.8 0.5-3.7 0.3-5.6 0.5a11.5 11.5 0 0 0-7.5 4c-2.2 2.7-3.4 6.6-6.6 8.1-2.1 0.9-4.5 0.5-6.7 0.6-4.7 0.2-9.7 3-10.7 7.6-0.7 3 0.4 6.4-1 9.1-0.5 1-1.3 1.8-1.8 2.9a5.2 5.2 0 0 0 7.6 6.6 13.6 13.6 0 0 1 2.1-1.4c1.6-0.7 3.5 0.2 4.9 1.3s2.8 2.4 4.6 2.6c3.6 0.4 6.4-4 10.1-3.7 2 0.1 3.7 1.7 5.4 2.7 3.1 1.8 4.6 0.2 7.2-2.3s4 7.9 10 5.2c5.6-2.5 0.1-12.1 2.1-11.8s7.4-0.1 8.5-1.8"/>
      <path d="m248.4 130a13.6 13.6 0 0 0-1.6-12.3 17.8 17.8 0 0 0-7.6-5.8 19.1 19.1 0 0 0-12.7-1.2c-4.2 1.2-7.8 4.6-8.8 8.8-0.4 1.9-0.3 4-1.1 5.8a4.3 4.3 0 0 0-0.8 2.4 2 2 0 0 0 1.6 1.5 4.5 4.5 0 0 0 2.3-0.2 24.4 24.4 0 0 0 7-3.9"/>
    </g>
    <path d="m234.5 167.7c0.5-3.7 0.6-5.2 0.6-5.2s7.9-0.4 10.7-10.4c1.4-5 2.1-13.3 2.4-20.1 0.3-6.1-2.9-14.1-9-14.1l-19.5 2.6a3.6 3.6 0 0 0-3.6 3.3l-3.1 44.4s8.8 10.4 16.4 9 5-9.5 5-9.5z" class="l"/>
    <g class="f">
      <path d="m244.9 138.9a1.3 1.3 0 0 1-1.4 1.2 1.3 1.3 0 0 1-1.2-1.3 1.3 1.3 0 0 1 1.4-1.2 1.3 1.3 0 0 1 1.2 1.3z"/>
      <path d="m245.9 136.2c-0.2 0.2-1.1-0.7-2.5-0.8s-2.5 0.4-2.6 0.2 0.1-0.4 0.6-0.6a3.7 3.7 0 0 1 2.1-0.4 3.4 3.4 0 0 1 2 0.9c0.4 0.4 0.5 0.7 0.4 0.8z"/>
      <path d="m232.1 137.6a1.3 1.3 0 0 1-1.4 1.2 1.3 1.3 0 0 1-1.2-1.3 1.3 1.3 0 0 1 1.4-1.2 1.3 1.3 0 0 1 1.2 1.3z"/>
      <path d="m232.1 134.9c-0.2 0.2-1.1-0.7-2.5-0.8s-2.5 0.4-2.6 0.2 0.1-0.4 0.6-0.6a3.7 3.7 0 0 1 2.1-0.4 3.5 3.5 0 0 1 2 0.9c0.4 0.4 0.5 0.7 0.4 0.8z"/>
      <path d="m236 145.8a9 9 0 0 1 2.3-0.2c0.4 0 0.7 0 0.8-0.3a1.8 1.8 0 0 0-0.1-1.1q-0.4-1.3-0.7-2.8a47.5 47.5 0 0 1-1.6-7.4c0.2 0 1.1 3.2 2.2 7.3 0.3 1 0.5 2 0.7 2.9a2 2 0 0 1 0 1.4 0.9 0.9 0 0 1-0.6 0.5 3.4 3.4 0 0 1-0.6 0 9.5 9.5 0 0 1-2.3-0.2z"/>
    </g>
    <path d="m235.1 162.5a25.9 25.9 0 0 1-13.2-5.2s2.6 7.4 12.9 7.6z" class="m"/>
    <path d="m235 149.2a2.5 2.5 0 0 0-2.1-1.2 2.3 2.3 0 0 0-1.7 0.7 1.4 1.4 0 0 0-0.3 1.7 1.7 1.7 0 0 0 1.8 0.7 5.3 5.3 0 0 0 1.9-0.9 1.4 1.4 0 0 0 0.5-0.4 0.5 0.5 0 0 0 0.1-0.5" class="m"/>
    <path d="m232.8 129.8c-0.2 0.4-1.6 0-3.2 0s-3 0.3-3.2 0c-0.1-0.2 0.2-0.5 0.8-0.8a5.6 5.6 0 0 1 4.9 0c0.6 0.4 0.8 0.7 0.8 0.9z" class="f"/>
    <path d="m246.2 130c-0.3 0.3-1.2-0.1-2.4-0.3s-2.2 0-2.4-0.4c-0.1-0.2 0.1-0.5 0.6-0.7a3.5 3.5 0 0 1 3.8 0.6c0.4 0.4 0.5 0.7 0.4 0.9z" class="f"/>
    <path d="m217 141.2c0.1-0.8-0.6-2.6-1.3-2.8-2-0.5-5.6-0.8-6.2 4.3-0.8 6.9 6.3 6.3 6.3 6.1s0.9-5 1.2-7.6z" class="l"/>
    <path d="m214 145.9s-0.1 0.1-0.3 0.1a1.2 1.2 0 0 1-0.9-0.1 3 3 0 0 1-1.1-2.8 4 4 0 0 1 0.6-1.7 1.4 1.4 0 0 1 1-0.8 0.6 0.6 0 0 1 0.7 0.4c0.1 0.2 0 0.3 0 0.4s0.2-0.1 0.1-0.4a0.7 0.7 0 0 0-0.2-0.5 0.9 0.9 0 0 0-0.6-0.3 1.7 1.7 0 0 0-1.4 0.9 4.1 4.1 0 0 0-0.6 1.9c-0.1 1.4 0.4 2.8 1.4 3.2a1.3 1.3 0 0 0 1.1 0c0.3-0.1 0.3-0.3 0.3-0.3z" class="m"/>
    <g class="f">
      <path d="m240.3 116.9a9.5 9.5 0 0 1-7.1 6.6c-1.8 0.4-3.9 0.3-5.1 1.7s-0.8 3.7-1.9 5.2c-1.6 2.1-5.3 1.6-6.5 3.9-0.5 1-0.4 2.2-1 3.2a3.2 3.2 0 0 1-4 1.1 5.2 5.2 0 0 1-2.7-3.4 14 14 0 0 1-0.3-4.5 24.7 24.7 0 0 1 1.6-8.7c2.4-5.7 11.7-13 17.8-12"/>
      <path d="m247.2 144.2c1.6-1.9 3.1-4 4.7-5.8s3.1-3.7 3.2-6a9.7 9.7 0 0 0-1.7-5.5 69.4 69.4 0 0 0-6.6-9 9 9 0 0 0-1.8-1.8 4.5 4.5 0 0 0-2.1-0.7 2.5 2.5 0 0 0-1.7 0.4 1.4 1.4 0 0 0-0.5 1.6 2.7 2.7 0 0 0 1.3 1c2.9 1.5 4.7 4.5 5.6 7.6s0.6 6.2 0.5 9.4c-0.1 2.5-0.4 5.2-0.7 7.6"/>
      <path d="m231 110.3a21 21 0 0 0-19.2 8.1c-2.4 3.2-4.2 7.5-8 8.8-3.1 1.1-6.6-0.1-9.9 0.5a9.1 9.1 0 0 0-6.7 5.3c-0.9 2.2-1 4.8-2.7 6.5-2.1 2.3-6 2-8.2 4.3-1.8 1.8-1.9 4.8-1.1 7.3a4.1 4.1 0 0 0 1.7 2.6 4.2 4.2 0 0 0 2.7 0.2 31 31 0 0 0 8.9-3.5c6.4-3.4 12.5-7.3 18.6-11.1a38.2 38.2 0 0 0 8-6.1c3-3.3 4.8-7.4 6.9-11.3s4.8-7.8 8.8-9.6"/>
    </g>
    <g class="i">
      <path d="m162.3 176.2a0.9 0.9 0 0 1-0.3-0.1 3.1 3.1 0 0 1-0.8-0.4 5 5 0 0 1-1.9-2.6 6.2 6.2 0 0 1 0.6-5.1 10.5 10.5 0 0 1 5.4-4.1 52.5 52.5 0 0 1 8.1-1.8 19.2 19.2 0 0 0 4.4-1.3 8.7 8.7 0 0 0 5.5-7.5 38.2 38.2 0 0 1 0.9-5.3 13.7 13.7 0 0 1 7.4-8.4 13 13 0 0 1 5.7-1.2c1.9 0 3.8 0.3 5.6 0.5a12.4 12.4 0 0 0 5.2-0.5 6.4 6.4 0 0 0 2.2-1.3 7.7 7.7 0 0 0 1.5-2c0.8-1.4 1.3-3 2.2-4.4a11.1 11.1 0 0 1 3.3-3.3 26.8 26.8 0 0 1 7.8-3 47.3 47.3 0 0 0 6.5-2 16.4 16.4 0 0 0 4.4-2.6 9.8 9.8 0 0 0 2.1-2.5c0.4-0.6 0.5-1 0.5-1a6.8 6.8 0 0 1-0.4 1 9 9 0 0 1-2 2.6 15.9 15.9 0 0 1-4.4 2.7 45.1 45.1 0 0 1-6.5 2 26.7 26.7 0 0 0-7.6 3 10.5 10.5 0 0 0-3.2 3.2c-0.8 1.3-1.3 2.9-2.1 4.4a7.8 7.8 0 0 1-1.6 2.1 6.8 6.8 0 0 1-2.3 1.4 12.8 12.8 0 0 1-5.4 0.6c-1.8-0.1-3.7-0.4-5.5-0.4a12.5 12.5 0 0 0-5.4 1.2 13.2 13.2 0 0 0-7.1 8.1 39.6 39.6 0 0 0-0.9 5.3 10.3 10.3 0 0 1-1.8 4.9 10.2 10.2 0 0 1-3.9 3 19 19 0 0 1-4.5 1.4 53.7 53.7 0 0 0-8.1 1.7 10.2 10.2 0 0 0-5.3 4 6 6 0 0 0-0.7 4.9 5 5 0 0 0 1.8 2.6 10.6 10.6 0 0 0 0.9 0.7z"/>
      <path d="m162.9 154.9a2.7 2.7 0 0 1 0.7-0.7 4.8 4.8 0 0 1 2.7-0.8 13.3 13.3 0 0 1 4.4 0.7 17.4 17.4 0 0 0 2.7 0.6 5.9 5.9 0 0 0 3-0.3 6.2 6.2 0 0 0 2.6-2 11.4 11.4 0 0 0 1.7-3.2c0.4-1.2 0.8-2.5 1.2-3.8a25 25 0 0 1 1.7-3.9 14.6 14.6 0 0 1 6.4-6.4 11.7 11.7 0 0 1 4.7-1c1.6 0 3.3 0.1 4.9-0.1a7.2 7.2 0 0 0 4.3-1.7 13 13 0 0 0 2.6-3.9 19.8 19.8 0 0 1 2.4-4 11.3 11.3 0 0 1 3.5-2.7 22.2 22.2 0 0 1 7.9-2c2.6-0.2 4.9-0.3 7.1-0.6a18.8 18.8 0 0 0 5.6-1.6 12.2 12.2 0 0 0 3.6-2.5 8.5 8.5 0 0 0 1.6-2.2c0.3-0.6 0.4-0.9 0.4-0.9a4.6 4.6 0 0 1-0.3 0.9 8.2 8.2 0 0 1-1.5 2.3 12 12 0 0 1-3.6 2.6 18.5 18.5 0 0 1-5.6 1.7c-2.2 0.3-4.5 0.5-7.1 0.7a22 22 0 0 0-7.8 2 10.8 10.8 0 0 0-3.4 2.7 19.2 19.2 0 0 0-2.3 3.9 13.3 13.3 0 0 1-2.7 4 7.7 7.7 0 0 1-4.6 1.9c-1.7 0.2-3.3 0-4.9 0.1a11.2 11.2 0 0 0-4.5 0.9 14.3 14.3 0 0 0-6.2 6.2 26 26 0 0 0-1.7 3.8c-0.5 1.3-0.8 2.6-1.2 3.8-0.8 2.4-2.3 4.6-4.5 5.5a6.2 6.2 0 0 1-3.1 0.3 17.8 17.8 0 0 1-2.7-0.6 13.4 13.4 0 0 0-4.3-0.8 5 5 0 0 0-2.6 0.7c-0.5 0.4-0.8 0.7-0.8 0.6z"/>
      <path d="m193.4 176s0.2 0 0.4-0.2a1.8 1.8 0 0 0 0.8-1 2.2 2.2 0 0 0-0.3-2 5.3 5.3 0 0 0-2.2-1.7 10.8 10.8 0 0 1-3-1.7 6 6 0 0 1-1.7-3.7 7.6 7.6 0 0 1 0.9-4.4 9.9 9.9 0 0 1 3.3-3.4 23.3 23.3 0 0 1 8.7-2.9 37.1 37.1 0 0 0 7.2-1.8 12.8 12.8 0 0 0 4.2-2.6c0.9-0.8 1.2-1.4 1.2-1.3s-0.1 0.2-0.2 0.4a7.6 7.6 0 0 1-0.9 1.1 12.4 12.4 0 0 1-4.2 2.8 35.2 35.2 0 0 1-7.2 1.9c-2.7 0.5-5.8 1.1-8.5 2.9a9.5 9.5 0 0 0-3.2 3.3 7.3 7.3 0 0 0-0.9 4.1 5.6 5.6 0 0 0 1.5 3.4 10.8 10.8 0 0 0 2.9 1.7 5.4 5.4 0 0 1 2.3 1.8 2.4 2.4 0 0 1 0.3 2.2 1.8 1.8 0 0 1-0.9 1 0.9 0.9 0 0 1-0.5 0.2z"/>
    </g>
    <path d="m205.9 228.2s-1.1-1.2-0.8-2.4 1.1-2 1.4-1.9 0.2-6.3 1.4-6.7a16.6 16.6 0 0 1 2.5-0.8s1.4-3.5 2.1-3.4 9.3 1.6 9.3 1.6 6.7 7.2 6.4 7.9-0.8 1.4-1.8 1.1a12 12 0 0 1-2.1-1.1l3.6 3.9s-0.7 3-3.6 0.9l1.4 1.8s-0.9 3.8-5.1 0.6l-4.3-2.6h-2.8l6.4 3.9s0.7 1.9-1.2 1.9-6.8-2.6-6.8-2.6-2.9 1.7-3.8 1.7-1.2-1.1-1.2-1.1z" class="l"/>
    <path d="m224.4 227.5a16.6 16.6 0 0 1-1.5-1.3 32.3 32.3 0 0 1-3.5-3.2 3 3 0 0 0-2.2-1 14.6 14.6 0 0 0-2.1 0.1 3.9 3.9 0 0 1-2-0.1c0-0.1 0.8 0 1.9-0.2a11.4 11.4 0 0 1 2.2-0.2 3.7 3.7 0 0 1 1.3 0.3 3.3 3.3 0 0 1 1.2 0.8c1.2 1.4 2.5 2.4 3.4 3.3a5.1 5.1 0 0 1 1.3 1.6z" class="m"/>
    <path d="m227.8 226.4a12.1 12.1 0 0 1-1.7-1.7c-1-1.1-2.5-2.6-4.1-4.2-0.8-0.8-1.6-1.6-2.3-2.2a4.3 4.3 0 0 0-2.3-0.8c-1.5-0.1-2.4 0-2.4 0a2 2 0 0 1 0.6-0.2 10.3 10.3 0 0 1 1.8-0.1 4.6 4.6 0 0 1 2.6 0.8 30.2 30.2 0 0 1 2.4 2.2c1.7 1.6 3.1 3.2 4 4.3a11.2 11.2 0 0 1 1.5 1.9z" class="m"/>
    <path d="m230.9 147.1c0.3-0.1 0.9 0.8 1.8 1.7s1.8 1.5 1.7 1.8-1.3 0-2.4-1.1-1.3-2.3-1.1-2.4z" class="f"/>
    <path d="m304.7 227.3-8.9-45.7a3.4 3.4 0 0 0-6.7 1.3l0.4 2.1-18.4 4.5a12.3 12.3 0 0 0-8.6 7.7l-11.1 2.7a7.2 7.2 0 0 0-5.2 8.7l1 4-10.8 2.7a5.6 5.6 0 1 0 2.7 11l10.9-2.7 0.8 3.1a7.2 7.2 0 0 0 8.7 5.3l11.3-2.8v-0.1a12.3 12.3 0 0 0 10.9 2.6l16.3-4 0.2 1a3.4 3.4 0 0 0 6.7-1.3z" class="c"/>
    <g class="f">
      <path d="m304.7 227.3a2.5 2.5 0 0 1 0.1 0.8 3.4 3.4 0 0 1-0.8 2.1 3.5 3.5 0 0 1-3.4 1.2 3.5 3.5 0 0 1-2.6-2.4c-0.1-0.4-0.2-0.9-0.3-1.3l0.1 0.1-12 3-3.6 0.9a13.9 13.9 0 0 1-3.9 0.5 12.5 12.5 0 0 1-7.9-3l0.3-0.2v0.1l0.1 0.2h-0.2c-3.8 0.9-7.8 2-12.1 3a7.4 7.4 0 0 1-6.3-2.2 7.3 7.3 0 0 1-1.8-3c-0.3-1.1-0.6-2.3-0.9-3.4l0.3 0.2-9.2 2.3c-0.8 0.2-1.5 0.4-2.4 0.5a5.9 5.9 0 0 1-5.8-8.8 6.2 6.2 0 0 1 4.3-2.9l10.2-2.5-0.2 0.3c-0.2-0.8-0.4-1.7-0.6-2.6a16.7 16.7 0 0 1-0.5-2.7 7.4 7.4 0 0 1 1.7-5.3 7.3 7.3 0 0 1 2.2-1.8 9.8 9.8 0 0 1 2.6-0.9l10.3-2.5-0.2 0.2a12.6 12.6 0 0 1 5.2-6.3 12.8 12.8 0 0 1 3.7-1.5l3.8-0.9 14.4-3.5-0.2 0.3c-0.1-0.5-0.2-1.1-0.3-1.6a4.5 4.5 0 0 1-0.1-1.7 3.6 3.6 0 0 1 5.2-2.7 3.6 3.6 0 0 1 2 2.5l2.2 11.3c1.4 7.1 2.6 13.3 3.5 18.4s1.7 9.1 2.3 11.9c0.3 1.4 0.4 2.4 0.6 3.1 0.1 0.4 0.1 0.6 0.1 0.8a1.4 1.4 0 0 1 0 0.3 1.2 1.2 0 0 1-0.1-0.3c0-0.2-0.1-0.5-0.2-0.8l-0.6-3.1c-0.5-2.8-1.3-6.8-2.4-11.9s-2.2-11.3-3.6-18.4q-1-5.3-2.2-11.3a3.2 3.2 0 0 0-1.8-2.2 3.2 3.2 0 0 0-4.5 2.4 3.9 3.9 0 0 0 0.1 1.6c0.1 0.5 0.2 1.1 0.3 1.6v0.2l-0.2 0.1-14.4 3.6c-2.5 0.7-5.2 1-7.4 2.4a12.2 12.2 0 0 0-5 6.1l0 0.1h-0.1l-10.3 2.5a9.2 9.2 0 0 0-2.5 0.9 7 7 0 0 0-2 1.7 6.9 6.9 0 0 0-1.6 4.9 15.6 15.6 0 0 0 0.5 2.7c0.2 0.9 0.4 1.7 0.6 2.6l0.1 0.2-0.2 0.1-10.2 2.5a5.6 5.6 0 0 0-4 2.7 5.4 5.4 0 0 0 5.3 8c0.8-0.1 1.6-0.3 2.3-0.5l9.2-2.2 0.2 0 0.1 0.2c0.3 1.2 0.6 2.3 0.9 3.4a6.8 6.8 0 0 0 1.7 2.9 7 7 0 0 0 5.9 2.1c4.2-0.9 8.3-2 12.1-2.9l-0.1 0.2v-0.1l-0.1-0.6 0.4 0.4a12.1 12.1 0 0 0 7.7 2.9 13.5 13.5 0 0 0 3.8-0.5l3.6-0.9 12-2.9h0.1v0.1c0.1 0.5 0.2 0.9 0.3 1.3a3.3 3.3 0 0 0 0.6 1.1 3.5 3.5 0 0 0 1.9 1.2 3.4 3.4 0 0 0 4.1-3.2 7.5 7.5 0 0 0 0-0.7z"/>
      <path d="m298.2 227.5c-0.1 0-2.3-9.5-4.8-21.2s-4.4-21.3-4.3-21.3 2.3 9.5 4.8 21.2 4.4 21.3 4.3 21.3z"/>
      <path d="m270.6 229c-0.1 0-2-7.1-4.3-15.9s-3.9-16-3.8-16 2 7.1 4.3 15.9 3.9 16 3.8 16z"/>
      <path d="m249.8 223.5a24.8 24.8 0 0 1-1.6-5.4 46.1 46.1 0 0 1-1.1-5.5 25.1 25.1 0 0 1 1.6 5.4 47.1 47.1 0 0 1 1.1 5.5z"/>
    </g>
    <g class="e">
      <path d="m259.7 199.8c0 0.1-1.1 0.2-2.8 0.6-0.9 0.2-1.9 0.4-3 0.7a15.1 15.1 0 0 0-3.5 1.4 4.8 4.8 0 0 0-2.4 2.5 7.4 7.4 0 0 0-0.1 3c0.2 1.7 0.5 2.8 0.4 2.8a9.2 9.2 0 0 1-0.8-2.8 7.4 7.4 0 0 1 0-3.2 3.6 3.6 0 0 1 1-1.6 7.8 7.8 0 0 1 1.6-1.2 14.1 14.1 0 0 1 3.6-1.4c1.1-0.3 2.2-0.5 3-0.6a11 11 0 0 1 2.9-0.2z"/>
      <path d="m286 187.7a3.2 3.2 0 0 1-0.9 0.3c-0.6 0.2-1.5 0.4-2.6 0.6l-8.7 1.8a18.3 18.3 0 0 0-4.5 1.6 9.4 9.4 0 0 0-3 2.5 8.2 8.2 0 0 0-1.5 3.3 2.3 2.3 0 0 1 0.1-1 6.9 6.9 0 0 1 1.2-2.5 9.4 9.4 0 0 1 3.1-2.6 17.2 17.2 0 0 1 4.6-1.7c3.4-0.7 6.5-1.3 8.7-1.7 1.1-0.2 2-0.3 2.7-0.4a4.4 4.4 0 0 1 1-0.1z"/>
      <path d="m245.3 215.1a4.8 4.8 0 0 1-1.9 0.8c-1.2 0.3-3 0.5-4.9 0.9a9.8 9.8 0 0 0-2.5 0.9 6.3 6.3 0 0 0-1.7 1.3 9.2 9.2 0 0 0-1.1 1.7 3.1 3.1 0 0 1 0.8-1.9 6 6 0 0 1 1.8-1.5 9.1 9.1 0 0 1 2.6-1c1.9-0.4 3.7-0.5 4.9-0.7s2-0.5 2-0.4z"/>
      <path d="m293.5 179.9c0 0.1-0.4 0.1-0.9 0.2a3.6 3.6 0 0 0-1.7 1.1 3.5 3.5 0 0 0-0.8 1.9c-0.1 0.5 0 0.9-0.1 0.9s-0.2-0.3-0.3-0.9a3.2 3.2 0 0 1 0.8-2.2 3.3 3.3 0 0 1 2.1-1.1c0.6-0.1 1 0.1 1 0.1z"/>
    </g>
    <g class="f">
      <path d="m439.2 173.1a0.7 0.7 0 0 1-0.2 0.1l-0.6 0.3-2.2 1.2-8.2 4.2-27.5 13.9-0.2 0.1-0.1-0.2c-0.8-1.1-1.6-2.2-2.4-3.4l-3.4-4.8 0.3 0.1-25.6 14.8-7.6 4.4-2.1 1.2c-0.2 0.1-0.4 0.2-0.5 0.3s-0.2 0.1-0.2 0.1 0 0 0.2-0.1l0.5-0.3 2-1.2 7.6-4.5 25.6-14.9 0.2-0.1 0.1 0.2c1.1 1.5 2.3 3.2 3.4 4.8 0.8 1.2 1.6 2.3 2.4 3.4l-0.3-0.1 27.6-13.7 8.3-4 2.3-1.1 0.6-0.3z"/>
      <path d="m431.9 209.3a2.8 2.8 0 0 1-0.5 0.2l-1.6 0.4-5.9 1.2-19.6 3.8-0.2 0.1v-0.2l-0.4-2.4c-0.1-0.5-0.2-1.1-0.3-1.6l0.3 0.2c-7.9 1.4-15 3-20 4.4-2.5 0.7-4.5 1.2-6 1.6l-1.6 0.5a2.7 2.7 0 0 1-0.6 0.1 3 3 0 0 1 0.5-0.2l1.6-0.5c1.4-0.4 3.4-1.1 5.9-1.8a202.6 202.6 0 0 1 20.1-4.5h0.2v0.2c0.1 0.5 0.2 1.1 0.3 1.6 0.2 0.8 0.3 1.7 0.4 2.4l-0.3-0.2 19.6-3.6 5.9-1 1.6-0.3a2 2 0 0 1 0.6-0.2z"/>
      <path d="m364.9 174.6c0.1 0.1-2.4 5.6-5.7 12.3s-6 12.1-6.1 12.1 2.4-5.5 5.7-12.3 6-12.1 6.1-12.1z"/>
      <path d="m394.7 201.5c0 0.1-6.3 2.1-14.1 4.4s-14.2 4-14.3 3.9 6.3-2.1 14.1-4.4 14.2-4 14.3-3.9z"/>
      <path d="m345.8 157.3a5.3 5.3 0 0 1 0.4 1c0.3 0.7 0.6 1.7 1 2.9 0.9 2.6 2.1 6.1 3.5 10.3l0.1 0.3h-0.3l-7.8-0.2 0.3-0.3c0.2 1 0.4 2 0.6 3.1 1.3 7 2.4 13.4 3.3 18.1 0.4 2.3 0.7 4.1 0.9 5.5 0.1 0.6 0.2 1.1 0.2 1.5a1.9 1.9 0 0 1 0.1 0.5 2.1 2.1 0 0 1-0.1-0.5c-0.1-0.4-0.2-0.9-0.3-1.5l-1.1-5.5c-0.9-4.7-2.1-11.1-3.4-18.1-0.2-1.1-0.4-2.1-0.6-3.1l-0.1-0.3h0.3l7.8 0.2-0.2 0.3-3.3-10.4c-0.4-1.2-0.7-2.2-0.9-3a8.1 8.1 0 0 1-0.3-1z"/>
      <path d="m311.2 232.7c-0.1-0.1 5-2.6 11.3-5.6s11.5-5.3 11.5-5.1-5 2.6-11.3 5.6-11.5 5.3-11.5 5.1z"/>
      <path d="m334.8 239.9a50.2 50.2 0 0 1 4.3-5.6 53.1 53.1 0 0 1 4.7-5.3 48.6 48.6 0 0 1-4.3 5.6 51 51 0 0 1-4.7 5.3z"/>
      <path d="m347.5 274.3c-0.1 0 0.7-9.7 1.9-21.7s2.3-21.7 2.4-21.7-0.7 9.8-1.9 21.8-2.3 21.7-2.4 21.7z"/>
      <path d="m330.2 188.1a22.4 22.4 0 0 1 2.3 4.1 21.9 21.9 0 0 1 1.9 4.3 22.7 22.7 0 0 1-2.3-4.1 22.8 22.8 0 0 1-1.9-4.3z"/>
    </g>
  </g>
</svg>