<svg xmlns="http://www.w3.org/2000/svg" viewBox="0 0 461 423.4">
<style>
  .a{
    fill:#e0e0e0;
  }
  .b{
    fill:#f5f5f5;
  }
  .c{
    fill:#fff;
  }
  .d{
    fill:#263238;
  }
  .e{
    fill:#936754;
  }
  .f{
    fill:#7c5142;
  }
  .g{
    fill:#0057e6;
  }
  .h{
    fill:#fff;
    opacity:0.6;
  }
  .i{
    opacity:0.3;
  }
  .j{
    fill:#455a64;
  }
  .k{
    fill:#fafafa;
  }
  .l{
    fill:#eb996e;
  }
  .m{
    fill:#d1734a;
  }
  .n{
    fill:#ffbe9d;
  }
  .o{
    opacity:0.2;
  }
  .p{
    fill:#b78876;
  }
</style>
  <g transform="translate(-23.428 -45.85)">
    <rect x="349.4" y="56.9" width="70.3" height="101.9" class="a"/>
    <rect x="345.9" y="56.9" width="70.3" height="101.9" class="b"/>
    <rect x="354.7" y="67.9" width="52.8" height="79.8" class="c"/>
    <path d="m407.5 147.7v-0.4-1.1-4.4c0-3.8 0-9.4 0-16.4 0-14.1 0-34-0.1-57.5l0.2 0.2h-52.9l0.2-0.2v79.8l-0.1-0.1 38.5 0.1h14.4-14.3l-38.5 0.1h-0.2v-0.1-79.8-0.2h53.2v0.2c0 23.5-0.1 43.5-0.1 57.6 0 7 0 12.6 0 16.4v4.4 1.1c0 0.3-0.1 0.5-0.1 0.5z" class="a"/>
    <path d="m416.4 56.9a13.5 13.5 0 0 1-1.2 1.8c-0.8 1.1-2 2.6-3.3 4.2s-2.6 3-3.5 4a13.4 13.4 0 0 1-1.5 1.6 13.1 13.1 0 0 1 1.3-1.8l3.4-4.1 3.4-4.1a13 13 0 0 1 1.4-1.6z" class="a"/>
    <path d="m407.8 147.5a65.2 65.2 0 0 0 9.2 11.5" class="c"/>
    <path d="m417 159a10.4 10.4 0 0 1-1.6-1.5 49.1 49.1 0 0 1-3.5-3.9 50.3 50.3 0 0 1-3.1-4.3 9.7 9.7 0 0 1-1.1-1.9 15.3 15.3 0 0 1 1.3 1.7c0.8 1.1 1.9 2.6 3.1 4.2s2.5 3 3.4 4a14.9 14.9 0 0 1 1.4 1.6z" class="a"/>
    <g class="a">
      <path d="m355.1 147.3a71.3 71.3 0 0 1-4.5 5.8 71 71 0 0 1-4.7 5.6 67.5 67.5 0 0 1 4.5-5.8 68.8 68.8 0 0 1 4.8-5.6z"/>
      <path d="m345.9 56.9a61 61 0 0 1 4.5 5.3 64.9 64.9 0 0 1 4.2 5.6 65.2 65.2 0 0 1-4.5-5.3 67.5 67.5 0 0 1-4.2-5.6z"/>
      <rect x="373.3" y="84.1" width="17.7" height="50.2"/>
      <polygon points="144.4 112.1 140.9 46.3 239.5 45.9 239.5 112.1"/>
    </g>
    <rect transform="rotate(-90 188.49 79.12)" x="155.7" y="31.6" width="65.6" height="95.1" class="c"/>
    <path d="m236.5 112.4h-96v-66.5h96zm-95.1-0.9h94.2v-64.7h-94.2z" class="a"/>
    <rect x="151.2" y="54.5" width="74.5" height="49.3" class="c"/>
    <g class="a">
      <path d="m225.7 54.5h-20.9l-53.6 0.1 0.2-0.2v49.3l-0.2-0.2h74.5l-0.2 0.2c0-15 0.1-27.3 0.1-35.9v-9.9-2.6-0.9 0.9 2.6 9.9c0 8.6 0.1 20.9 0.1 36v0.4h-0.2l-74.5 0.1h0v-0.2-49.3-0.2h0.2l53.8 0.1 15.3 0.1h5.4z"/>
      <path d="m140.9 46.1a7.9 7.9 0 0 1 1.6 1.1c1 0.7 2.3 1.7 3.7 2.8s2.7 2.2 3.6 3a7.9 7.9 0 0 1 1.4 1.4c-0.1 0.1-2.4-1.8-5.2-4.1a52 52 0 0 1-5.1-4.2z"/>
      <path d="m236 46.3a46.5 46.5 0 0 1-5 4.3 44.4 44.4 0 0 1-5.3 3.9 47.4 47.4 0 0 1 5-4.3 46.3 46.3 0 0 1 5.3-3.9z"/>
    </g>
    <g class="a">
      <path d="m225.4 103.3a49.7 49.7 0 0 1 5.4 4.1 51.3 51.3 0 0 1 5.2 4.5 50.4 50.4 0 0 1-5.4-4.1 47.8 47.8 0 0 1-5.1-4.5z"/>
      <path d="m140.9 111.9a46.8 46.8 0 0 1 5-4.2 45.4 45.4 0 0 1 5.3-3.8 45.7 45.7 0 0 1-5 4.2 44 44 0 0 1-5.2 3.8z"/>
      <rect transform="rotate(-90 189.81 78.08)" x="181.6" y="54.6" width="16.5" height="46.9"/>
    </g>
    <path d="m62.5 432.5c0.9-3.7-1.5-7.4-4.2-10.1s-6-5.1-7.4-8.6c-2.3-5.7 0.7-13.2-3.2-18-2.3-2.8-6.4-3.7-8.5-6.7a15.5 15.5 0 0 1-1.9-5.4 54.7 54.7 0 0 0-13.8-25.4 47.5 47.5 0 0 0 5.5 24.5c1.6 3 3.6 5.9 4.1 9.3 0.9 5.5-2.1 11.1-0.8 16.5 1.6 6.1 8.5 10.2 8.9 16.5 0.3 5.3-4.3 10.1-3.9 15.4a14.4 14.4 0 0 0 2.4 6.3c4.2 6.8 10.3 11.5 19.5 11.3l11.3 0.3z" class="b"/>
    <g class="a">
      <path d="m72.7 458.8a9.1 9.1 0 0 0 3.1-0.1 18 18 0 0 0 3.7-0.9 15.6 15.6 0 0 0 4.5-2.5 6.4 6.4 0 0 0 1.9-2.5 11.6 11.6 0 0 0 0.5-3.4 32.9 32.9 0 0 1 0.2-3.6 10.3 10.3 0 0 1 1.4-3.6c1.3-2.3 3.5-4.6 4.2-7.7s0.2-6.5-0.4-9.9-1.1-7.1 0.2-10.6 3.7-6.7 4.9-10.7 0.6-8.3 0.8-12.6a16.7 16.7 0 0 1 1.4-6.3c0.9-2 2.2-3.9 3.1-6 2-4.3 2.3-9.1 2.8-13.8q0.4-3.6 0.8-7.2a34.6 34.6 0 0 1 1.2-7.2 63.3 63.3 0 0 1 2.7-7 21.6 21.6 0 0 0 1.3-3.6 34.3 34.3 0 0 0 0.3-3.9 45.4 45.4 0 0 0-0.3-7.8c-0.3-2.6-0.8-5.2-1.1-7.8v-0.4l-0.1-0.5-0.5 0.2a17.3 17.3 0 0 0-6 5.2 27.6 27.6 0 0 0-3.7 6.9c-1.9 4.9-2.5 9.9-3.4 14.8s-2.1 9.6-4.5 13.7c-1.2 2-2.7 3.9-4 5.8a15.8 15.8 0 0 0-2.8 6.4c-0.6 4.8 2 8.9 1.5 13.2a14.5 14.5 0 0 1-2 5.9c-1 1.8-2.2 3.5-3.3 5.2a33.2 33.2 0 0 0-3 5.2 16.5 16.5 0 0 0-1.3 5.7c-0.3 3.8 0.3 7.4 0 10.8a25 25 0 0 1-2.7 9.3c-1.4 2.8-2.9 5.3-4.2 7.8-0.6 1.2-1.2 2.4-1.7 3.6a18.1 18.1 0 0 0-1 3.6 22.4 22.4 0 0 0 0 6.4 16.2 16.2 0 0 0 3.3 8.2 8.9 8.9 0 0 0 0.9 1 4.6 4.6 0 0 0 0.8 0.6c0.4 0.3 0.6 0.5 0.6 0.5a14.4 14.4 0 0 1-2.2-2.1 16.3 16.3 0 0 1-3.1-8.1 22.7 22.7 0 0 1 0.1-6.3 17.2 17.2 0 0 1 1-3.5 36.8 36.8 0 0 1 1.7-3.5c1.3-2.4 2.8-4.9 4.2-7.7a25.1 25.1 0 0 0 2.8-9.5c0.3-3.5-0.3-7.1 0-10.8a16 16 0 0 1 1.3-5.5 32.2 32.2 0 0 1 3-5.1c1.1-1.7 2.3-3.4 3.4-5.2a15.3 15.3 0 0 0 2.1-6.1c0.5-4.5-2.1-8.7-1.5-13.1a15.4 15.4 0 0 1 2.6-6.2c1.3-1.9 2.8-3.8 4-5.8 2.5-4.2 3.8-9 4.7-13.9s1.6-9.9 3.4-14.6a26.8 26.8 0 0 1 3.6-6.7 16.6 16.6 0 0 1 5.8-4.9l-0.5-0.3v0.5c0.3 2.6 0.8 5.2 1.1 7.8a45 45 0 0 1 0.3 7.7 34.8 34.8 0 0 1-0.3 3.8 22.4 22.4 0 0 1-1.2 3.5 64.9 64.9 0 0 0-2.7 7.1 36.1 36.1 0 0 0-1.2 7.3c-0.2 2.4-0.5 4.8-0.8 7.2-0.5 4.7-0.8 9.5-2.7 13.6-0.9 2.1-2.2 3.9-3.1 6a17.6 17.6 0 0 0-1.5 6.5c-0.2 4.4 0.4 8.6-0.8 12.5s-3.6 7.1-4.8 10.7-0.7 7.5-0.2 10.9 1.1 6.7 0.4 9.7-2.8 5.2-4.1 7.6a10.4 10.4 0 0 0-1.4 3.8 31.7 31.7 0 0 0-0.2 3.7 11.6 11.6 0 0 1-0.5 3.3 6 6 0 0 1-1.7 2.4 15.6 15.6 0 0 1-4.4 2.5 18.9 18.9 0 0 1-3.6 1 14.4 14.4 0 0 1-2.3 0.2c-0.4 0-0.7 0-0.7 0z"/>
      <path d="m107.5 325.8a1.4 1.4 0 0 0-0.1 0.3q-0.1 0.4-0.2 1c-0.2 0.9-0.5 2.2-0.9 3.9s-1.4 3.6-2.3 5.9-1.8 5-2.6 8-1.6 6.4-2.4 9.9-1.6 7.4-3.5 11c-0.9 1.8-1.9 3.7-2.7 5.7a26.5 26.5 0 0 0-1.6 6.5 132.6 132.6 0 0 1-2.3 13.6c-2.2 9.3-4.3 18.1-6.2 26.1l-5.2 21.3c-1.4 6-2.6 10.9-3.4 14.4-0.4 1.7-0.7 3-0.9 3.9l-0.2 1a1.9 1.9 0 0 0 0 0.4s0.1-0.1 0.1-0.3 0.2-0.6 0.3-1c0.3-0.9 0.6-2.2 1-3.9 0.9-3.4 2.1-8.3 3.7-14.3s3.4-13.2 5.4-21.2 4.1-16.8 6.3-26.1a128.9 128.9 0 0 0 2.3-13.7 26.1 26.1 0 0 1 1.5-6.3c0.8-2 1.8-3.8 2.7-5.7 2-3.7 2.8-7.6 3.5-11.2s1.5-6.9 2.3-9.9 1.7-5.7 2.5-8 1.8-4.2 2.2-6 0.6-3 0.8-3.9c0.1-0.4 0.1-0.8 0.2-1a1.4 1.4 0 0 0 0-0.3z"/>
      <path d="m74.6 458.8c7.4-4.4 9.4-17.7 6.3-25.7s-8.5-15.2-9.4-23.8c-0.7-6.5 1.4-13.3-0.1-19.7-2.1-8.6-10.6-15.3-10.5-24.2 0-5 2.8-9.7 2.6-14.7-0.3-6.1-5-10.9-8-16.3-4.4-8.2-4.8-17.9-6.4-27.2s-5.1-19.1-13.3-23.6c-1.2 7.9-3.2 13.2-2.5 23.9 0.3 3.8 4.7 11.1 5.4 19.4 0.4 5 0.7 10 1 15s0.7 9.8 2.4 14.4c1.4 3.5 3.5 6.6 4.5 10.2 1.9 6.8-0.5 14.1 1 21 1.3 5.8 5.4 10.8 6.2 16.7 1.2 8.3-4.1 16.9-1.3 24.8 1.4 3.9 4.6 7.1 5.6 11.1 0.7 3.1 0 6.5 0.6 9.6 1.1 5.1 10.8 9 16 8.6"/>
    </g>
    <path d="m37.8 291.6a2.1 2.1 0 0 0 0 0.4c0 0.3 0.1 0.8 0.2 1.3 0.2 1.1 0.4 2.8 0.8 4.9s1.6 4.6 2.5 7.5 1.9 6.3 2.8 10.1 1.6 8 2.4 12.5 1.6 9.4 3.9 14.1c1 2.4 2.2 4.7 3.1 7.2a32.7 32.7 0 0 1 1.6 8 160.4 160.4 0 0 0 2.3 17.1c2.3 11.6 4.5 22.7 6.6 32.7s4 19 5.6 26.6 2.9 13.7 3.9 18c0.5 2.1 0.8 3.7 1.1 4.9 0.1 0.5 0.2 0.9 0.3 1.3a2.2 2.2 0 0 0 0.1 0.4 1.3 1.3 0 0 0 0-0.4c-0.1-0.3-0.1-0.7-0.2-1.3-0.2-1.2-0.5-2.8-1-4.9-0.9-4.3-2.1-10.4-3.6-18s-3.4-16.6-5.5-26.7-4.2-21.1-6.5-32.7a161.6 161.6 0 0 1-2.3-17.1 32.7 32.7 0 0 0-1.6-8.1c-0.9-2.6-2.1-4.9-3.1-7.2-2.2-4.6-3.1-9.4-3.9-13.9s-1.5-8.7-2.4-12.4a104.1 104.1 0 0 0-2.9-10.1c-1-2.9-2.1-5.3-2.6-7.4s-0.7-3.8-0.9-4.9l-0.2-1.3a2.4 2.4 0 0 0-0.1-0.4z" fill="#ebebeb"/>
    <path d="m419.8 446c-18.3-10.9-23.9-33.1-24.7-53.4-0.1-3.4-0.8-6.9 0.6-10s5-5.4 8.1-4.2c2.6 1 3.9 3.8 5.5 6.2a19.9 19.9 0 0 0 8.5 7c2.2 1 5 1.5 7 0.1 2.8-1.8 2.9-5.9 2.6-9.2q-0.7-9.4-1.5-18.8c-0.3-3.4-0.5-6.8 0.3-10.1s2.9-6.4 6-7.5 7.2 0.4 8.2 3.7a30.5 30.5 0 0 1 0.4 4.2c0.2 1.4 1 2.9 2.3 3.2s2.7-0.8 3.6-1.8c3.2-3.6 5.3-8.2 7.1-12.7s3.7-9.1 6.6-13.1 7-7.2 11.8-7.8 10.2 2 11.7 6.6-0.8 9.7-3.6 13.7a75.3 75.3 0 0 1-14.5 16.1 6.2 6.2 0 0 0-2.4 3c-0.6 2.3 1.7 4.4 4 4.9 2.6 0.7 5.3 0.2 7.9 0.3s5.6 1.1 6.7 3.5c1.6 3.3-1 7.2-3.6 9.7a64.5 64.5 0 0 1-18.2 12.4c-2.4 1.1-5 2.1-6.8 4s-2.8 5-1.5 7.3 4.5 2.8 7.1 2.1 4.8-2.2 7.2-3.4c4.5-2.1 10.5-2.2 13.7 1.6 2.1 2.5 2.6 6.1 1.8 9.3a24.6 24.6 0 0 1-4.5 8.7 64.8 64.8 0 0 1-26.2 21.5c-10.4 4.5-20.3 6.3-31.3 3.1" class="b"/>
    <g class="a">
      <path d="m423.1 447c0.2-8.1-1.3-3.6 1-14a302.6 302.6 0 0 1 9.6-33.3c1-2.9 2-5.8 3-8.6s1.9-5.6 3.1-8.3a151.1 151.1 0 0 1 7.3-15c2.6-4.7 5.2-9 7.6-13s4.8-7.7 7.1-11a118.6 118.6 0 0 1 12-14.7c1.6-1.6 2.8-2.8 3.6-3.7l1-0.9a3.6 3.6 0 0 1 0.4-0.3 3.1 3.1 0 0 1-0.3 0.4l-0.9 1c-0.8 0.9-2 2.1-3.6 3.7a126.2 126.2 0 0 0-11.8 14.8c-2.3 3.3-4.6 7-7.1 11.1s-5 8.4-7.5 13.1a152.4 152.4 0 0 0-7.2 15c-1.1 2.7-2.1 5.4-3 8.3s-2 5.7-2.9 8.6a309 309 0 0 0-9.6 33.3c-2.3 10.4-0.9 5.9-1.1 13.9"/>
      <path d="m439.9 382.6a7 7 0 0 1-0.4-1.4c-0.2-0.9-0.6-2.2-0.9-3.9-0.7-3.3-1.6-7.9-2.5-13s-1.8-9.7-2.6-13c-0.4-1.6-0.7-3-0.9-3.9a6.9 6.9 0 0 1-0.3-1.4 6.8 6.8 0 0 1 0.5 1.4c0.3 0.9 0.7 2.2 1.1 3.9 0.9 3.3 1.9 7.9 2.8 13s1.7 9.6 2.3 13c0.3 1.6 0.5 2.9 0.7 4a6.3 6.3 0 0 1 0.2 1.5z"/>
      <path d="m482.6 371.4a9.2 9.2 0 0 1-1.7 0.3c-1.1 0.2-2.7 0.4-4.7 0.8-3.9 0.7-9.3 1.9-15.2 3.5s-11.2 3.2-14.9 4.6c-1.9 0.6-3.4 1.2-4.5 1.6a9 9 0 0 1-1.7 0.5 9.9 9.9 0 0 1 1.6-0.8c1-0.4 2.5-1.1 4.4-1.8 3.8-1.4 9-3.1 14.9-4.7a151.7 151.7 0 0 1 15.3-3.3c2-0.3 3.6-0.5 4.7-0.6a8.5 8.5 0 0 1 1.7-0.1z"/>
      <path d="m424.6 432.1a2.2 2.2 0 0 1-0.3-0.5c-0.2-0.4-0.5-0.9-0.9-1.5-0.7-1.3-1.7-3.2-3-5.6-2.4-4.8-5.6-11.5-9-19s-6.5-14.2-8.9-19.1c-1.1-2.4-2.1-4.3-2.8-5.7l-0.7-1.6a1.9 1.9 0 0 1-0.2-0.6 2.6 2.6 0 0 1 0.3 0.5c0.2 0.4 0.5 0.9 0.9 1.5 0.7 1.3 1.8 3.3 3 5.7 2.5 4.8 5.6 11.5 9 19s6.5 14.3 8.9 19.1c1.2 2.4 2.1 4.3 2.8 5.7 0.3 0.6 0.6 1.1 0.8 1.6a2.3 2.3 0 0 1 0.2 0.6z"/>
      <path d="m480.7 409.3a2 2 0 0 1-0.5 0.3l-1.6 0.7c-1.5 0.6-3.5 1.5-6 2.5-5.1 2.1-12 5-19.7 8.3s-14.7 6.1-19.8 8.1c-2.6 1-4.6 1.8-6.1 2.3l-1.7 0.6a2.1 2.1 0 0 1-0.6 0.2 2.9 2.9 0 0 1 0.6-0.3l1.6-0.7 6-2.4c5.1-2.1 12-5 19.8-8.3s14.7-6.1 19.8-8.1c2.6-1 4.6-1.8 6.1-2.3l1.7-0.6a2.5 2.5 0 0 1 0.6-0.2z"/>
    </g>
    <path d="m387.3 99.1c-7.2-3.1-15.5 1.3-18.7 6.2s-4.6 10.7-5.5 16.5a135.9 135.9 0 0 0-0.9 36c0.4 3.5 1.1 7.4 3.8 9.7s6.3 2.4 9.6 1.8c3-0.5 6.1-1.7 8-4 3-3.6 2.6-8.8 2.3-13.5a139.9 139.9 0 0 1 5-47.8" class="d"/>
    <path d="m371.7 105.6c3.3-6.5 13.3-10.1 21.4-7.9 6.8 1.8 14.1 8.8 14.6 16 0.7 10.4-4.9 21.1-1.6 31 3.9 11.5 18.2 17.1 21.9 28.7a18.3 18.3 0 0 1-1.6 14.5c-1.3 2.2-3.3 4.3-5.8 4.7-3.2 0.5-6.1-1.6-8.6-3.6-6.8-5.4-13.6-11-18.4-18.3-5.5-8.6-7.7-19-7.8-29.3s1.7-20.4 3.6-30.4" class="d"/>
    <path d="m400.2 118.3a15.4 15.4 0 0 0-13.8-17.3c-8.2-0.8-15.5 5.3-16.7 13.5-1.1 7.2-2 14.4-2 17 0.1 7.9 4.7 11 6.6 11.9a10.6 10.6 0 0 0 2.1 0.5 0.1 0.1 0 0 1 0 0.1l-1.8 9.1c-0.8 6 2.5 11.3 8.5 12.1s10.6-3.7 11.5-9.6z" class="e"/>
    <g class="d">
      <path d="m371.5 118.4a1.3 1.3 0 0 0 1 1.4 1.2 1.2 0 0 0 1.5-0.9 1.3 1.3 0 0 0-1-1.4 1.2 1.2 0 0 0-1.4 0.9z"/>
      <path d="m371.5 116.7c0.1 0.2 1.2-0.4 2.5-0.2s2.2 1 2.4 0.9 0-0.4-0.4-0.7a3.4 3.4 0 0 0-1.9-0.9 3.3 3.3 0 0 0-2 0.3c-0.5 0.3-0.7 0.5-0.6 0.6z"/>
      <path d="m384.1 120.5a1.3 1.3 0 0 0 1 1.4 1.2 1.2 0 0 0 1.5-0.9 1.3 1.3 0 0 0-1-1.4 1.2 1.2 0 0 0-1.4 0.9z"/>
      <path d="m384.6 118.8c0.1 0.2 1.2-0.4 2.5-0.2s2.2 1 2.4 0.9 0-0.4-0.4-0.8a3.5 3.5 0 0 0-1.9-0.9 3.3 3.3 0 0 0-2 0.3c-0.5 0.3-0.7 0.5-0.6 0.6z"/>
      <path d="m378.3 128a9.2 9.2 0 0 0-2.1-0.7c-0.3-0.1-0.6-0.2-0.7-0.4a1.9 1.9 0 0 1 0.4-1c0.4-0.8 0.9-1.6 1.4-2.4a45.4 45.4 0 0 0 3.3-6.5 45.3 45.3 0 0 0-3.8 6.2c-0.5 0.9-0.9 1.7-1.3 2.5a2 2 0 0 0-0.4 1.4 0.9 0.9 0 0 0 0.5 0.6 2.1 2.1 0 0 0 0.6 0.2 8.5 8.5 0 0 0 2.2 0.3z"/>
    </g>
    <path d="m376.4 144s5.1 1.2 12.1-1.8c0 0-3 6.5-12.6 4.2z" class="f"/>
    <path d="m378.4 131.4a2.5 2.5 0 0 1 2.3-0.6 2.3 2.3 0 0 1 1.4 1 1.4 1.4 0 0 1-0.1 1.6 1.6 1.6 0 0 1-1.8 0.2 5.3 5.3 0 0 1-1.6-1.3 1.6 1.6 0 0 1-0.3-0.4 0.5 0.5 0 0 1 0.1-0.5" class="f"/>
    <g class="d">
      <path d="m382.1 129.5c-0.2 0-0.4 1.4-1.8 2.3s-2.9 0.5-2.9 0.7 0.3 0.3 1 0.5a3.7 3.7 0 0 0 2.5-0.5 3.2 3.2 0 0 0 1.4-1.9c0.1-0.6 0-1-0.1-1z"/>
      <path d="m384.3 116.4c0.1 0.4 1.4 0.4 3 0.8s2.8 1 3 0.7c0.1-0.1 0-0.5-0.5-0.9a5.1 5.1 0 0 0-2.1-1.1 5.2 5.2 0 0 0-2.4-0.1c-0.6 0.2-0.9 0.4-0.9 0.6z"/>
      <path d="m372.4 114c0.2 0.3 1.2 0.2 2.3 0.3s2 0.5 2.3 0.2 0-0.5-0.4-0.8a3.1 3.1 0 0 0-1.8-0.8 3.1 3.1 0 0 0-1.9 0.4c-0.4 0.2-0.6 0.5-0.5 0.7z"/>
      <path d="m375.8 102a16.3 16.3 0 0 0 11.3 13l-0.4-2.2a23 23 0 0 0 12.5 11.1 15.8 15.8 0 0 0-23.2-20.6"/>
      <path d="m427 179.6a12.9 12.9 0 0 0 1.5-2.4 12.3 12.3 0 0 0 0.8-7.6 15.8 15.8 0 0 0-1.9-5 26.7 26.7 0 0 0-3.8-4.9c-3-3.2-7-6-10.6-9.6a20.5 20.5 0 0 1-4.4-6 23.2 23.2 0 0 1-1.9-6.7 58.4 58.4 0 0 1 0-11.7c0.3-3.3 0.5-6 0.7-7.8 0.1-0.9 0.2-1.6 0.2-2.1a4.6 4.6 0 0 1 0.1-0.7 3.6 3.6 0 0 1 0 0.8c0 0.5-0.1 1.3-0.1 2.1-0.1 1.9-0.3 4.6-0.5 7.8a60.8 60.8 0 0 0 0.2 11.6 23.1 23.1 0 0 0 1.9 6.5 20.3 20.3 0 0 0 4.3 5.9c3.6 3.6 7.5 6.4 10.6 9.6a26.5 26.5 0 0 1 3.8 5 16 16 0 0 1 1.9 5.1 12.3 12.3 0 0 1-1 7.8 9.3 9.3 0 0 1-1.2 1.8 5 5 0 0 1-0.5 0.5z"/>
    </g>
    <path d="m434.7 425.1 4.7 23.2 9.1 17.3a2.4 2.4 0 0 1-1.2 3.4 2.5 2.5 0 0 1-2.2-0.1c-4.3-2.6-20.1-12.1-20.3-13.9-0.3-2-6.6-24.2-6.6-24.2z" class="g"/>
    <g class="h">
      <path d="m447.3 469-22.9-15.6 0.2 1a3.7 3.7 0 0 0 1.4 2.1c1.9 1.4 7.1 5.1 19 12.4a2.4 2.4 0 0 0 2.3 0.1z"/>
      <path d="m427.5 444.9a1.5 1.5 0 0 1 0.8 1.8 1.4 1.4 0 0 1-1.8 0.8 1.6 1.6 0 0 1-0.8-1.9 1.5 1.5 0 0 1 1.9-0.7"/>
    </g>
    <g class="d">
      <path d="m439.7 460.1a7.4 7.4 0 0 1 1.6-2.3 7.5 7.5 0 0 1 2.5-1.1c0-0.1-0.3-0.2-0.9-0.1a3.8 3.8 0 0 0-3.2 2.6c-0.2 0.5-0.1 0.9-0.1 0.9z"/>
      <path d="m442.1 462.8c0.1 0.1 0.7-0.8 1.8-1.5a22.2 22.2 0 0 1 2.2-0.8 2.7 2.7 0 0 0-2.4 0.4c-1.3 0.7-1.7 1.9-1.6 1.9z"/>
      <path d="m435.7 456.8a22.7 22.7 0 0 1 2.7-2.4 25.8 25.8 0 0 1 3.3-1.6 6.7 6.7 0 0 0-5.9 4z"/>
      <path d="m433.7 449.9c0.1 0.1 1.3-0.7 2.9-1.1s3.1-0.3 3.1-0.5a6 6 0 0 0-6 1.6z"/>
      <path d="m432.1 443.1a12.5 12.5 0 0 1 3-1.3 11.5 11.5 0 0 1 3.2 0.1c0-0.1-0.3-0.3-0.9-0.5a5.3 5.3 0 0 0-4.7 0.9c-0.5 0.4-0.7 0.7-0.7 0.8z"/>
      <path d="m434.8 440.5a2.1 2.1 0 0 0-0.2-0.9 6.2 6.2 0 0 0-1.2-2.1 2.7 2.7 0 0 0-1.4-1 1 1 0 0 0-1 0.5 1.5 1.5 0 0 0-0.1 1.1 3.4 3.4 0 0 0 3.6 2.4 4 4 0 0 0 3.4-2.9 1.4 1.4 0 0 0-0.2-1.1 1 1 0 0 0-1.1-0.3 3.3 3.3 0 0 0-1.3 1.1 7 7 0 0 0-1.2 2.2 2.2 2.2 0 0 0-0.2 0.9 11.5 11.5 0 0 1 1.6-2.8 3.2 3.2 0 0 1 1.2-1 0.5 0.5 0 0 1 0.6 0.2 0.9 0.9 0 0 1 0.1 0.8 3.6 3.6 0 0 1-2.9 2.5 3 3 0 0 1-3.1-2 1.2 1.2 0 0 1 0.1-0.8 0.5 0.5 0 0 1 0.6-0.3 2.5 2.5 0 0 1 1.3 0.9 8.9 8.9 0 0 1 1.7 2.7z"/>
    </g>
    <path d="m371.9 427.5 1.1 18.9s-18.8 7.5-18.9 11l36.7-0.8-0.5-29.5z" class="g"/>
    <g class="h">
      <path d="m384.3 444.6a1.5 1.5 0 0 1 1.1 1.7 1.4 1.4 0 0 1-1.7 1.1 1.6 1.6 0 0 1-1.1-1.8 1.5 1.5 0 0 1 1.9-0.9"/>
      <path d="m390.8 456.6-0.2-3-35.1 1.9s-1.6 0.8-1.4 1.9z"/>
    </g>
    <g class="d">
      <path d="m372.4 446.2c0 0.2 0.9 0.2 1.8 0.8s1.4 1.3 1.5 1.2-0.1-1.1-1.2-1.8-2.2-0.4-2.1-0.3z"/>
      <path d="m368.6 447.9c0 0.2 0.8 0.5 1.4 1.2s0.8 1.5 1 1.5 0.3-1-0.5-1.9-1.8-1-1.8-0.8z"/>
      <path d="m366.5 452.6c0.2 0 0.4-0.9-0.1-1.8s-1.3-1.3-1.4-1.2 0.5 0.7 0.8 1.5 0.5 1.5 0.7 1.6z"/>
      <path d="m372.7 441.9c0.1 0.2 0.9-0.1 1.9-0.1s1.8 0.4 1.9 0.2-0.7-0.8-1.9-0.8-2 0.5-1.9 0.7z"/>
    </g>
    <g class="i">
      <polygon points="390.4 434.1 390.3 431 372.2 431.3 372.4 434.6"/>
    </g>
    <g class="d">
      <path d="m372.5 438.1a3.5 3.5 0 0 0 1.8 0 8.1 8.1 0 0 0 1.9-0.6 8.4 8.4 0 0 0 1-0.6 2.5 2.5 0 0 0 0.5-0.4 0.8 0.8 0 0 0 0.1-1 1 1 0 0 0-0.8-0.4 2.7 2.7 0 0 0-0.7 0.1 6.6 6.6 0 0 0-1.1 0.4 6.5 6.5 0 0 0-1.7 1.2c-0.8 0.8-1.1 1.5-1 1.5s0.5-0.5 1.3-1.2a7.4 7.4 0 0 1 1.6-1 6.4 6.4 0 0 1 1-0.3c0.4-0.1 0.7-0.1 0.8 0.1s0.1 0.1 0 0.2a2.1 2.1 0 0 1-0.4 0.3 9.8 9.8 0 0 1-1 0.6 10.4 10.4 0 0 1-1.8 0.7 11 11 0 0 0-1.6 0.6z"/>
      <path d="m372.8 438.4a3 3 0 0 0 0.4-1.8 5.8 5.8 0 0 0-0.3-2 6 6 0 0 0-0.5-1.1 1.6 1.6 0 0 0-1.2-0.9 0.9 0.9 0 0 0-0.7 0.5 2.5 2.5 0 0 0-0.2 0.7 4.2 4.2 0 0 0 0.9 3.1c0.7 0.9 1.5 1.1 1.5 1.1s-0.6-0.4-1.1-1.3a4.1 4.1 0 0 1-0.6-1.7 3.8 3.8 0 0 1 0-1.1c0.1-0.4 0.2-0.7 0.3-0.7s0.5 0.3 0.7 0.6a7.5 7.5 0 0 1 0.5 1 6.5 6.5 0 0 1 0.4 1.8c0.1 1.1-0.1 1.7 0 1.8z"/>
      <path d="m400.4 225.6s10.8 23.4 12.4 30.2 31.7 187.3 31.7 187.3l-27.7 1.7-37.6-176.5 15.1 175.3-27.2 2.3s-20.6-185.2-19.7-190.4c1.3-7.9 8-30.6 8-30.6z"/>
    </g>
    <path d="m379.1 267.1s0 0.2-0.2 0.3a1 1 0 0 1-1.1-0.1 2.4 2.4 0 0 1-0.6-1.6l-0.4-2.1c-0.5-3.2-1.2-7.6-1.9-12.5s-1.4-9.3-1.8-12.5c-0.2-1.5-0.3-2.8-0.5-3.8a7.3 7.3 0 0 1-0.1-1.4 7 7 0 0 1 0.3 1.4c0.2 1 0.4 2.3 0.6 3.8 0.5 3.2 1.2 7.6 2 12.5s1.4 9.3 1.8 12.5c0.1 0.8 0.2 1.5 0.3 2.2a2.3 2.3 0 0 0 0.5 1.5 0.9 0.9 0 0 0 0.9 0.2c0.2-0.1 0.2-0.2 0.2-0.2z" class="j"/>
    <path d="m376.3 237s0-0.2 0.3-0.3a1.5 1.5 0 0 1 1.1-0.2 1.5 1.5 0 0 1 1.2 1.2 1.7 1.7 0 0 1-0.9 1.8 1.8 1.8 0 0 1-2-0.3 1.7 1.7 0 0 1-0.5-1.6c0.2-1 0.9-1.2 0.9-1.1a2.8 2.8 0 0 0-0.5 1.2 1.3 1.3 0 0 0 0.4 1.2 1.4 1.4 0 0 0 1.5 0.2 1.3 1.3 0 0 0 0.7-1.3 1.1 1.1 0 0 0-0.8-0.9 1.9 1.9 0 0 0-1.3 0.1z" class="j"/>
    <path d="m328.7 122.2-16.9-26.2-5.2-8.6s-1.5-8.6-2.3-11.1c-1.5-5-2-4.9-2.5-4.6-1.5 0.7 2.3 8.9 0.5 7.6s-3.5-10.5-5-9.7c-2 1.1 2.2 9.6 2.5 10.3s-0.8 1.2-1 0.5c-0.3-1-4.1-11.2-6.1-10.2-1.1 0.6 0.2 2.4 0.2 2.4s4.2 9.3 3.3 9.8-3.6-4.9-4.4-6.8-2-2.2-2.5-1.2c-0.4 0.7 1.9 6.5 2.7 8.4s3.1 6.9 0 5.3-6.1-1.5-7-1a1.1 1.1 0 0 0 0.8 1.9 12.9 12.9 0 0 1 3.4 0.9 8.3 8.3 0 0 1 2.4 1.5c0.9 0.7 1.5 1.4 2.1 1.9l4.2 8.8 18.6 36.5 38.9 32.2 9.8-17.7z" class="e"/>
    <path d="m429.2 268.4c0.2 0.8 0.5 1.7 0.8 2.8a8.2 8.2 0 0 1 0.2 2.8 12.9 12.9 0 0 1-0.7 3.5c-0.5 1 0.5 2 1.4 1.6s2.3-3.1 2.3-6.6 3.5 0.8 4.7 2.4 5.4 6.2 6.2 6.2c1.2 0 1.4-1.3 0.1-2.8s-4.9-6.4-4-7 7.2 7.4 7.2 7.4 1.1 1.9 2.1 1.3c1.8-1.3-5.5-9.3-6.3-10.1-0.5-0.5 0.4-1.2 0.9-0.6s6.2 8.2 8 6.9c1.4-1-6-6.7-6.3-8.9s5.2 4.9 6.6 3.9c0.5-0.4 0.8-0.7-2.9-4.3-1.8-1.8-8.8-7.1-8.8-7.1l-14.8-48.6-18.4 0.3z" class="e"/>
    <g class="g">
      <path d="m372.4 153.2a90.3 90.3 0 0 1-8.8-3.9l-29.1-22.1-13 17.4s33.2 30 33.8 29.8 17.1-21.2 17.1-21.2z"/>
      <path d="m374.6 153.1-2.2 0.1a15.2 15.2 0 0 0-13.9 10.4c-2.2 6.7-2.1 8.9-3.6 13.9-3.7 11.9 2.9 26.4 2.9 26.4l-2.3 21 44.9 0.8 2.3-25.3 8.4-37.8s-1.9-8.1-9-8.8c-3.7-0.4-27.4-0.6-27.4-0.6z"/>
      <path d="m403.4 154.3s10.6 0 13.9 12.2 9.7 44.5 9.7 44.5l-20.2 6.1-10.8-44.3a21.9 21.9 0 0 1-0.9-7.7c0.3-4.4 2-10.2 8.3-10.8z"/>
      <polygon points="381 150.3 381 153.2 382.9 150.3 397.1 146.9 397.1 155.3 380.5 157.1 371.5 153.7 375 146.9"/>
    </g>
    <g class="d">
      <path d="m360.4 164a10 10 0 0 1-0.7 1.4c-0.3 0.5-0.6 1-0.9 1.7s-0.7 1.4-1.1 2.3-0.8 1.8-1.1 2.8-0.7 2.2-1 3.3a42.1 42.1 0 0 0-1 15.8c0.2 1.2 0.3 2.4 0.6 3.4a30.2 30.2 0 0 0 0.7 2.9c0.2 0.9 0.5 1.7 0.8 2.4a16.6 16.6 0 0 0 0.7 1.8 10.6 10.6 0 0 1 0.6 1.5 10.9 10.9 0 0 1-0.7-1.4 16.6 16.6 0 0 1-0.7-1.7c-0.2-0.7-0.6-1.5-0.8-2.4a29.1 29.1 0 0 1-0.8-3c-0.3-1.1-0.4-2.2-0.6-3.5a43.7 43.7 0 0 1-0.3-8 44.3 44.3 0 0 1 1.3-7.9c0.4-1.2 0.7-2.3 1.1-3.3a28.5 28.5 0 0 1 1.2-2.8 24.7 24.7 0 0 1 1.1-2.2 16.5 16.5 0 0 1 1-1.6 8.8 8.8 0 0 1 0.9-1.3z"/>
      <path d="m379.9 149.8a8.6 8.6 0 0 1-0.5 2.1c-0.4 1.3-1 3-1.6 4.8-0.1 0.3-0.2 0.6-0.3 0.9l-0.1 0.3-0.3-0.2a20.2 20.2 0 0 1-3.6-2.7 5.5 5.5 0 0 1-1.2-1.4 50.3 50.3 0 0 0 5 3.7l-0.4 0.1 0.3-0.9c0.7-1.9 1.3-3.6 1.8-4.8a8.1 8.1 0 0 1 0.9-1.9z"/>
      <path d="m391.6 156a10.8 10.8 0 0 1-2.1 0.9c-1.3 0.5-3.2 1.2-5.3 1.9l-0.3 0.1v-0.6c-0.3-2.2-0.6-4.3-0.8-5.7a11.2 11.2 0 0 1-0.2-2.4 11.1 11.1 0 0 1 0.5 2.4c0.3 1.5 0.6 3.5 0.9 5.7v0.3l-0.3-0.2c2.1-0.7 4-1.3 5.4-1.7a9.8 9.8 0 0 1 2.2-0.6z"/>
      <path d="m399 216.6a7.2 7.2 0 0 1 1.3 7.9 18.2 18.2 0 0 0 0-4.1 19.3 19.3 0 0 0-1.3-3.9z"/>
    </g>
    <path d="m425.3 204a15 15 0 0 1-2.9 0.9c-1.8 0.5-4.3 1-7.1 1.6s-5.3 0.9-7.2 1.1a16.5 16.5 0 0 1-3 0.2 18.2 18.2 0 0 1 3-0.6c1.8-0.3 4.4-0.7 7.1-1.2s5.3-1 7.1-1.4a18.7 18.7 0 0 1 2.9-0.5z" class="k"/>
    <path d="m423 191.7a15.7 15.7 0 0 1-3 1.1c-1.9 0.6-4.5 1.3-7.3 2s-5.5 1.4-7.4 1.8a24.3 24.3 0 0 1-3.1 0.7 15.8 15.8 0 0 1 3-1.1c1.9-0.6 4.5-1.3 7.3-2s5.5-1.3 7.4-1.8a24.3 24.3 0 0 1 3.1-0.7z" class="k"/>
    <path d="m406.8 217.2a6.4 6.4 0 0 1-0.4-1.2c-0.2-0.9-0.5-1.9-0.8-3.2-0.7-2.7-1.5-6.5-2.5-10.7s-1.8-8-2.3-10.7c-0.3-1.3-0.5-2.4-0.6-3.3a6.3 6.3 0 0 1-0.2-1.2 4.7 4.7 0 0 1 0.4 1.2l0.8 3.2c0.7 2.7 1.6 6.5 2.5 10.7s1.8 8 2.3 10.7c0.3 1.3 0.5 2.4 0.7 3.3a4.7 4.7 0 0 1 0.2 1.2z" class="d"/>
    <g class="k">
      <path d="m421.9 182.3c0 0.1-15.1-0.1-33.6-0.6s-33.6-1-33.6-1.2 15.1 0.1 33.7 0.6 33.6 1 33.6 1.2z"/>
      <path d="m416.8 165.2a2.2 2.2 0 0 1-0.6 0.1l-1.7 0.1c-1.5 0.1-3.6 0.3-6.2 0.4-5.2 0.3-12.4 0.7-20.4 0.9s-15.2 0.3-20.4 0.2c-2.6 0-4.7 0-6.2-0.1l-1.7-0.1a3.9 3.9 0 0 1-0.6 0 2.1 2.1 0 0 1 0.6 0l1.7 0 6.2-0.1c5.2-0.1 12.4-0.2 20.4-0.4s15.2-0.5 20.4-0.7l6.2-0.2h1.7a2.6 2.6 0 0 1 0.6-0.1z"/>
      <path d="m344.8 165.9c-0.1-0.1 3.3-4.2 7.7-9.2s8-9 8.1-8.9-3.3 4.2-7.7 9.3-8 9-8.1 8.9z"/>
      <path d="m401.2 201c0 0.2-10.3-0.8-22.9-2s-22.9-2.4-22.9-2.5 10.3 0.8 22.9 2 22.9 2.5 22.9 2.6z"/>
      <path d="m401.7 214.9c0 0.2-10 0-22.3-0.2s-22.2-0.6-22.2-0.8 10 0 22.3 0.2 22.3 0.6 22.3 0.8z"/>
    </g>
    <path d="m371.5 224.6a3.8 3.8 0 0 1 0-0.7v-2.1c0-1.8 0.1-4.5 0.4-7.8 0.1-1.6 0.3-3.4 0.5-5.3s0.5-4 0.8-6.1c0.5-4.3 1-9.1 1.5-14a205 205 0 0 1 3.7-25.4c0.7-3.2 1.5-5.8 2-7.5 0.3-0.8 0.5-1.5 0.7-2a3.4 3.4 0 0 1 0.3-0.7 3.5 3.5 0 0 1-0.2 0.7c-0.2 0.5-0.3 1.2-0.6 2-0.5 1.8-1.2 4.3-1.9 7.5a230.4 230.4 0 0 0-3.5 25.4c-0.5 5-1 9.7-1.5 14-0.3 2.2-0.6 4.2-0.8 6.1s-0.4 3.7-0.5 5.3c-0.3 3.3-0.4 5.9-0.5 7.8l-0.1 2.1a3.9 3.9 0 0 1 0 0.8z" class="d"/>
    <rect x="387.7" y="180.5" width="10.9" height="2.8" class="k"/>
    <g class="i">
      <path d="m400.3 189.1a22.1 22.1 0 0 0 0.8 24.9q1-7 2-14"/>
    </g>
    <path d="m394 119.2c1.3 2.6 0.7 5.8-0.3 8.6s-2.1 5.6-1.9 8.5c0.2 2.7 1.7 5.2 1.9 7.9 0.5 4.6-2.5 8.7-3.7 13.1a18.1 18.1 0 0 0 3.9 16.5 2.2 2.2 0 0 0 1.5 0.9 1.6 1.6 0 0 0 1.4-1.4 7.2 7.2 0 0 0 0-2.1c-0.5-6.5 5.7-11.8 6.7-18.3 0.6-4.2-1.1-8.4-1.4-12.7-0.3-5.4 1.7-10.6 2.4-15.9a12.4 12.4 0 0 0-0.3-5.4 5.7 5.7 0 0 0-3.7-3.8 3.7 3.7 0 0 0-4.5 2.2" class="d"/>
    <path d="m272.9 159.3-21.2 13.4 15-41 4.1-8.1c0.5-0.7 1.2-1.5 2-2.3a9 9 0 0 1 2.5-1.9 13.4 13.4 0 0 1 3.6-1.4 1.2 1.2 0 0 0 0.6-2.2c-0.9-0.5-4.2-0.1-7.4 2s-1.4-3.6-0.7-5.7 2.3-8.6 1.8-9.3c-0.7-1-1.9-0.4-2.5 1.7s-2.8 8.3-3.9 7.9 2.3-11 2.3-11 1.1-2.1-0.1-2.6c-2.2-0.9-5 10.6-5.2 11.7-0.2 0.8-1.4 0.4-1.1-0.4s3.6-10.5 1.3-11.4c-1.7-0.7-2.4 9.5-4.2 11.1s1.3-7.7-0.4-8.3c-0.6-0.2-1.1-0.3-2.1 5.3-0.5 2.7-1 12.2-1 12.2l-4.9 9.7 0.1 0.1-20.2 42.6c-3.9 10.2 2.5 18.5 8.8 22.2a17.9 17.9 0 0 0 19-0.5l24.5-16.3z" class="l"/>
    <path d="m386.7 249.2c0.5 0.8 1.1 1.7 1.7 2.7a9.2 9.2 0 0 1 1.1 3 14.4 14.4 0 0 1 0.3 4 1.2 1.2 0 0 0 2 1.3c0.8-0.8 1.4-4.1 0.4-7.9s4-0.2 5.9 1.1 7.8 5 8.7 4.7c1.2-0.4 1.1-1.8-0.8-3s-7.3-5.4-6.6-6.3 10.1 5.7 10.1 5.7 1.8 1.8 2.7 0.7c1.6-1.9-8.9-8.3-9.9-8.9-0.7-0.4 0-1.5 0.8-1s9.2 6.9 10.8 4.9c1.3-1.5-8.6-5.3-9.6-7.6s7.2 3.7 8.3 2.2c0.4-0.5 0.7-1-4.5-3.8-2.5-1.3-11.7-4.9-11.7-4.9l-56.5-73-16.4 14.8z" class="l"/>
    <path d="m286.1 427.8 1.1 18.5s-18.5 7.3-18.6 10.8l36-0.2-0.5-29.5z" class="j"/>
    <g class="h">
      <path d="m298.3 444.5a1.5 1.5 0 0 1 1.1 1.7 1.4 1.4 0 0 1-1.6 1.1 1.5 1.5 0 0 1-1.1-1.8 1.5 1.5 0 0 1 1.8-0.9"/>
      <path d="m304.6 456.9v-3l-34.6 1.3s-1.6 0.7-1.4 1.9z"/>
    </g>
    <g class="d">
      <path d="m286.6 446.2c0 0.2 0.9 0.2 1.8 0.8s1.4 1.3 1.5 1.2-0.1-1.1-1.2-1.7-2.1-0.4-2.1-0.3z"/>
      <path d="m282.8 447.8c0 0.2 0.7 0.5 1.4 1.2s0.8 1.5 1 1.5 0.3-1-0.5-1.9-1.8-0.9-1.8-0.8z"/>
      <path d="m280.8 452.4c0.2 0 0.4-0.8-0.1-1.8s-1.3-1.3-1.4-1.2 0.5 0.7 0.8 1.4 0.5 1.5 0.6 1.5z"/>
      <path d="m286.8 441.9c0.1 0.2 0.9-0.1 1.9 0s1.8 0.3 1.9 0.2-0.7-0.8-1.8-0.8-2 0.5-1.9 0.7z"/>
      <path d="m286.7 438.2a3.3 3.3 0 0 0 1.8 0 7.7 7.7 0 0 0 1.9-0.6 8.7 8.7 0 0 0 1-0.6 2 2 0 0 0 0.5-0.4 0.8 0.8 0 0 0 0.1-0.9 1 1 0 0 0-0.8-0.4 2.6 2.6 0 0 0-0.7 0.1 6.9 6.9 0 0 0-1.1 0.4 6.5 6.5 0 0 0-1.6 1.1c-0.8 0.8-1.1 1.5-1 1.5s0.5-0.5 1.3-1.2a7.3 7.3 0 0 1 1.6-0.9 7.8 7.8 0 0 1 1-0.3c0.4-0.1 0.7-0.1 0.8 0.1s0 0.1 0 0.2a1.7 1.7 0 0 1-0.4 0.3 10.7 10.7 0 0 1-0.9 0.6 10 10 0 0 1-1.7 0.7 14 14 0 0 0-1.7 0.5z"/>
      <path d="m286.9 438.4a2.9 2.9 0 0 0 0.4-1.7 6.1 6.1 0 0 0-0.3-2 5.7 5.7 0 0 0-0.5-1.1 1.5 1.5 0 0 0-1.2-0.9 0.9 0.9 0 0 0-0.7 0.5 2.8 2.8 0 0 0-0.2 0.7 3.8 3.8 0 0 0 0 1.2 4.2 4.2 0 0 0 0.8 1.9c0.7 0.9 1.5 1.1 1.5 1s-0.6-0.4-1.1-1.3a4.4 4.4 0 0 1-0.6-1.7 4.1 4.1 0 0 1 0-1c0.1-0.4 0.2-0.7 0.3-0.7s0.5 0.3 0.7 0.6a6.1 6.1 0 0 1 0.5 1 6.2 6.2 0 0 1 0.4 1.8c0.2 1.1-0.1 1.8 0 1.8z"/>
    </g>
    <path d="m348.4 427.5 1.4 18.5s-18.3 7.7-18.4 11.1l36-1.4-2.9-28.8z" class="j"/>
    <g class="h">
      <path d="m360.9 444a1.5 1.5 0 0 1 1.1 1.6 1.4 1.4 0 0 1-1.6 1.1 1.6 1.6 0 0 1-1.1-1.7 1.5 1.5 0 0 1 1.8-0.9"/>
      <path d="m367.4 455.7-0.2-2.9-34.4 2.5s-1.6 0.8-1.3 1.9z"/>
    </g>
    <g class="d">
      <path d="m349.2 445.9c0 0.2 0.9 0.2 1.8 0.8s1.4 1.3 1.5 1.2-0.1-1.1-1.2-1.7-2.1-0.4-2.1-0.2z"/>
      <path d="m345.5 447.6c0 0.2 0.7 0.4 1.4 1.2s0.8 1.5 1 1.5 0.3-1-0.5-1.9-1.8-0.9-1.8-0.7z"/>
      <path d="m343.5 452.2c0.2 0 0.4-0.9-0.1-1.8s-1.3-1.3-1.4-1.1 0.5 0.7 0.9 1.4 0.5 1.5 0.7 1.5z"/>
      <path d="m349.3 441.6c0.1 0.2 0.9-0.1 1.9-0.1s1.8 0.3 1.9 0.2-0.7-0.8-1.8-0.8-2 0.6-1.9 0.7z"/>
      <path d="m349.1 437.9a3.2 3.2 0 0 0 1.8-0.1 8.2 8.2 0 0 0 1.9-0.6 8 8 0 0 0 1-0.6 2.3 2.3 0 0 0 0.5-0.4 0.8 0.8 0 0 0 0-0.9 1 1 0 0 0-0.8-0.4 2.4 2.4 0 0 0-0.7 0.1 6.9 6.9 0 0 0-1.1 0.4 6.4 6.4 0 0 0-1.6 1.2c-0.8 0.8-1.1 1.5-1 1.5s0.5-0.5 1.3-1.2a6.9 6.9 0 0 1 2.6-1.3c0.4-0.1 0.7-0.1 0.8 0s0 0.1 0 0.2a2 2 0 0 1-0.4 0.3 9.6 9.6 0 0 1-0.9 0.6 10.2 10.2 0 0 1-1.7 0.7 13.3 13.3 0 0 0-1.7 0.5z"/>
      <path d="m349.4 438.1a3 3 0 0 0 0.4-1.8 6 6 0 0 0-0.3-2 5.8 5.8 0 0 0-0.5-1.1 1.5 1.5 0 0 0-1.2-0.9 0.8 0.8 0 0 0-0.7 0.5 2.3 2.3 0 0 0-0.2 0.7 3.7 3.7 0 0 0 0.1 1.2 4.1 4.1 0 0 0 0.8 1.8c0.7 0.9 1.5 1.1 1.5 1s-0.6-0.4-1.1-1.3a4.2 4.2 0 0 1-0.6-1.7 3.7 3.7 0 0 1 0-1c0-0.4 0.2-0.7 0.3-0.7s0.5 0.3 0.7 0.6a6.2 6.2 0 0 1 0.5 1 6.7 6.7 0 0 1 0.4 1.8c0.1 1.1-0.1 1.7 0 1.8z"/>
    </g>
    <path d="m318.8 114.1-3.5 41-20.5-1.6c-0.1-2.4 0-11.7 0-11.7s-8.5-1.3-8.6-9.8c-0.1-4.1 0.5-12.7 1.2-20.4a15.8 15.8 0 0 1 16.7-14.5 15.8 15.8 0 0 1 14.8 17.1z" class="l"/>
    <path d="m294.7 141.7a19.8 19.8 0 0 0 11.1-3.2s-2.6 6.1-11.1 5.4z" class="m"/>
    <g class="d">
      <path d="m289.3 118.5c0.1 0.2 1.1-0.5 2.4-0.4s2.2 0.8 2.4 0.6-0.1-0.4-0.5-0.7a3.4 3.4 0 0 0-3.8-0.2c-0.4 0.3-0.6 0.6-0.5 0.7z"/>
      <path d="m301.3 118.7c0.2 0.2 1.1-0.6 2.4-0.6s2.3 0.6 2.4 0.4-0.1-0.4-0.5-0.6a3.3 3.3 0 0 0-1.9-0.5 3.2 3.2 0 0 0-1.9 0.7c-0.4 0.3-0.5 0.6-0.4 0.7z"/>
      <path d="m297.2 126.7a8.4 8.4 0 0 0-2.1-0.4c-0.3 0-0.6-0.1-0.7-0.3a1.7 1.7 0 0 1 0.2-1q0.5-1.2 1-2.5a44.3 44.3 0 0 0 2.2-6.7 44.3 44.3 0 0 0-2.8 6.5c-0.3 0.9-0.6 1.7-0.9 2.6a2 2 0 0 0-0.2 1.3 0.8 0.8 0 0 0 0.6 0.5 2.1 2.1 0 0 0 0.6 0.1 9.2 9.2 0 0 0 2.2 0z"/>
      <path d="m301.1 127.6c-0.2 0-0.2 1.4-1.4 2.4s-2.7 0.9-2.7 1.1 0.3 0.3 1 0.3a3.6 3.6 0 0 0 2.3-0.8 3.1 3.1 0 0 0 1.1-2c0-0.6-0.1-1-0.2-1z"/>
      <path d="m301.7 112.7c0.1 0.4 1.4 0.2 3 0.4s2.8 0.6 3 0.3c0.1-0.1-0.1-0.5-0.6-0.8a5 5 0 0 0-2.2-0.8 4.9 4.9 0 0 0-2.3 0.3c-0.6 0.2-0.9 0.5-0.8 0.7z"/>
      <path d="m289.6 113.3c0.3 0.4 1.3 0 2.6 0s2.3 0.2 2.6-0.1c0.1-0.2-0.1-0.5-0.5-0.8a3.7 3.7 0 0 0-4.1 0.1c-0.4 0.3-0.6 0.7-0.5 0.8z"/>
      <path d="m309.5 104.8a6.7 6.7 0 0 1 2.5 4.3v0.2c0.3 2.4 0.3 4.9 0.6 7.3a11 11 0 0 0 3 6.6c0.7 0.7 2 1.2 2.7 0.4a2.1 2.1 0 0 0 0.3-1.1c0.5-5.9 2.1-11.1 2-17.2a5.2 5.2 0 0 0-2.1-4.2c-1.3-0.9-2.8-1.9-4.3-1.2s-3.3 3.4-4.4 4.5"/>
    </g>
    <path d="m315.9 118c0.2-0.1 5.9-1.7 5.7 4.1s-6 4.5-6 4.3 0.3-8.4 0.3-8.4z" class="l"/>
    <path d="m317.4 124.2s0.1 0.1 0.3 0.2a1 1 0 0 0 0.8 0 2.5 2.5 0 0 0 1.2-2.2 3.5 3.5 0 0 0-0.2-1.5 1.2 1.2 0 0 0-0.7-0.8 0.5 0.5 0 0 0-0.6 0.3c-0.1 0.2 0 0.3-0.1 0.3s-0.1-0.1-0.1-0.3a0.7 0.7 0 0 1 0.2-0.4 0.8 0.8 0 0 1 0.6-0.1 1.4 1.4 0 0 1 1 0.9 3.4 3.4 0 0 1 0.3 1.6 2.6 2.6 0 0 1-1.6 2.5 1.1 1.1 0 0 1-0.9-0.2c-0.1-0.1-0.2-0.2-0.1-0.3z" class="m"/>
    <path d="m314.5 100.7c1.4-2.3-2.5-5.7-5.4-6.6s-6.7 0.5-9.5 1.4c-1.8 0.6-3.6 1.4-5.5 1.4a13.1 13.1 0 0 1-3.7-0.9 9.3 9.3 0 0 0-3.7-0.7 3.5 3.5 0 0 0-3.1 2 2.2 2.2 0 0 0 1.5 3 2.9 2.9 0 1 0-0.8 5.3c-0.8-0.6-2.1 0.4-2 1.5a3 3 0 0 0 2 2.2c2.4 1.1 5.3 0.7 7.8-0.1s4.9-2.2 7.3-3.1 6.7-2.5 9.2-1.7c1.9 0.7 3.1 2.9 4.2 2.4a3.6 3.6 0 0 0 1.9-2.6 10.6 10.6 0 0 0-0.1-3.3" class="d"/>
    <path d="m284.3 100s0.3 0.4 0.9 1.1a8.2 8.2 0 0 0 3.2 2.1 7.4 7.4 0 0 0 5.5-0.2c2-0.9 3.7-2.7 5.6-4.3a12 12 0 0 1 6.6-3.1 6.7 6.7 0 0 1 5.6 1.9 5.1 5.1 0 0 1 1.3 3.8 3.7 3.7 0 0 1-0.2 1.1c-0.1 0.2-0.2 0.3-0.2 0.3a8.6 8.6 0 0 0 0.2-1.4 5 5 0 0 0-1.4-3.5 6.4 6.4 0 0 0-5.2-1.7 11.9 11.9 0 0 0-6.3 3.1c-1.9 1.6-3.7 3.5-5.8 4.4a7.7 7.7 0 0 1-5.9 0.1 7.7 7.7 0 0 1-3.3-2.3 5.5 5.5 0 0 1-0.6-0.9 1.4 1.4 0 0 1-0.1-0.4z" class="j"/>
    <path d="m317.4 117.7s-0.2-0.2-0.5-0.6a3.8 3.8 0 0 1-0.3-2.1c0.1-1.9 1.8-3.9 2-6.5a5.9 5.9 0 0 0-0.6-3.5 4.4 4.4 0 0 0-2.2-1.9 3.7 3.7 0 0 0-1.9-0.3c-0.5 0.1-0.7 0.2-0.7 0.1s0.2-0.2 0.7-0.4a3.7 3.7 0 0 1 2.1 0.1 4.8 4.8 0 0 1 2.5 2 6.2 6.2 0 0 1 0.8 3.8 10.7 10.7 0 0 1-1.1 3.7 11 11 0 0 0-1 2.8 4.4 4.4 0 0 0 0.3 2.7z" class="j"/>
    <polygon points="342 444.6 304.5 270.6 307.6 442.1 282.3 442.1 272.3 244.6 335 246.3 368.5 441.4" class="d"/>
    <path d="m274.8 184.3-9.4 5.9-10.7-20.6c4.7-3.4 19.8-13.1 23.6-15.6a18.4 18.4 0 0 1 3-1.6 30.7 30.7 0 0 1 7.9-1.9c2.4-0.3 4.3-0.5 5.5-0.6a35.1 35.1 0 0 0 21.2 0c0.8 0 1.6 0.1 2.4 0.2 7 1 13.8 5.9 18 10.5l16.7 15-16.4 19.6-5.1-6 1.2 27.6 4.8 34.4h-65.3s-0.1-8.1 0.5-19.4c0.8-15.8 1.7-40.5 1.7-40.5" class="g"/>
    <path d="m274.2 201.6a32.6 32.6 0 0 0 0.4-4.5c0.2-2.8 0.4-6.7 0.8-11s0.7-8.1 1-10.9a30.7 30.7 0 0 0 0.3-4.5 25.6 25.6 0 0 0-0.8 4.5c-0.4 2.8-0.9 6.7-1.2 10.9s-0.5 8.2-0.6 11a26 26 0 0 0 0.1 4.6z" class="d"/>
    <path d="m330.3 174.4a13 13 0 0 0-0.2 3.1c0 1.9 0.1 4.6 0.3 7.5s0.5 5.6 0.8 7.5a11.6 11.6 0 0 0 0.6 3.1 15.4 15.4 0 0 0-0.1-3.1c-0.2-2.2-0.4-4.7-0.6-7.5s-0.4-5.3-0.5-7.5a14 14 0 0 0-0.3-3.1z" class="d"/>
    <g class="k">
      <rect x="314" y="177.7" width="10.9" height="2.8"/>
      <path d="m335.2 159.6a9.1 9.1 0 0 0-2.6-0.4 12.4 12.4 0 0 0-6.6 2.4c-1.3 0.8-2.6 1.9-4 3a28 28 0 0 1-5 2.9 29.2 29.2 0 0 1-6.1 1.8 29.9 29.9 0 0 1-6.9 0.4 27.5 27.5 0 0 1-6.7-1.3 29.3 29.3 0 0 1-3.1-1.2 25.9 25.9 0 0 1-2.8-1.5c-3.5-2.1-5.9-5-8.4-6.7a10.2 10.2 0 0 0-6.7-2.2 8.1 8.1 0 0 0-2.5 0.7l0.2-0.1a3 3 0 0 1 0.5-0.3 5.7 5.7 0 0 1 1.9-0.5 10.2 10.2 0 0 1 6.9 2.1c2.6 1.7 5 4.6 8.4 6.6a25.2 25.2 0 0 0 2.7 1.4 29.7 29.7 0 0 0 3 1.1 27.4 27.4 0 0 0 6.6 1.2 29.9 29.9 0 0 0 6.7-0.3 29.4 29.4 0 0 0 6-1.8 27.6 27.6 0 0 0 5-2.8c1.5-1 2.8-2.1 4.1-2.9a12.3 12.3 0 0 1 6.9-2.3 6.6 6.6 0 0 1 2 0.3 3.6 3.6 0 0 1 0.5 0.2c0.1 0.1 0.1 0.1 0.1 0.1z"/>
      <path d="m274.9 180.6c-0.1 0-0.7-0.9-2-2a16.4 16.4 0 0 0-2.5-1.8 18.1 18.1 0 0 0-3.5-1.5 18.3 18.3 0 0 0-3.7-0.7 16.4 16.4 0 0 0-3.1 0.1c-1.7 0.2-2.8 0.6-2.8 0.5s0.2-0.1 0.7-0.3a10.5 10.5 0 0 1 2.1-0.5 15 15 0 0 1 3.2-0.2 17.5 17.5 0 0 1 3.8 0.7 17 17 0 0 1 3.5 1.6 14.4 14.4 0 0 1 2.5 2 9.2 9.2 0 0 1 0.8 0.9 5.1 5.1 0 0 1 0.6 0.7c0.2 0.4 0.4 0.6 0.4 0.6z"/>
      <path d="m330.1 190.3a2.5 2.5 0 0 1-0.5 0.3l-1.5 0.8-1.1 0.6c-0.4 0.2-0.9 0.4-1.3 0.6-1 0.4-2 0.9-3.3 1.3l-2 0.7c-0.7 0.2-1.4 0.4-2.1 0.6-1.5 0.4-3.1 0.7-4.8 1a62 62 0 0 1-11.2 0.7 61.3 61.3 0 0 1-11.2-1.6c-1.7-0.5-3.3-0.9-4.7-1.4-0.7-0.3-1.4-0.5-2.1-0.7l-1.9-0.8c-1.2-0.5-2.2-1.1-3.2-1.5-0.5-0.2-0.9-0.4-1.3-0.7l-1-0.6-1.4-0.9a2.2 2.2 0 0 1-0.5-0.3 3.3 3.3 0 0 1 0.5 0.3l1.5 0.8 1.1 0.6c0.4 0.2 0.8 0.4 1.3 0.6 0.9 0.4 2 1 3.2 1.5l1.9 0.8c0.7 0.3 1.4 0.5 2.1 0.7 1.4 0.5 3 0.9 4.7 1.4a57.1 57.1 0 0 0 22.2 0.9c1.7-0.3 3.3-0.6 4.8-1 0.7-0.2 1.5-0.3 2.2-0.5l2-0.6c1.3-0.4 2.3-0.8 3.3-1.2 0.5-0.2 0.9-0.3 1.4-0.5l1.1-0.5 1.5-0.7a1.9 1.9 0 0 1 0.6-0.2z"/>
      <path d="m348 173.4a22.1 22.1 0 0 0-3-0.2 15 15 0 0 0-6.9 2.1 32.9 32.9 0 0 0-5.8 4.5 20.6 20.6 0 0 1-2.3 2.1 15.9 15.9 0 0 1 2.1-2.3 27.6 27.6 0 0 1 5.8-4.7 14.1 14.1 0 0 1 7.2-2 8.9 8.9 0 0 1 2.3 0.3 2.3 2.3 0 0 1 0.8 0.3z"/>
      <path d="m331.4 211.3a2.9 2.9 0 0 1-0.5 0.3l-1.6 0.7c-0.7 0.3-1.5 0.7-2.5 1s-2.1 0.8-3.4 1.2l-2 0.6c-0.7 0.2-1.4 0.4-2.2 0.6-1.5 0.4-3.2 0.7-4.9 1a71.8 71.8 0 0 1-23 0.2c-1.7-0.3-3.4-0.6-5-1-0.8-0.2-1.5-0.3-2.2-0.5l-2-0.6c-1.3-0.3-2.4-0.8-3.4-1.1s-1.9-0.7-2.6-1l-1.6-0.7a3.5 3.5 0 0 1-0.5-0.3 2.2 2.2 0 0 1 0.6 0.2l1.6 0.6c0.7 0.3 1.6 0.6 2.6 0.9s2.2 0.7 3.5 1l2 0.5c0.7 0.2 1.5 0.3 2.2 0.5 1.5 0.4 3.2 0.6 4.9 0.9a74.5 74.5 0 0 0 22.9-0.2c1.7-0.3 3.4-0.6 4.9-1 0.8-0.2 1.5-0.3 2.2-0.5l2-0.6c1.3-0.3 2.4-0.8 3.4-1.1s1.9-0.6 2.6-0.9l1.6-0.6a2.1 2.1 0 0 1 0.6 0z"/>
      <path d="m335.2 237.6a2.4 2.4 0 0 1-0.6 0l-1.8-0.2c-1.6-0.2-3.8-0.5-6.6-0.8s-6.2-0.5-9.9-0.7-7.8-0.2-12.1-0.1-8.4 0.4-12.1 0.7-7 0.8-9.8 1.2-5 0.8-6.6 1.1l-1.8 0.3a3.7 3.7 0 0 1-0.6 0.1 2.4 2.4 0 0 1 0.6-0.2l1.8-0.4c1.5-0.3 3.8-0.8 6.6-1.2s6.1-0.9 9.9-1.3 7.8-0.6 12.2-0.7 8.4 0 12.2 0.2 7.1 0.5 9.9 0.9 5.1 0.7 6.6 0.9l1.8 0.3a4.7 4.7 0 0 1 0.6 0.1z"/>
    </g>
    <path d="m105.4 100.8a18.9 18.9 0 0 0-18.5 15.2c-0.8 4.4 0.1 9.3-2 13.3-2.7 5.3-9.8 7.8-11.4 13.5-1.3 4.8 1.8 10 0.5 14.8-1 3.5-4.1 5.9-5.6 9.2a10.5 10.5 0 0 0 0.7 10 9.5 9.5 0 0 0 9 4.1c2.2-0.3 4.2-1.4 6.3-2.1 4.6-1.5 9.5-1 14.2-0.3s9.6 1.4 14.3 0.3 9.1-4.5 9.8-9.3c0.5-3.1-0.7-6.1-1.7-9.1-6.2-19.5-3.3-40.9-7.7-60.9" class="d"/>
    <path d="m88.1 118.8a20.4 20.4 0 0 0-4.2-4.1 7.8 7.8 0 0 0-5.5-1.4 4.9 4.9 0 0 0-4.1 3.7 3.6 3.6 0 0 0 3 4.2 2.8 2.8 0 0 0-3.8 2.1 3.9 3.9 0 0 0 2.4 4 6.4 6.4 0 0 0 4.9-0.1 18.6 18.6 0 0 0 4.2-2.6l4.5-3.4" class="d"/>
    <g class="j">
      <path d="m72.4 175.7a2.4 2.4 0 0 1-0.8-0.3 4.1 4.1 0 0 1-1.5-1.9 5.7 5.7 0 0 1-0.1-3.9 12.1 12.1 0 0 1 2.8-4.3 29 29 0 0 0 4-4.7 9.1 9.1 0 0 0 0.8-6.8c-0.4-2.4-1.4-5-1.4-7.8a7.6 7.6 0 0 1 1.2-4.1 10.8 10.8 0 0 1 3.2-3c2.5-1.6 5.3-2.4 7.5-4a9.2 9.2 0 0 0 2.7-2.7 10.7 10.7 0 0 0 1.3-3.6 66 66 0 0 0 0.5-7.1 25 25 0 0 1 1.1-6.2 13.4 13.4 0 0 1 5.2-7.3 9.1 9.1 0 0 1 2.2-1.1 5.1 5.1 0 0 1 0.6-0.2h0.2a12.2 12.2 0 0 0-2.9 1.5 13.4 13.4 0 0 0-5 7.2 25.3 25.3 0 0 0-1 6.1 63.2 63.2 0 0 1-0.4 7.2 10.6 10.6 0 0 1-1.3 3.7 9.5 9.5 0 0 1-2.9 3c-2.3 1.6-5 2.5-7.5 4a10.3 10.3 0 0 0-3 2.8 7 7 0 0 0-1.1 3.8c0 2.7 0.9 5.2 1.4 7.7a12.8 12.8 0 0 1 0.3 3.7 7.8 7.8 0 0 1-1.1 3.4 28.9 28.9 0 0 1-4.1 4.8 12.1 12.1 0 0 0-2.8 4.2 5.6 5.6 0 0 0 0 3.7 4.1 4.1 0 0 0 1.4 1.9c0.5 0.3 0.8 0.4 0.7 0.5z"/>
      <path d="m86.4 125a17.2 17.2 0 0 0 0.9-3.9 16.9 16.9 0 0 0-0.5-3.9 6.8 6.8 0 0 1-0.3 7.8z"/>
      <path d="m91.6 157.5s-0.1-0.1-0.4-0.4a5.3 5.3 0 0 1-0.8-1.3 8.5 8.5 0 0 1 0.1-5.6c0.7-2.3 2.5-4.6 4.2-7.1a18.2 18.2 0 0 0 2.3-4.2 16.2 16.2 0 0 0 0.8-5.1c0.1-3.6-0.6-6.9-0.8-10.1a18.3 18.3 0 0 1 1-8.2 10.3 10.3 0 0 1 3.3-4.5 7.4 7.4 0 0 1 1.3-0.8 2 2 0 0 1 0.5-0.2 17.1 17.1 0 0 0-1.7 1.1 10.4 10.4 0 0 0-3.1 4.5 18.3 18.3 0 0 0-0.8 8.1c0.2 3.1 0.9 6.5 0.9 10.1a16.5 16.5 0 0 1-0.9 5.2 18.3 18.3 0 0 1-2.4 4.3c-1.8 2.5-3.6 4.7-4.3 7a8.4 8.4 0 0 0-0.2 5.4 8.3 8.3 0 0 0 0.9 1.8z"/>
    </g>
    <path d="m65.2 159.6s0.1 0.2 0.3 0.5a3.3 3.3 0 0 0 1.1 1 4.2 4.2 0 0 0 2.3 0.5 4.2 4.2 0 0 0 2.8-1.4 6.6 6.6 0 0 0 1.6-3.5 11.6 11.6 0 0 0-0.4-4.5c-0.4-1.6-1-3.1-1.4-4.9a12.2 12.2 0 0 1-0.4-5.5 10.4 10.4 0 0 1 2.6-4.9 24.1 24.1 0 0 1 3.9-3.4c1.3-1 2.6-1.8 3.8-2.6a26 26 0 0 0 3-2.6 11.3 11.3 0 0 0 3.1-4.8 15.8 15.8 0 0 0 0.4-2.1 6 6 0 0 1-0.2 2.1 11.2 11.2 0 0 1-3 5 25.7 25.7 0 0 1-3 2.7c-1.2 0.9-2.5 1.7-3.7 2.7a24.3 24.3 0 0 0-3.8 3.3 10 10 0 0 0-2.4 4.7 12.1 12.1 0 0 0 0.4 5.3c0.5 1.7 1 3.3 1.4 4.9a11.6 11.6 0 0 1 0.3 4.7 6.9 6.9 0 0 1-1.7 3.7 4.4 4.4 0 0 1-3 1.4 4.4 4.4 0 0 1-2.5-0.6 2.8 2.8 0 0 1-1.1-1.1 1.2 1.2 0 0 1-0.2-0.4c0-0.1-0.1-0.1-0.1-0.1z" class="d"/>
    <path d="m128.5 110.4c0.8 5.2 2.2 10.3 4.4 13.5 1.8 2.6 5.3 4 5.8 7.1 0.5 2.6-1.1 5.2-0.9 7.8 0.4 4.2 5 6.7 6.3 10.6 1.1 3.3-0.4 7-2.9 9.4s-5.9 3.7-9.2 4.6c-4.8 1.3-10.6 1.7-14-1.9-2.3-2.4-2.9-6.1-3.2-9.4-0.8-9-0.8-18.1-0.7-27.2" class="d"/>
    <path d="m97.4 119.1a15.5 15.5 0 0 1 14-17.4c8.3-0.8 15.6 5.4 16.9 13.6 1.1 7.2 2 14.5 2 17.1-0.1 8-4.8 11.1-6.7 12a10.7 10.7 0 0 1-2.1 0.5 0.1 0.1 0 0 0 0 0.1l1.8 9.2c0.8 6-2.5 11.3-8.5 12.2s-10.7-3.7-11.6-9.7z" class="n"/>
    <g class="d">
      <path d="m126.6 118.7c-0.1 0.2-1.2-0.4-2.5-0.2s-2.2 1-2.4 0.9 0-0.4 0.4-0.8a3.5 3.5 0 0 1 1.9-0.9 3.4 3.4 0 0 1 2 0.3c0.5 0.3 0.7 0.5 0.6 0.6z"/>
      <path d="m114.4 121.1c-0.1 0.2-1.2-0.4-2.5-0.2s-2.2 1-2.4 0.9 0-0.4 0.4-0.8a3.5 3.5 0 0 1 1.9-0.9 3.4 3.4 0 0 1 2 0.3c0.5 0.3 0.7 0.5 0.6 0.6z"/>
      <path d="m119.5 128.9a9 9 0 0 1 2.1-0.7c0.3-0.1 0.7-0.2 0.7-0.4a1.7 1.7 0 0 0-0.4-1c-0.4-0.8-0.9-1.6-1.4-2.5a46.4 46.4 0 0 1-3.3-6.5c0.2-0.1 1.9 2.7 3.8 6.3l1.4 2.5a2 2 0 0 1 0.4 1.3 0.9 0.9 0 0 1-0.5 0.6 2.1 2.1 0 0 1-0.6 0.2 8.4 8.4 0 0 1-2.2 0.3z"/>
    </g>
    <path d="m121.4 144.9s-5.1 1.2-12.2-1.8c0 0 3 6.6 12.7 4.2z" class="l"/>
    <path d="m119.4 132.2a2.5 2.5 0 0 0-2.3-0.6 2.2 2.2 0 0 0-1.4 1 1.4 1.4 0 0 0 0.1 1.6 1.7 1.7 0 0 0 1.8 0.2 5.1 5.1 0 0 0 1.6-1.3 1.5 1.5 0 0 0 0.3-0.5 0.5 0.5 0 0 0-0.1-0.5" class="l"/>
    <g class="d">
      <path d="m115.6 130.4c0.2 0 0.4 1.4 1.8 2.3s2.9 0.5 3 0.7-0.3 0.3-1 0.5a3.7 3.7 0 0 1-2.5-0.5 3.2 3.2 0 0 1-1.4-1.9c-0.1-0.6 0-1 0.1-1z"/>
      <path d="m113.7 117.3c-0.1 0.4-1.5 0.4-3 0.8s-2.8 1-3 0.7 0-0.5 0.5-1a5.4 5.4 0 0 1 4.6-1.2c0.6 0.2 0.9 0.4 0.9 0.6z"/>
      <path d="m125.5 115c-0.2 0.3-1.2 0.2-2.3 0.3s-2 0.5-2.3 0.2c-0.1-0.1 0-0.5 0.4-0.8a3.2 3.2 0 0 1 1.8-0.7 3.3 3.3 0 0 1 1.9 0.4c0.5 0.2 0.6 0.5 0.5 0.7z"/>
      <path d="m124.2 119.9a1.3 1.3 0 0 0 1 1.4 1.2 1.2 0 0 0 1.4-0.9 1.3 1.3 0 0 0-1-1.4 1.2 1.2 0 0 0-1.4 0.9z"/>
      <path d="m111.9 122.2a1.2 1.2 0 0 0 1 1.4 1.2 1.2 0 0 0 1.5-0.9 1.3 1.3 0 0 0-1-1.4 1.2 1.2 0 0 0-1.4 0.9z"/>
    </g>
    <g class="n">
      <path d="m98.2 156.9 30.3-5.9-0.9 16.9s-13.5 4.2-14 4.4-9.3 0-9.3 0z"/>
      <path d="m64.6 271.7c-0.2 0.8-0.5 1.7-0.7 2.8a8.2 8.2 0 0 0-0.1 2.8 12.5 12.5 0 0 0 0.8 3.4c0.5 1-0.5 2-1.3 1.6s-2.3-3.1-2.4-6.6-3.5 0.9-4.7 2.5-5.3 6.3-6.1 6.3c-1.2 0-1.4-1.2-0.1-2.8s4.8-6.5 3.9-7.1-7.1 7.5-7.1 7.5-1 2-2.1 1.3c-1.8-1.2 5.4-9.4 6.1-10.2 0.5-0.5-0.4-1.2-0.9-0.6s-6 8.3-7.9 7c-1.5-0.9 5.9-6.8 6.2-9s-5.1 5-6.5 4c-0.5-0.4-0.8-0.7 2.9-4.4 1.8-1.8 8.7-7.2 8.7-7.2l14-48.8h18.4z"/>
      <path d="m153.8 143.9s26.2-10.4 30.3-13.6 30.3-26.7 30.3-26.7l3.5-2.9c0.4-0.7 0.9-1.5 1.4-2.5a8.3 8.3 0 0 0 0.9-2.7 12.9 12.9 0 0 0 0.2-3.5 1.1 1.1 0 0 1 1.7-1.2c0.7 0.7 1.4 3.6 0.5 7s3.6 0.1 5.2-1.1 6.8-4.6 7.6-4.4c1.1 0.3 1 1.6-0.7 2.7s-6.4 4.9-5.7 5.8 8.9-5.3 8.9-5.3 1.5-1.6 2.3-0.7c1.5 1.7-7.8 7.6-8.6 8.1-0.6 0.4 0.1 1.3 0.7 0.9s8.1-6.3 9.5-4.6c1.1 1.3-7.5 4.9-8.4 7s6.3-3.4 7.3-2.1c0.4 0.5 0.6 0.9-3.9 3.4-2.2 1.2-10.3 4.6-10.3 4.6l-0.9 0.9-34.8 36-31.9 12.8z"/>
    </g>
    <path d="m56 418.2-5.1 23.2-9.3 17.2a2.4 2.4 0 0 0 1.1 3.4 2.4 2.4 0 0 0 2.2-0.1c4.3-2.5 20.3-11.8 20.5-13.5 0.3-2 7-24.1 7-24.1z" class="g"/>
    <g class="h">
      <path d="m42.7 461.9 23.2-15.2-0.2 1a3.7 3.7 0 0 1-1.4 2.1c-1.9 1.4-7.2 5-19.2 12a2.5 2.5 0 0 1-2.3 0.1z"/>
      <path d="m62.9 438.1a1.5 1.5 0 0 0-0.8 1.8 1.4 1.4 0 0 0 1.8 0.9 1.6 1.6 0 0 0 0.9-1.9 1.5 1.5 0 0 0-1.9-0.7"/>
    </g>
    <g class="d">
      <path d="m50.4 453.1a7.4 7.4 0 0 0-1.6-2.3 7.4 7.4 0 0 0-2.5-1.2c0-0.1 0.3-0.2 0.9-0.1a3.8 3.8 0 0 1 2 0.9 3.8 3.8 0 0 1 1.2 1.8c0.1 0.5 0.1 0.9 0 0.9z"/>
      <path d="m48 455.8c-0.1 0.1-0.7-0.9-1.8-1.5s-2.2-0.7-2.2-0.8a2.7 2.7 0 0 1 2.4 0.4c1.3 0.7 1.7 1.9 1.5 1.9z"/>
      <path d="m54.4 449.9a23.5 23.5 0 0 0-2.6-2.5 22.8 22.8 0 0 0-3.2-1.6 5.4 5.4 0 0 1 3.5 1.2 5.3 5.3 0 0 1 2.3 2.9z"/>
      <path d="m56.6 443c-0.1 0.1-1.2-0.7-2.9-1.2s-3-0.4-3.1-0.5a4.7 4.7 0 0 1 3.2 0.1 4.7 4.7 0 0 1 2.7 1.7z"/>
      <path d="m58.3 436.2a12 12 0 0 0-3-1.3 11.9 11.9 0 0 0-3.2 0c0-0.1 0.3-0.3 0.9-0.5a5.2 5.2 0 0 1 2.5-0.1 5.2 5.2 0 0 1 2.2 1c0.5 0.5 0.7 0.8 0.7 0.8z"/>
      <path d="m55.7 433.6a2 2 0 0 1 0.2-0.9 6.4 6.4 0 0 1 1.3-2.1 2.8 2.8 0 0 1 1.5-1 1 1 0 0 1 1 0.5 1.6 1.6 0 0 1 0.1 1.1 3.4 3.4 0 0 1-3.7 2.4 4 4 0 0 1-3.3-2.9 1.3 1.3 0 0 1 0.2-1.1 1 1 0 0 1 1.1-0.3 3.4 3.4 0 0 1 1.3 1.2 7.2 7.2 0 0 1 1.1 2.2 2.1 2.1 0 0 1 0.2 0.9 11.6 11.6 0 0 0-1.6-2.8 3.3 3.3 0 0 0-1.2-1 0.5 0.5 0 0 0-0.6 0.1 1 1 0 0 0-0.1 0.8 3.6 3.6 0 0 0 2.9 2.5 3 3 0 0 0 3.2-2 1.2 1.2 0 0 0 0-0.8 0.5 0.5 0 0 0-0.5-0.3 2.5 2.5 0 0 0-1.3 0.8 9 9 0 0 0-1.7 2.8z"/>
    </g>
    <path d="m128.2 426.7-0.7 18.5s18.6 6.9 18.8 10.4l-36-0.1-0.1-28.9z" class="g"/>
    <g class="h">
      <path d="m116.4 443.7a1.5 1.5 0 0 0-1 1.7 1.4 1.4 0 0 0 1.7 1 1.6 1.6 0 0 0 1.1-1.8 1.5 1.5 0 0 0-1.8-0.9"/>
      <path d="m110.3 455.6 0.1-2.9 34.5 1.2s1.6 0.7 1.4 1.8z"/>
    </g>
    <g class="d">
      <path d="m128.1 445.1c0 0.2-0.9 0.3-1.7 0.8s-1.3 1.3-1.5 1.2 0.1-1.1 1.2-1.7 2.1-0.5 2.1-0.3z"/>
      <path d="m131.9 446.7c0 0.2-0.7 0.5-1.3 1.2s-0.8 1.5-0.9 1.5-0.3-1 0.5-1.9 1.8-1 1.8-0.8z"/>
      <path d="m134 451.2c-0.2 0-0.4-0.8 0-1.8s1.3-1.3 1.4-1.2-0.4 0.7-0.8 1.5-0.4 1.5-0.5 1.6z"/>
      <path d="m127.8 440.9c-0.1 0.2-0.9-0.1-1.9 0s-1.8 0.4-1.9 0.2 0.7-0.8 1.8-0.8 2 0.5 1.9 0.6z"/>
    </g>
    <g class="i">
      <polygon points="110.2 433.5 110.2 430.5 128.1 430.4 127.9 433.7"/>
    </g>
    <g class="d">
      <path d="m127.9 437.1a3.5 3.5 0 0 1-1.8 0 8.6 8.6 0 0 1-2.9-1.1 2.1 2.1 0 0 1-0.5-0.4 0.8 0.8 0 0 1-0.1-0.9 1 1 0 0 1 0.8-0.4 2.3 2.3 0 0 1 0.7 0.1 6.2 6.2 0 0 1 2.8 1.5c0.8 0.8 1.1 1.4 1.1 1.5s-0.5-0.5-1.3-1.1a7 7 0 0 0-1.6-0.9 6.6 6.6 0 0 0-1-0.3c-0.4-0.1-0.7-0.1-0.8 0.1s0 0.1 0 0.2a1.8 1.8 0 0 0 0.4 0.3 7.6 7.6 0 0 0 1 0.5 10.1 10.1 0 0 0 1.7 0.7 12.4 12.4 0 0 1 1.7 0.4z"/>
      <path d="m127.6 437.4c-0.1 0-0.4-0.6-0.5-1.7a6.3 6.3 0 0 1 0.3-2 6.9 6.9 0 0 1 0.5-1.1 1.5 1.5 0 0 1 1.2-0.9 0.9 0.9 0 0 1 0.8 0.5 2.3 2.3 0 0 1 0.2 0.7 3.8 3.8 0 0 1 0 1.2 4.2 4.2 0 0 1-0.8 1.9c-0.7 0.9-1.4 1.1-1.5 1.1s0.6-0.4 1.1-1.3a4.1 4.1 0 0 0 0.6-1.7 3.7 3.7 0 0 0 0-1c0-0.4-0.2-0.7-0.3-0.6s-0.5 0.3-0.6 0.6a6 6 0 0 0-0.4 1 6.1 6.1 0 0 0-0.3 1.8c-0.1 1 0.1 1.7 0 1.7z"/>
      <path d="m93.1 223.2s-11.4 18-13 24.9c-1.5 6.2-26.4 140.3-31.5 168a5.7 5.7 0 0 0 4 6.5l22.5 6.8a5.7 5.7 0 0 0 7.2-4.3l27.8-129.9-8.1 128.7a6.6 6.6 0 0 0 6.8 7l22.1-0.7a6.6 6.6 0 0 0 6.3-6.2c1.9-31 10.5-172 8.8-176.4-1.9-5-7.1-22.3-7.1-22.3z"/>
    </g>
    <g class="j">
      <path d="m84.1 418.7a6.9 6.9 0 0 1-1.4-0.2c-0.9-0.1-2.2-0.4-3.7-0.7-3.1-0.6-7.4-1.6-12.1-3s-8.9-2.8-11.9-4c-1.5-0.6-2.7-1-3.5-1.4a8 8 0 0 1-1.3-0.6 6.8 6.8 0 0 1 1.3 0.4l3.6 1.2c3 1.1 7.2 2.4 11.9 3.8s8.9 2.4 12 3.2l3.7 0.9a8.6 8.6 0 0 1 1.4 0.4z"/>
      <path d="m56.2 410.5a3.8 3.8 0 0 1-1.4-2.5 3.9 3.9 0 0 1 0.2-2.8c0.2 0 0 1.3 0.3 2.7s1 2.5 0.9 2.6z"/>
      <path d="m58.9 405.7a4.8 4.8 0 0 1-0.3 2.7 4.7 4.7 0 0 1-1.2 2.4 13.7 13.7 0 0 1 0.7-2.5 12.9 12.9 0 0 1 0.8-2.5z"/>
      <path d="m129.6 412.5a5.7 5.7 0 0 1 0.6 2.3 5.6 5.6 0 0 1 0.1 2.4 11.5 11.5 0 0 1-0.8-4.8z"/>
      <path d="m132.3 411.2a12.5 12.5 0 0 1-0.1 5 6.1 6.1 0 0 1-0.2-2.5 6.2 6.2 0 0 1 0.3-2.5z"/>
      <path d="m119.9 229.5a2.7 2.7 0 0 1 0 0.7c0 0.5 0 1.2-0.1 2-0.1 1.8-0.2 4.3-0.4 7.4-0.5 6.3-1.3 15-2.7 24.5s-3 18.1-4.3 24.2c-0.6 3.1-1.2 5.6-1.6 7.3-0.2 0.8-0.3 1.5-0.5 2a4.1 4.1 0 0 1-0.2 0.7 3 3 0 0 1 0.1-0.7c0.1-0.5 0.2-1.2 0.4-2 0.4-1.8 0.8-4.3 1.4-7.3 1.2-6.2 2.8-14.7 4.2-24.2s2.3-18.1 2.9-24.4c0.3-3.1 0.5-5.6 0.6-7.4 0.1-0.8 0.1-1.5 0.2-2a4.4 4.4 0 0 1 0.1-0.7z"/>
      <path d="m140 229.4a1.7 1.7 0 0 1-0.5 0.1l-1.4 0.1c-1.2 0.1-3.1 0.1-5.3 0.1-4.5 0.1-10.7 0.1-17.6-0.1s-13.1-0.5-17.5-0.9c-2.2-0.2-4.1-0.3-5.3-0.4l-1.4-0.1a1.7 1.7 0 0 1-0.5-0.1 2 2 0 0 1 0.5 0l1.5 0.1 5.3 0.3c4.5 0.2 10.7 0.5 17.5 0.7s13.1 0.3 17.6 0.3h6.8a1.5 1.5 0 0 1 0.5 0.1z"/>
      <path d="m123.7 229.2a11.2 11.2 0 0 1 0 1.7c0 1.2-0.1 2.7-0.1 4.6-0.1 3.9-0.4 9.3-0.7 15.3-0.2 3-0.3 5.8-0.5 8.4a16.5 16.5 0 0 1-1.7 6.7 8.8 8.8 0 0 1-3.2 3.4 6 6 0 0 1-1.2 0.5 2.2 2.2 0 0 1-0.4 0.1c0-0.1 0.6-0.2 1.5-0.8a9 9 0 0 0 3-3.4 16.6 16.6 0 0 0 1.6-6.5c0.2-2.6 0.3-5.4 0.4-8.4 0.3-6 0.6-11.4 0.9-15.3 0.1-1.9 0.2-3.4 0.3-4.6a10.3 10.3 0 0 1 0.2-1.7z"/>
      <path d="m98 240.3a3.8 3.8 0 0 1 0 1.2 16.7 16.7 0 0 1-0.6 3.1 18.9 18.9 0 0 1-14.6 13.6 16.6 16.6 0 0 1-3.1 0.3 3.8 3.8 0 0 1-1.2-0.1 39.1 39.1 0 0 0 4.2-0.6 19.4 19.4 0 0 0 14.3-13.3 41.2 41.2 0 0 0 0.9-4.2z"/>
      <path d="m145.7 259.1s-0.3 0-0.8-0.2a11.9 11.9 0 0 1-2-0.9 16.9 16.9 0 0 1-2.7-1.8 19.4 19.4 0 0 1-2.8-2.9 19 19 0 0 1-2.1-3.5 16.6 16.6 0 0 1-1.1-3.1 12.5 12.5 0 0 1-0.3-2.2 2.6 2.6 0 0 1 0-0.8c0.1 0 0.2 1.1 0.7 2.9a18.4 18.4 0 0 0 1.2 3 20 20 0 0 0 2.1 3.3 20.6 20.6 0 0 0 2.7 2.9 19.4 19.4 0 0 0 2.6 1.9c1.6 0.9 2.7 1.3 2.6 1.4z"/>
      <path d="m105.7 243.6v0.5c0 0.3-0.1 0.8-0.2 1.3-0.2 1.2-0.4 2.9-0.7 5-0.6 4.4-1.5 10.7-2.8 18.5-2.4 15.6-6.2 37.1-11 60.7s-10 44.9-13.9 60.2c-1.9 7.6-3.6 13.8-4.8 18.1-0.6 2.1-1 3.8-1.3 4.9l-0.4 1.3a3.7 3.7 0 0 1-0.1 0.4s0-0.1 0.1-0.4 0.2-0.7 0.3-1.3c0.3-1.1 0.7-2.8 1.3-4.9 1.1-4.3 2.7-10.5 4.6-18.1 3.8-15.3 8.8-36.5 13.7-60.1s8.7-45.1 11.2-60.6c1.3-7.8 2.3-14.1 2.9-18.5 0.3-2.2 0.6-3.8 0.8-5l0.2-1.3c0.1-0.3 0.1-0.5 0.1-0.5z"/>
      <path d="m124 418.6a3.3 3.3 0 0 1 0-0.4c0-0.3 0.1-0.7 0.1-1.2 0.1-1.1 0.2-2.7 0.4-4.8 0.4-4.2 0.9-10.1 1.6-17.5 1.3-14.8 3.4-35.2 5-57.9 0.8-11.3 1.3-22.1 1.5-31.9s0.2-18.7 0-26.1-0.6-13.4-0.9-17.6c-0.1-2-0.3-3.6-0.3-4.8 0-0.5 0-0.9-0.1-1.2a2 2 0 0 1 0-0.4 2.3 2.3 0 0 1 0.1 0.4c0 0.3 0.1 0.7 0.1 1.2 0.1 1.1 0.3 2.7 0.4 4.8 0.4 4.1 0.8 10.2 1 17.6s0.4 16.3 0.1 26.1-0.7 20.6-1.5 32c-1.6 22.6-3.7 43.1-5.1 57.9-0.7 7.4-1.3 13.4-1.7 17.5-0.2 2.1-0.4 3.7-0.5 4.8-0.1 0.5-0.1 0.9-0.1 1.2a2.8 2.8 0 0 1-0.1 0.4z"/>
      <path d="m137.6 416.2c0 0.2-7.9 1.1-17.7 2.2s-17.7 1.8-17.8 1.7 7.9-1.1 17.7-2.2 17.7-1.8 17.8-1.7z"/>
    </g>
    <path d="m107.9 105.5a13 13 0 0 0-2.2 12.9c1.1 2.9 3.3 5.5 3.2 8.6-0.2 3.8-4.1 6.8-3.9 10.7 0.2 4.3 5.8 7 5.8 11.4s-2.7 6.1-7.8 7c-3.3 0.6-5.1-3.5-6.7-6.4s-2.2-6.3-2.5-9.6a98 98 0 0 1-0.2-16.6c0.3-4.5 1-9.1 3.3-12.9a16.7 16.7 0 0 1 11-7.6" class="d"/>
    <path d="m129.8 113.5c-1.6 2.5-6.9 1-10-0.8a7.5 7.5 0 0 1-10.3-2.1c-1.8 2.3-5.5 1.5-6.8-1s-0.6-6.2 1.3-8.4a11.9 11.9 0 0 1 7.2-3.9 16.7 16.7 0 0 1 16.9 7c1.7 2.6 2.8 6.2 1.8 9.3" class="d"/>
    <path d="m129.8 113c-0.1 0.1-1-1.6-3-3.8a20.7 20.7 0 0 0-9.5-6.2 16.1 16.1 0 0 0-11.2 0.9 13.7 13.7 0 0 0-3.8 2.9s0-0.1 0.2-0.3a5.4 5.4 0 0 1 0.6-0.7 10 10 0 0 1 2.8-2.1 15.9 15.9 0 0 1 11.5-1 18.8 18.8 0 0 1 5.8 2.9 22.3 22.3 0 0 1 3.9 3.6 21.7 21.7 0 0 1 2.1 2.9 5.9 5.9 0 0 1 0.7 1.1z" class="j"/>
    <path d="m114.3 114c-0.1 0-0.3-0.9-0.9-2.2a10.5 10.5 0 0 0-3.6-4.3 8 8 0 0 0-5.4-1.3 14.4 14.4 0 0 0-2.3 0.6s0.2-0.2 0.5-0.4a5.8 5.8 0 0 1 1.7-0.6 7.9 7.9 0 0 1 5.8 1.2 9.9 9.9 0 0 1 3.6 4.6 6 6 0 0 1 0.6 2.4z" class="j"/>
    <path d="m98.2 156.9s-13.5 3.9-18.5 12.2-20.7 66.9-20.7 66.9l17.9 2 14.9-39 3.7 12.2-2.3 12 45.7 2.1 3.2-52.5 48.8-23.8 5.5-5.7-14.2-15-5.4 5.1-49 18s1.8 14.5-11.4 16.6-18.1-11-18.1-11z" class="g"/>
    <rect x="124.3" y="176.5" width="10.9" height="2.8" class="k"/>
    <path d="m86.7 181.7c0.1 0 2.2 6.4 4.6 14.4s4.2 14.5 4.1 14.5-2.2-6.4-4.6-14.3-4.2-14.5-4.1-14.5z" class="d"/>
    <path d="m150.7 161.3a33.6 33.6 0 0 0-5.5 5.4 32.9 32.9 0 0 0-3.6 6.8 6.8 6.8 0 0 1 0.6-2.2 19.2 19.2 0 0 1 6.6-8.8 7 7 0 0 1 2-1.2z" class="d"/>
    <g class="o">
      <path d="m87.5 184.5a71 71 0 0 0-1.5 15 12.4 12.4 0 0 0 0.4 3.7 4.7 4.7 0 0 0 2.2 2.9c1.4-1.9 2.8-4 3-6.4a13.6 13.6 0 0 0-0.8-4.9q-1.5-5.4-3.1-10.9"/>
    </g>
    <path d="m99.5 154.1c2.4 1.7 3.2 4.9 3.1 7.9s-1 5.8-1.1 8.8 0.6 6.2 3 7.9l11.6-3.9c-2.3-1.3-2.8-4.4-2.3-7s1.7-5 1.8-7.7c0.4-6.9-4.6-12.8-6.9-15.6" class="d"/>
    <polygon points="165 456.1 167.4 431.7 147.2 430.3 142.7 456.1" class="g"/>
    <path d="m165.4 454a15.5 15.5 0 0 1-3.2 0.2c-2 0-4.8 0-7.8-0.1l-7.8-0.3a17.4 17.4 0 0 1-3.2-0.3 15.9 15.9 0 0 1 3.3-0.2c2 0 4.8 0 7.8 0.2l7.8 0.3a17.9 17.9 0 0 1 3.2 0.3z" class="d"/>
    <g opacity="0.6">
      <polyline points="142.7 456.1 165 456.1 165.2 454 143.1 453.4 142.7 455.8" class="c"/>
    </g>
    <path d="m153.6 453.9a90.5 90.5 0 0 1 1.2-9.8 93.4 93.4 0 0 1 1.7-9.7 93.6 93.6 0 0 1-1.2 9.8 97.2 97.2 0 0 1-1.7 9.7z" class="d"/>
    <path d="m164.2 453.9a10.7 10.7 0 0 0-0.4-4.7 9.2 9.2 0 0 0-2.8-4.1 9 9 0 0 0-5.7-2 9.4 9.4 0 0 0-5.8 1.9 10.3 10.3 0 0 0-3.1 4 12.8 12.8 0 0 0-1 4.6s0-0.1-0.1-0.3a6.5 6.5 0 0 1 0-1 9.9 9.9 0 0 1 0.7-3.5 10.3 10.3 0 0 1 3.2-4.2 9.8 9.8 0 0 1 6.1-2 9.1 9.1 0 0 1 8.9 6.6 8.6 8.6 0 0 1 0.3 3.5 5.2 5.2 0 0 1-0.2 1c-0.1 0.2-0.1 0.3-0.1 0.3z" class="d"/>
    <path d="m242.9 423.1 5.4 17.7s19.9 0.5 21.2 3.6l-34 11.7-9.6-27.3z" class="g"/>
    <g class="h">
      <path d="m237.3 443a1.5 1.5 0 0 0-0.4 1.9 1.4 1.4 0 0 0 1.9 0.4 1.5 1.5 0 0 0 0.4-2 1.5 1.5 0 0 0-2-0.2"/>
      <path d="m235.5 456.2-0.9-2.8 33-10.2s1.7 0.1 1.9 1.3z"/>
    </g>
    <g class="d">
      <path d="m248.9 440.5c0.1 0.2-0.8 0.5-1.4 1.4s-0.8 1.7-1 1.7-0.3-1.1 0.5-2 1.9-1.2 1.9-1z"/>
      <path d="m252.9 440.8c0.1 0.2-0.5 0.7-0.8 1.6s-0.2 1.7-0.4 1.8-0.6-0.9-0.2-2 1.4-1.5 1.4-1.3z"/>
      <path d="m256.4 444.3c-0.1 0.1-0.6-0.7-0.5-1.7s0.8-1.7 0.9-1.6-0.2 0.8-0.3 1.6 0.1 1.6-0.1 1.7z"/>
      <path d="m247.2 436.6c0 0.2-0.9 0.2-1.8 0.6s-1.5 0.9-1.7 0.8 0.4-0.9 1.5-1.4 2.1-0.2 2 0z"/>
    </g>
    <g class="i">
      <polygon points="228.2 435.4 227.2 432.6 244 426.6 245 429.8"/>
    </g>
    <path d="m246 433a3.4 3.4 0 0 1-1.7 0.6 8.3 8.3 0 0 1-2 0.1 9.6 9.6 0 0 1-1.2-0.2 2.5 2.5 0 0 1-0.7-0.2 0.8 0.8 0 0 1-0.4-0.9 1 1 0 0 1 0.6-0.6 2.6 2.6 0 0 1 0.7-0.1 6.8 6.8 0 0 1 1.2 0 6.1 6.1 0 0 1 1.9 0.5c1 0.5 1.5 1 1.5 1s-0.6-0.3-1.6-0.6a7.4 7.4 0 0 0-1.8-0.3 6.8 6.8 0 0 0-1.1 0c-0.4 0-0.7 0.1-0.7 0.3s0 0.1 0.1 0.2a1.6 1.6 0 0 0 0.5 0.2q0.6 0.1 1.1 0.2a10 10 0 0 0 1.9 0.1 13.7 13.7 0 0 1 1.8-0.1z" class="d"/>
    <path d="m245.9 433.4c0 0-0.6-0.4-1-1.5a5.9 5.9 0 0 1-0.4-1.9 6.1 6.1 0 0 1 0.1-1.2 1.5 1.5 0 0 1 0.8-1.2 0.8 0.8 0 0 1 0.9 0.2 2.6 2.6 0 0 1 0.4 0.6 4.2 4.2 0 0 1 0.3 3.2c-0.4 1.1-1 1.6-1 1.5a13.3 13.3 0 0 0 0.6-1.6 4.2 4.2 0 0 0 0-1.8 3.4 3.4 0 0 0-0.4-1c-0.2-0.3-0.4-0.6-0.5-0.5s-0.4 0.4-0.4 0.8a5.6 5.6 0 0 0-0.1 1.1 6.8 6.8 0 0 0 0.3 1.8c0.3 1.1 0.7 1.6 0.6 1.7z" class="d"/>
    <path d="m143.1 198.8-6.4 13.2a16.2 16.2 0 0 0 2.6 18 16.2 16.2 0 0 0 13.7 5.1l24.9-2.8v-14.8l-24.5 0.7 6.1-10.8z" class="p"/>
    <path d="m174.7 151.9c-4.1-6.9-5.3-16.2-6.3-24.2-0.5-3.8-1.3-9.1 1.3-11.5 2.8-2.5 3.1-6.4 6.4-8.4s7.7-2.1 10.8 0.1" class="d"/>
    <path d="m186.1 176.5a11.1 11.1 0 0 0 12-10.6c0.3-6.1 0.5-12.2 0.5-12.2s9.2-0.8 9.9-9.9 0.5-30.1 0.5-30.1a31.7 31.7 0 0 0-32 2l0.5 32-0.1 17.2c0 5.8 3 11.1 8.8 11.6z" class="p"/>
    <path d="m199.4 132.6c-1.6-1.9-4.1-2.7-6.2-1.4a5.3 5.3 0 0 0-1.8 6.6 7 7 0 0 0 4.5 3.4 3.5 3.5 0 0 1 2.7 3.8c-0.3 2.3-4.1 3.1-5.8 5-2.7 2.9-8.5 4.2-12.5 4.6s-3.4 0.5-5.6-2.7a12.2 12.2 0 0 1-2.2-7.4l-0.4-20.1a29 29 0 0 1 0.5-7.2 9.7 9.7 0 0 1 3.8-6c2.2-1.4 5-1.6 7.6-2.4 3.2-1 5.8-3.1 8.8-4.6s6.6-2.4 9.5-0.9c2.1 1.1 3.5 3.2 5.6 4.4 2.9 1.7 6.9 1.3 8.4 5.6a7.3 7.3 0 0 1-0.1 4.6c-2 5.9-9.3 8.2-14.5 5.7-0.1 1 0.9 3.2-0.2 6.4-0.3 1-0.5 2.5-2 2.6" class="d"/>
    <path d="m197.8 138.3s0 0.2-0.1 0.4a1.4 1.4 0 0 1-1 0.5 2.5 2.5 0 0 1-2.3-2.5 2.6 2.6 0 0 1 0.7-1.9 2.7 2.7 0 0 1 1.4-0.8c0.9-0.2 1.5 0.2 1.4 0.2s-0.6 0-1.3 0.2a2.3 2.3 0 0 0-1.6 2.3 2.1 2.1 0 0 0 1.7 2.1c0.7 0 1.1-0.5 1.1-0.4z" class="f"/>
    <path d="m175.4 117.4a10.7 10.7 0 1 0-14.6-7.2 2.7 2.7 0 0 1 0 1.9c-0.4 0.7-1.3 0.8-2 1-2.6 1-2.9 4.9-1 6.9s5 2.3 7.7 1.6c-0.6 2.3 1.5 4.8 3.9 5.1a6.7 6.7 0 0 0 6.1-3.2 15.3 15.3 0 0 0 2.1-6.9" class="d"/>
    <path d="m181.6 106.4a2.9 2.9 0 0 1 0 0.9 13.8 13.8 0 0 1-0.4 2.5 15.3 15.3 0 0 1-11.2 11.3 13.7 13.7 0 0 1-2.5 0.4 2.6 2.6 0 0 1-0.9 0c0-0.1 1.3-0.1 3.4-0.7a15.8 15.8 0 0 0 11-11.1c0.6-2.1 0.6-3.4 0.7-3.4z" class="b"/>
    <g class="j">
      <path d="m171.5 97.9s0.1-0.1 0.3-0.1a2.9 2.9 0 0 1 0.8-0.1 4.9 4.9 0 0 1 2.9 1.1 6.2 6.2 0 0 1 1.4 1.6 7.1 7.1 0 0 1 0.9 2.3 13.3 13.3 0 0 1-0.2 5.6 22.5 22.5 0 0 1-4.3 9 19 19 0 0 1-2 2.2 3.7 3.7 0 0 1-0.9 0.7c-0.1-0.1 1.1-1.1 2.6-3.2a24.2 24.2 0 0 0 4.1-8.9 13.2 13.2 0 0 0 0.3-5.3 7 7 0 0 0-0.8-2.2 6 6 0 0 0-1.3-1.5 4.9 4.9 0 0 0-2.7-1.1c-0.7-0.1-1.1 0-1.1-0.1z"/>
      <path d="m160.4 112.4s0.1-0.3 0.3-0.7a9 9 0 0 1 1.3-1.6 10.7 10.7 0 0 1 12.6-2 9.5 9.5 0 0 1 1.7 1.1c0.4 0.3 0.5 0.5 0.5 0.5s-0.8-0.6-2.4-1.3a11 11 0 0 0-12.2 2c-1.3 1.1-1.8 2-1.8 2z"/>
      <path d="m178.3 116c0.1-0.1 1.2 0.9 3.2 2.2a49.3 49.3 0 0 0 8.2 4.5 46.5 46.5 0 0 0 4.8 1.8 15.4 15.4 0 0 0 4 0.9 4.8 4.8 0 0 0 2.6-0.7c0.6-0.3 0.8-0.6 0.8-0.6s-0.1 0.4-0.7 0.8a4.6 4.6 0 0 1-2.7 0.9 14.4 14.4 0 0 1-4.2-0.8 43 43 0 0 1-13-6.4c-1-0.7-1.7-1.3-2.2-1.8a4 4 0 0 1-0.7-0.7z"/>
    </g>
    <path d="m175.6 104.5a4 4 0 0 1-0.1-1.3 10 10 0 0 1 0.6-3.4 6.9 6.9 0 0 1 3.4-3.8 5.5 5.5 0 0 1 3.1-0.5 5.1 5.1 0 0 1 3 1.5 6.6 6.6 0 0 1 1.7 2.9 8.1 8.1 0 0 1 0.2 3.1 12.3 12.3 0 0 1-1.7 4.9 27.2 27.2 0 0 1-2 2.8 5.7 5.7 0 0 1-0.8 1 7.1 7.1 0 0 1 0.7-1.1c0.5-0.7 1.1-1.6 1.8-2.9a12.6 12.6 0 0 0 1.6-4.7 7.7 7.7 0 0 0-0.2-2.9 6.4 6.4 0 0 0-1.6-2.6 4.8 4.8 0 0 0-2.7-1.3 5.1 5.1 0 0 0-2.8 0.5 6.6 6.6 0 0 0-3.3 3.5 11.1 11.1 0 0 0-0.8 3.3 12 12 0 0 1-0.1 1.2z" class="d"/>
    <path d="m279.4 83.5c-1.5-0.7-5.7 7.2-5.8 5s6.3-9.1 4.8-9.8c-2.1-0.9-6.4 7.5-6.8 8.1s-1.4 0.1-1-0.5c0.6-0.9 6.6-10 4.5-11-1.1-0.5-1.9 1.6-1.9 1.6s-4.9 9-5.9 8.5 1.8-5.8 2.8-7.6 0.6-2.9-0.5-2.7c-0.8 0.1-4.1 5.4-5.1 7.1s-3.6 6.6-4.3 3.2-2.4-5.9-3.4-6.2a1.1 1.1 0 0 0-1.1 1.8 12.7 12.7 0 0 1 1.3 3.3 8.5 8.5 0 0 1 0.3 2.8c-0.1 1.1-0.2 2-0.3 2.8l-1.9 4.1s-14.1 32.2-16.5 36.8-22 24.9-22 24.9l4.1 23.7 31.8-34.4 16.8-47.2 0.4-1.2s6-6.4 7.5-8.4c3.1-4.2 2.7-4.5 2.2-4.7z" class="p"/>
    <path d="m162.1 242.6s-10 22.6-12.1 45l-10.6 143.7 35.3 3.7 10.3-148.9s32.4 150.3 33.6 150.3 28.4-10.1 28.4-10.1l-31.9-182.9z" class="j"/>
    <path d="m200 289.7c0 0.2-7.2-1.4-16-3.6s-15.9-4-15.8-4.2 7.2 1.4 16 3.6 15.8 4 15.8 4.2z" class="d"/>
    <g class="k">
      <path d="m176.7 403.9s-0.1 0-0.4 0.1a9.1 9.1 0 0 1-1.1 0.1 20.8 20.8 0 0 1-3.9-0.2 39 39 0 0 1-5.7-1.4c-2.1-0.7-4.4-1.5-6.8-2.3a40 40 0 0 0-6.9-1.6 21 21 0 0 0-5.7 0 18.3 18.3 0 0 0-5.1 1.6 1.3 1.3 0 0 1 0.3-0.2 8.4 8.4 0 0 1 0.9-0.5 13.1 13.1 0 0 1 3.8-1.2 20.3 20.3 0 0 1 5.9-0.1 37.7 37.7 0 0 1 7 1.6l6.8 2.3a41.2 41.2 0 0 0 5.6 1.5 34 34 0 0 0 5.3 0.4z"/>
      <path d="m176.9 391.8a10.5 10.5 0 0 1-1.4 0 31.4 31.4 0 0 0-3.9 0.1c-3.3 0.2-7.7 1.3-12.7 2.3a47.6 47.6 0 0 1-7.1 0.9 24.6 24.6 0 0 1-5.8-0.4 17.1 17.1 0 0 1-3.8-1.2 10.5 10.5 0 0 1-0.9-0.5 1.1 1.1 0 0 1-0.3-0.2 26.1 26.1 0 0 0 5.1 1.5c3.2 0.6 7.9 0.4 12.8-0.7s9.5-2 12.8-2.2a24.3 24.3 0 0 1 3.9 0.1 6 6 0 0 1 1.4 0.2z"/>
      <path d="m239.8 377.8a1.1 1.1 0 0 1-0.2 0.3 5.7 5.7 0 0 1-0.7 0.8 8.9 8.9 0 0 1-3.4 2 14.7 14.7 0 0 1-5.8 0.6c-2.2-0.2-4.6-0.7-7-1.1a23.4 23.4 0 0 0-7-0.2 22.2 22.2 0 0 0-5.5 1.5 35.5 35.5 0 0 0-4.7 2.5s0.1-0.1 0.3-0.3 0.5-0.4 0.9-0.6a19 19 0 0 1 3.4-1.9 21.1 21.1 0 0 1 5.6-1.6 22.7 22.7 0 0 1 7.1 0.2c2.5 0.4 4.8 1 7 1.1a14.8 14.8 0 0 0 5.7-0.5 9.3 9.3 0 0 0 3.4-1.8c0.7-0.6 1-1 1-1z"/>
      <path d="m245.1 404.2a6.3 6.3 0 0 1-0.9 1.1 22.9 22.9 0 0 1-2.9 2.6 27.9 27.9 0 0 1-11.8 5.2 28.6 28.6 0 0 1-12.9-0.7 25.3 25.3 0 0 1-3.7-1.4 6.4 6.4 0 0 1-1.3-0.7 10.5 10.5 0 0 1 1.3 0.5 31.3 31.3 0 0 0 3.7 1.2 29.8 29.8 0 0 0 12.7 0.5 29.1 29.1 0 0 0 11.7-4.9c2.7-1.9 4-3.5 4.1-3.4z"/>
      <path d="m236.3 366.7h-1.4a10.5 10.5 0 0 0-3.7 0.9 20.2 20.2 0 0 0-4.7 3c-1.7 1.3-3.4 3-5.4 4.4a14.4 14.4 0 0 1-6.5 2.7 21.2 21.2 0 0 1-5.7 0c-1.6-0.2-2.9-0.5-3.8-0.7a7.9 7.9 0 0 1-1.4-0.3 6.5 6.5 0 0 1 1.4 0.2c0.9 0.1 2.2 0.3 3.8 0.5a22.1 22.1 0 0 0 5.6-0.1 14.3 14.3 0 0 0 6.3-2.6c2-1.4 3.7-3 5.4-4.3a19.2 19.2 0 0 1 4.9-2.9 9.7 9.7 0 0 1 3.8-0.7 6.4 6.4 0 0 1 1 0.1 1.1 1.1 0 0 1 0.4 0.1z"/>
      <path d="m179.9 361s-0.1 0.1-0.3 0.2a8.5 8.5 0 0 1-1 0.5 13.1 13.1 0 0 1-3.9 1 21.7 21.7 0 0 1-6-0.3 57 57 0 0 1-7.1-1.8 63.3 63.3 0 0 0-7-1.8 23.2 23.2 0 0 0-5.9-0.4 18.1 18.1 0 0 0-5.3 1.3 1.2 1.2 0 0 1 0.3-0.2 7.7 7.7 0 0 1 1-0.5 13.4 13.4 0 0 1 3.9-1 21.8 21.8 0 0 1 6 0.3 58.9 58.9 0 0 1 7.1 1.8 61.6 61.6 0 0 0 7 1.8 23 23 0 0 0 5.9 0.4 17.6 17.6 0 0 0 5.3-1.3z"/>
      <path d="m231.6 336.4s0 0.1-0.1 0.4a7.2 7.2 0 0 1-0.4 1 11.3 11.3 0 0 1-2.5 3.2 16.9 16.9 0 0 1-5.2 3.1 31.5 31.5 0 0 1-7.2 1.7c-2.6 0.3-5.1 0.6-7.3 0.9a47.6 47.6 0 0 0-5.9 1.1 10.1 10.1 0 0 0-3.5 1.8 13.8 13.8 0 0 1-1.1 1 1.3 1.3 0 0 1 0.2-0.3 8.6 8.6 0 0 1 0.8-0.8 9.6 9.6 0 0 1 3.5-2 40.9 40.9 0 0 1 5.9-1.2c2.2-0.4 4.7-0.6 7.3-1a33 33 0 0 0 7.1-1.6 17.3 17.3 0 0 0 5.1-3 13.5 13.5 0 0 0 3.3-4.3z"/>
      <path d="m145.4 333.5a19.9 19.9 0 0 0 5 2.3 15.7 15.7 0 0 0 5.9 0.5 18.7 18.7 0 0 0 6.9-2.4c2.3-1.2 4.4-2.6 6.6-3.5a15.9 15.9 0 0 1 5.9-1.5 9.1 9.1 0 0 1 4.1 0.7 6 6 0 0 1 1 0.6 1.2 1.2 0 0 1 0.3 0.2c0 0.1-0.5-0.3-1.4-0.6a9.5 9.5 0 0 0-4-0.5 16.3 16.3 0 0 0-5.7 1.6c-2.1 1-4.2 2.3-6.5 3.6a18.4 18.4 0 0 1-7.1 2.4 15.4 15.4 0 0 1-6.1-0.6 14.4 14.4 0 0 1-3.7-1.8 8 8 0 0 1-0.9-0.7c-0.2-0.2-0.3-0.3-0.3-0.3z"/>
      <path d="m225.9 307.2a7.1 7.1 0 0 1-0.8 1.3 22.3 22.3 0 0 1-2.7 3 23.1 23.1 0 0 1-11.9 5.7 28.7 28.7 0 0 1-7.3 0 23.9 23.9 0 0 0-5.9 0.1 10.3 10.3 0 0 0-3.7 1.3c-0.8 0.5-1.2 0.9-1.2 0.9s0.1-0.1 0.2-0.3a7.8 7.8 0 0 1 0.9-0.7 9.8 9.8 0 0 1 3.8-1.5 22.4 22.4 0 0 1 6-0.2 29.8 29.8 0 0 0 7.2-0.1 23.6 23.6 0 0 0 11.8-5.5 36.8 36.8 0 0 0 3.7-3.9z"/>
      <path d="m181.3 304.7a19.7 19.7 0 0 0-5.1-1 15 15 0 0 0-5.5 0.9c-1 0.4-2 0.9-3 1.4a6.4 6.4 0 0 1-1.8 0.5 4.4 4.4 0 0 1-1.9-0.2 16.8 16.8 0 0 1-3.2-1.8 13.8 13.8 0 0 0-3-1.4 14.7 14.7 0 0 0-5.5-0.7 19.7 19.7 0 0 0-5 1.1s0.1-0.1 0.3-0.2a7.3 7.3 0 0 1 1-0.4 13.8 13.8 0 0 1 3.8-0.9 14.7 14.7 0 0 1 5.7 0.6 13.8 13.8 0 0 1 3.1 1.4 17.5 17.5 0 0 0 3.1 1.8 4.5 4.5 0 0 0 3.3-0.2c1.1-0.4 2-1 3.1-1.3a14.7 14.7 0 0 1 5.7-0.8 13.8 13.8 0 0 1 3.8 0.7 8.3 8.3 0 0 1 1 0.4c0.1 0.2 0.2 0.2 0.2 0.2z"/>
      <path d="m225.9 301.1a8 8 0 0 1-1.1 1.1 31.2 31.2 0 0 1-3.2 2.7c-0.7 0.5-1.5 1.1-2.4 1.6-0.4 0.3-0.9 0.6-1.4 0.8l-1.5 0.8a34.9 34.9 0 0 1-7.2 2.6 33.9 33.9 0 0 1-7.6 0.9l-1.7 0c-0.6 0-1.1-0.1-1.6-0.1-1-0.1-2-0.3-2.9-0.4a31.6 31.6 0 0 1-4.1-1 9.8 9.8 0 0 1-1.4-0.5c0-0.1 2.1 0.6 5.6 1.2 0.9 0.1 1.8 0.3 2.9 0.4 0.5 0 1 0.1 1.6 0.1h1.7a35.4 35.4 0 0 0 7.5-0.9 36.6 36.6 0 0 0 7.1-2.5l1.5-0.8c0.5-0.3 0.9-0.5 1.4-0.8 0.9-0.5 1.7-1.1 2.4-1.5 1.4-1 2.6-1.9 3.3-2.5a8.9 8.9 0 0 1 1.2-0.9z"/>
      <path d="m219.9 272.5a3.7 3.7 0 0 1-0.6 0.4l-1.9 1c-1.7 0.9-4.1 2.1-7.2 3.5a41.9 41.9 0 0 1-11.5 3.2 27.5 27.5 0 0 1-7.1-0.1 40.5 40.5 0 0 1-7.3-2c-4.9-1.8-9.3-3.9-13.6-5a32.7 32.7 0 0 0-11.7-0.9 33.9 33.9 0 0 0-7.8 1.7c-0.9 0.3-1.6 0.6-2 0.8a5.2 5.2 0 0 1-0.7 0.3 4.5 4.5 0 0 1 0.6-0.3c0.4-0.2 1.1-0.5 2-0.9a31.8 31.8 0 0 1 7.8-1.9 32.7 32.7 0 0 1 11.9 0.8c4.4 1.1 8.9 3.2 13.7 5a41 41 0 0 0 7.2 2 27 27 0 0 0 6.9 0.2 42.8 42.8 0 0 0 11.4-3c3.1-1.3 5.6-2.5 7.3-3.3l2-0.9a5.1 5.1 0 0 1 0.7-0.3z"/>
      <path d="m217.8 257.6a10.2 10.2 0 0 0-1.9-1.7 12.1 12.1 0 0 0-6.7-1.8 14.1 14.1 0 0 0-4.7 0.8c-1.6 0.6-3.4 1.3-5.2 2.2a61.2 61.2 0 0 1-12.1 4.6 46 46 0 0 1-30-2.7c-0.8-0.4-1.3-0.7-1.7-0.9a3 3 0 0 1-0.6-0.3 3.3 3.3 0 0 1 0.6 0.2l1.8 0.8a53.8 53.8 0 0 0 6.7 2.3 47.9 47.9 0 0 0 10.4 1.5 47.1 47.1 0 0 0 12.7-1.3 63 63 0 0 0 12-4.5c1.8-0.8 3.6-1.6 5.2-2.1a13.8 13.8 0 0 1 4.9-0.8 12 12 0 0 1 6.8 2 7 7 0 0 1 1.4 1.4 3.8 3.8 0 0 1 0.4 0.5z"/>
    </g>
    <path d="m237.9 164.8-14.1-18.5-0.6 0.5-22.4 14.1-23.9 0.8s-16.8 0-23.1 13.2c-0.7 1.5-14.5 29-14.5 29l21.3 7.8 3.5-9.8 4.4 22.3-6.3 18.4 53.4 2.9-4.5-26.7 4-32z" class="g"/>
    <path d="m200.8 207.9a5.7 5.7 0 0 1 0 1.5 14.6 14.6 0 0 1-1 4.1 19.9 19.9 0 0 1-9.3 10 27.6 27.6 0 0 1-13.5 2.7 30 30 0 0 1-4.2-0.4 6.2 6.2 0 0 1-1.5-0.3c0-0.1 2.2 0.3 5.7 0.3a28.8 28.8 0 0 0 13.2-2.8 20.1 20.1 0 0 0 9.2-9.6 23.7 23.7 0 0 0 1.4-5.5z" class="d"/>
    <path d="m168.7 225.2c-0.2 0-2.7-11.5-5.7-25.9s-5.3-26-5.1-26 2.7 11.6 5.7 25.9 5.3 26 5.1 26z" class="d"/>
    <g class="o">
      <path d="m175.2 226.2c-0.6-2.1 1.1-4.2 3-5.2s4.2-1.1 6.3-1.6a17.8 17.8 0 0 0 10.3-6.8c0.3-0.5 0.7-1 1.3-1a1.2 1.2 0 0 1 1.2 1 4.1 4.1 0 0 1 0.1 2c-1 5.1-5.1 7.3-9.4 9.5s-7.6 2.5-12.9 2.1"/>
    </g>
  </g>
</svg>