<svg xmlns="http://www.w3.org/2000/svg" viewBox="0 0 414.5 468.1">
<style>
  .a{
    fill:#e0e0e0;
  }
  .b{
    fill:#0057e6;
  }
  .c{
    opacity:0.8;
  }
  .d{
    fill:#fff;
  }
  .e{
    opacity:0.3;
  }
  .f{
    fill:#ffbe9d;
  }
  .g{
    fill:#eb996e;
  }
  .h{
    fill:#263238;
  }
  .i{
    fill:#455a64;
  }
</style>
  <g transform="matrix(-1 0 0 1 449.84 -16.237)">
    <g class="a">
      <path d="m124.9 359.3c-2-2.1-4.9-2.9-7.7-3.9a41.2 41.2 0 0 1-18.9-63.2l-0.4-2.1c-0.9-9.9-12.8-16.9-21.9-13s-12.2 17.4-5.7 24.9c-10.7 0.9-17.7 13-16.2 23.7s9.3 19.3 17.9 25.6a84.7 84.7 0 0 0 49.2 16.3 6.8 6.8 0 0 0 3.5-0.6c2.5-1.5 2.2-5.5 0.2-7.6z"/>
      <path d="m422.2 316.2c2.5-4 2.8-9.3 0.3-13.3s-7.9-5.9-12.2-4a8.9 8.9 0 0 0-15.2-9.4c-2.8 4.4-1.3 10.3 1.1 14.9s5.8 9 6.6 14.1-1.2 10.7-4.4 15-7.4 7.7-11.5 11l-0.8 0.8a28.7 28.7 0 0 0 23-2c3.9-2.2 7.6-5.8 7.8-10.2 0.1-2.5-0.8-5-0.4-7.5 0.5-3.5 3.7-6.2 5.7-9.3z"/>
      <path d="m207.2 479.7c-3.9-0.5-7.8-2.2-10.1-5.4-1.5-2-2.2-4.5-3.4-6.7s-3.5-4.1-6-3.9c-3.9 0.4-6.5 5.7-10.2 4.8-2.3-0.6-3.3-3.2-3.3-5.6s0.7-4.7 0.4-7c-0.8-6.5-9.2-9.7-15.4-7.7s-15.7 9.6-19.8 14.7c4.3 7.1 13.1 9.9 21.1 11.9q20.3 5.1 40.9 8.6c3.2 0.6 6.5 1.1 9.7 0.6s6.4-2.2 7.9-5.1c-3.8 0.6-7.8 1.2-11.7 0.7z"/>
      <path d="m362 429.6c-1-5.6-6.5-10.5-12-9.2 4.6-3.8 4.6-11.3 1-16s-9.9-6.7-15.8-6.5-11.6 2.3-17.1 4.5c2.7-3.4-1.2-8.8-5.6-9s-8.2 2.5-11.8 5-7.6 5.2-11.9 4.5l4 1.6c9.7 1.5 19.4 3.7 27.7 8.8s15.2 13.3 16.7 22.9-3.6 20.5-12.8 23.8a38.8 38.8 0 0 0 32.5-14.7c3.4-4.5 6-10.1 5-15.7z"/>
      <path d="m44.9 285.4a84.7 84.7 0 0 1-0.3-9.3 84.8 84.8 0 0 1 0.3-9.3 81.9 81.9 0 0 1 0.3 9.3 81.8 81.8 0 0 1-0.3 9.3z"/>
      <path d="m54.6 276a90.5 90.5 0 0 1-9.6 0.3 90.4 90.4 0 0 1-9.6-0.3 87.3 87.3 0 0 1 9.6-0.3 87.4 87.4 0 0 1 9.6 0.3z"/>
      <path d="m416.4 381.1a81.8 81.8 0 0 1-0.3-9.3 81.9 81.9 0 0 1 0.3-9.3 84.8 84.8 0 0 1 0.3 9.3 84.7 84.7 0 0 1-0.3 9.3z"/>
      <path d="m426.1 371.8a86 86 0 0 1-9.6 0.3 85.8 85.8 0 0 1-9.6-0.3 90.5 90.5 0 0 1 9.6-0.3 90.7 90.7 0 0 1 9.6 0.3z"/>
      <path d="m359.9 61.5a81.9 81.9 0 0 1-0.3-9.3 81.8 81.8 0 0 1 0.3-9.3 84.7 84.7 0 0 1 0.3 9.3 84.8 84.8 0 0 1-0.3 9.3z"/>
      <path d="m369.5 52.1a87.4 87.4 0 0 1-9.6 0.3 87.4 87.4 0 0 1-9.6-0.3 90.5 90.5 0 0 1 9.6-0.3 90.5 90.5 0 0 1 9.6 0.3z"/>
      <circle cx="55.7" cy="197.9" r="5.7"/>
      <path d="m282.8 440.2a5.7 5.7 0 1 1-5.7-5.7 5.7 5.7 0 0 1 5.7 5.7z"/>
      <path d="m335.7 332.7a5.7 5.7 0 1 1-5.7-5.7 5.7 5.7 0 0 1 5.7 5.7z"/>
      <path d="m166.6 49.3a5.7 5.7 0 1 1-5.7-5.7 5.7 5.7 0 0 1 5.7 5.7z"/>
      <circle cx="190.7" cy="386" r="2.9"/>
      <path d="m124.9 371.8a2.9 2.9 0 1 1-2.8-2.8 2.8 2.8 0 0 1 2.9 2.8z"/>
      <path d="m195.1 55a2.9 2.9 0 1 1-2.8-2.8 2.9 2.9 0 0 1 2.9 2.9z"/>
      <path d="m320.4 208.9a2.9 2.9 0 1 1-2.8-2.8 2.9 2.9 0 0 1 2.9 2.9z"/>
    </g>
    <path d="m47.1 46.5s-6.3 3.3 2.5 16.6 14.7 19.7 14.7 19.7 1.7 3.1-1 4-8.9 0.6-9.7 4.1 2.1 6.7 7.6 9 17.3 7.7 18.4 8.2 2.2 1.9 0.5 2.8-15.2 3.9-13.4 10.2 18.2 10.2 20 10.6 2.3 1.1 2.3 2.1-4.7 1.6-8.5 2.6-8 2.9-6.7 6.4 11.6 10.2 34.4 9.7l10.6-0.9 4.7-9.6c8.8-21.1 6.4-33 3.5-35.6s-6.1 0.7-8.4 3.9-4.6 7.3-5.5 7-1.3-1-1.1-2.9 2.6-18.5-2.6-22.5-13 7.5-14.4 8.8-2.3-0.3-2.4-1.4-0.8-14.3-0.9-20.2-1.8-9.8-5.6-10.4-5.6 5.4-7.4 7.6-4.1-0.5-4.1-0.5-3.8-7.8-13-20.9-14.5-8.3-14.5-8.3" fill="#ebebeb"/>
    <g class="a">
      <path d="m119.6 153.9c-6.7-9.6-18.2-27-28.2-41.9s-19-28.3-25.6-38l-7.8-11.4c-0.9-1.3-1.6-2.4-2.1-3.1-0.2-0.4-0.4-0.6-0.5-0.8s-0.2-0.3-0.2-0.3l0.2 0.3 0.6 0.8 2.2 3.1c1.9 2.7 4.6 6.6 7.9 11.4 6.7 9.7 15.8 23 25.8 37.9s21.5 32.2 28.1 41.9"/>
      <path d="m62.3 91.5a3.4 3.4 0 0 1 0.8 0.1c0.5 0.1 1.2 0.3 2 0.5 1.7 0.4 4.1 1 6.7 1.8l6.6 1.9 2 0.6a2.6 2.6 0 0 1 0.7 0.2 3.6 3.6 0 0 1-0.8-0.1c-0.5-0.1-1.2-0.2-2-0.5-1.7-0.4-4.1-1.1-6.6-1.8l-6.6-1.9-2-0.6a3.6 3.6 0 0 1-0.7-0.2z"/>
      <path d="m81.7 95.8c-0.1 0 1-4.9 2.4-11s2.6-10.9 2.7-10.9-1 4.9-2.4 11-2.6 10.9-2.7 10.9z"/>
      <path d="m96 119.3a3 3 0 0 1 0.4-0.7l1-1.9c0.9-1.6 2.1-3.7 3.3-6.2s2.3-4.7 3-6.3l0.9-1.9a3.5 3.5 0 0 1 0.4-0.7 3.2 3.2 0 0 1-0.2 0.7c-0.2 0.5-0.4 1.2-0.8 2-0.7 1.7-1.7 3.9-3 6.4s-2.5 4.6-3.4 6.2c-0.5 0.8-0.9 1.4-1.1 1.8a4 4 0 0 1-0.3 0.6z"/>
      <path d="m77.6 119.3a2.9 2.9 0 0 1 0.7-0.1l2-0.1c1.7 0 4-0.1 6.5-0.1s4.8 0 6.5 0h2a3.1 3.1 0 0 1 0.7 0 3 3 0 0 1-0.7 0.1l-2 0.1c-1.7 0.1-4 0.1-6.5 0.1s-4.8 0-6.5 0h-2a3.4 3.4 0 0 1-0.7 0z"/>
      <path d="m87.6 141.6a5 5 0 0 1 0.9-0.1l2.5-0.1c2.1-0.1 5.1-0.2 8.3-0.2s6.2-0.1 8.3-0.1h2.5a6.1 6.1 0 0 1 0.9 0 3.7 3.7 0 0 1-0.9 0.1l-2.5 0.1c-2.1 0.1-5.1 0.2-8.3 0.2s-6.2 0.1-8.3 0.1h-2.5a5.2 5.2 0 0 1-0.9 0z"/>
      <path d="m110.6 141a5.7 5.7 0 0 1 0.4-0.9l1.2-2.4c1.1-2 2.5-4.8 4-8s2.8-6 3.7-8.1l1.1-2.5a6.2 6.2 0 0 1 0.4-0.9 5.8 5.8 0 0 1-0.3 0.9c-0.2 0.6-0.6 1.5-1 2.5-0.9 2.1-2.1 5-3.6 8.2s-3 5.9-4.1 7.9c-0.6 1-1 1.8-1.3 2.4a5.6 5.6 0 0 1-0.5 0.9z"/>
    </g>
    <path d="m390.5 237c-11.3-9.8-12.3-25.9-10.3-40.1 0.3-2.4 0.3-4.9 1.7-6.9s4.1-3.1 6.2-1.9c1.7 1 2.2 3.2 3 5a14 14 0 0 0 5 5.9c1.4 1 3.3 1.6 4.8 1 2.2-0.9 2.7-3.7 3-6.1q0.7-6.6 1.3-13.2a22 22 0 0 1 1.5-6.9 7.4 7.4 0 0 1 5.1-4.4c2.3-0.4 5 1.2 5.2 3.6a20.8 20.8 0 0 1-0.2 2.9 2.5 2.5 0 0 0 1.2 2.5 2.9 2.9 0 0 0 2.7-0.8 31.5 31.5 0 0 0 6.6-7.9 43.7 43.7 0 0 1 6.2-8.2c2.5-2.4 5.8-4.1 9.2-3.9s6.8 2.7 7.3 6-1.8 6.6-4.2 9.1a52.8 52.8 0 0 1-12.1 9.3 4.4 4.4 0 0 0-2 1.8c-0.7 1.5 0.6 3.2 2.1 3.9 1.7 0.8 3.6 0.8 5.4 1.2s3.7 1.4 4.2 3.3c0.7 2.5-1.6 4.8-3.7 6.3a45.3 45.3 0 0 1-14.2 6.3 15.3 15.3 0 0 0-5.2 1.9c-1.5 1.1-2.6 3.1-1.9 4.9s2.8 2.5 4.6 2.4a33.5 33.5 0 0 0 5.4-1.4c3.4-0.9 7.5-0.2 9.3 2.8a7.5 7.5 0 0 1 0.1 6.7 17.4 17.4 0 0 1-4.2 5.5 45.8 45.8 0 0 1-20.8 11.5c-7.8 1.8-14.8 1.8-22-1.8" fill="#f5f5f5"/>
    <g class="a">
      <path d="m395.1 228.5a211.4 211.4 0 0 1 10.9-21.9l3.1-5.6c1-1.8 2.1-3.6 3.2-5.4a107.6 107.6 0 0 1 7-9.5c2.4-2.9 4.7-5.6 6.9-8.1s4.3-4.7 6.3-6.7a85.1 85.1 0 0 1 10.2-8.7c1.3-0.9 2.3-1.6 3-2.1l0.8-0.5 0.3-0.2a1.3 1.3 0 0 1-0.2 0.2l-0.8 0.6c-0.7 0.5-1.7 1.2-2.9 2.1a90.1 90.1 0 0 0-10.1 8.8c-2 2-4.1 4.3-6.3 6.8s-4.5 5.2-6.9 8.1a106.4 106.4 0 0 0-6.9 9.5c-1.1 1.7-2.1 3.5-3.1 5.3l-3.1 5.6a219.3 219.3 0 0 0-10.8 21.8"/>
      <path d="m412.4 195.7a4.9 4.9 0 0 1-0.1-1c-0.1-0.7-0.1-1.6-0.1-2.8-0.1-2.4-0.1-5.7-0.1-9.3s0-6.9-0.1-9.3c-0.1-1.2-0.1-2.1-0.2-2.8a4.9 4.9 0 0 1 0-1 4.5 4.5 0 0 1 0.2 1c0.1 0.7 0.2 1.6 0.3 2.8 0.2 2.4 0.3 5.7 0.3 9.3s0 6.8-0.1 9.3v2.8a5.3 5.3 0 0 1-0.1 1z"/>
      <path d="m443.4 193.3a6.8 6.8 0 0 1-1.2 0h-3.3c-2.8 0-6.7 0.1-11 0.5s-8.1 0.8-10.9 1.3c-1.4 0.2-2.5 0.4-3.3 0.5a6.6 6.6 0 0 1-1.2 0.2 5.9 5.9 0 0 1 1.2-0.3c0.8-0.2 1.9-0.4 3.3-0.7 2.8-0.5 6.6-1 10.9-1.4a107.3 107.3 0 0 1 11-0.3c1.4 0 2.6 0.1 3.3 0.2a6 6 0 0 1 1.2 0.1z"/>
      <path d="m395.6 228a1.8 1.8 0 0 1-0.2-0.4c-0.1-0.3-0.2-0.7-0.4-1.1-0.3-1-0.8-2.5-1.3-4.3-1.1-3.6-2.4-8.7-3.8-14.3s-2.7-10.7-3.7-14.3c-0.5-1.8-0.9-3.2-1.2-4.3-0.1-0.5-0.2-0.9-0.3-1.2a2 2 0 0 1-0.1-0.4 1.3 1.3 0 0 1 0.2 0.4l0.4 1.2c0.4 1 0.8 2.5 1.4 4.3 1.1 3.6 2.4 8.7 3.8 14.3s2.7 10.7 3.7 14.3c0.5 1.8 0.9 3.2 1.2 4.3l0.3 1.2a1.2 1.2 0 0 1 0.1 0.4z"/>
      <path d="m437.3 219.3a2.5 2.5 0 0 1-0.4 0.1l-1.2 0.3-4.5 0.9c-3.8 0.8-9 1.9-14.7 3.2s-10.9 2.4-14.7 3.1c-1.9 0.4-3.4 0.6-4.5 0.8l-1.2 0.2a1.2 1.2 0 0 1-0.4 0l0.4-0.1 1.2-0.3 4.5-0.9c3.8-0.8 9-1.9 14.7-3.2s11-2.4 14.7-3.1c1.9-0.4 3.4-0.6 4.5-0.8l1.2-0.2a1.2 1.2 0 0 1 0.4 0z"/>
    </g>
    <path d="m203.7 80.3c-37.1 2.7-77.5 7.6-107.2 19l9.4 63.4s57.5-20.6 104.3-19.2z" class="b"/>
    <g class="c">
      <path d="m203.7 80.3c-37.1 2.7-77.5 7.6-107.2 19l9.4 63.4s57.5-20.6 104.3-19.2z" class="d"/>
    </g>
    <g class="b">
      <path d="m201 135.2-0.4 0.1-1 0.2-4 0.5c-1.8 0.2-3.9 0.5-6.4 0.8s-5.3 0.7-8.4 1.2c-12.5 1.9-29.7 5.1-48.4 10-6.5 1.7-12.8 3.4-18.5 5.2l-0.3 0.1v-0.3c-2-14.5-3.9-27.1-5.4-36-0.8-4.4-1.4-8-1.8-10.4-0.2-1.2-0.4-2.1-0.5-2.8 0-0.3-0.1-0.5-0.1-0.7a0.8 0.8 0 0 1 0-0.2 1 1 0 0 1 0.1 0.2c0 0.2 0.1 0.4 0.2 0.7 0.1 0.7 0.3 1.6 0.6 2.8 0.5 2.4 1.2 5.9 1.9 10.4 1.6 8.9 3.6 21.4 5.6 36l-0.3-0.2c5.8-1.8 12-3.6 18.5-5.2a472.3 472.3 0 0 1 48.5-9.8c3.1-0.5 6-0.8 8.5-1.1s4.7-0.6 6.4-0.7l4.1-0.4 1.1-0.1a1.4 1.4 0 0 1 0.3-0.1z"/>
      <path d="m202.3 119.8s-0.1-0.4-0.4-1.3a13.3 13.3 0 0 0-1.9-3.3 16.6 16.6 0 0 0-4.5-3.9c-0.5-0.3-1-0.6-1.6-0.8a14.3 14.3 0 0 0-1.8-0.6 9.9 9.9 0 0 0-4.1-0.4 8.6 8.6 0 0 0-4.2 1.7 14.2 14.2 0 0 0-3.4 3.7c-2 2.9-3.2 6.4-4.7 10.1a12.5 12.5 0 0 1-3.5 5 6.6 6.6 0 0 1-2.9 1.4 5.9 5.9 0 0 1-3.3-0.4c-4.2-1.7-6.1-6.5-10.4-8a8.4 8.4 0 0 0-6.3 0.5 8.1 8.1 0 0 0-2.5 1.9 13 13 0 0 0-1.7 2.7c-0.9 1.9-1.7 4-3.3 5.5a4.9 4.9 0 0 1-2.9 1.3 5.8 5.8 0 0 1-3-0.6 10.9 10.9 0 0 1-4.1-4.1 36 36 0 0 1-2.2-5 23.5 23.5 0 0 0-2.2-4.5 9 9 0 0 0-3.3-3.1 8.6 8.6 0 0 0-7.6-0.2 12.9 12.9 0 0 0-4.8 3.5 9.4 9.4 0 0 0-1.8 3.3c-0.3 0.8-0.3 1.3-0.3 1.3a5.7 5.7 0 0 1 0.2-1.3 9 9 0 0 1 1.8-3.4 13 13 0 0 1 4.9-3.6 8.9 8.9 0 0 1 7.9 0.2 9.3 9.3 0 0 1 3.5 3.2 23.7 23.7 0 0 1 2.2 4.6 36.1 36.1 0 0 0 2.2 4.9 10.3 10.3 0 0 0 4 3.9 5.3 5.3 0 0 0 2.8 0.6 4.5 4.5 0 0 0 2.6-1.2c1.5-1.3 2.2-3.4 3.2-5.3a13.5 13.5 0 0 1 1.7-2.8 8.6 8.6 0 0 1 2.7-2.1 8.9 8.9 0 0 1 6.7-0.5c2.3 0.8 3.9 2.5 5.4 4.1a15.1 15.1 0 0 0 5 4 5.4 5.4 0 0 0 3 0.4 6.1 6.1 0 0 0 2.7-1.3 12.2 12.2 0 0 0 3.4-4.8c1.5-3.6 2.8-7.2 4.8-10.1a14.2 14.2 0 0 1 3.5-3.7 9.1 9.1 0 0 1 4.4-1.7 10.3 10.3 0 0 1 4.3 0.5 14.4 14.4 0 0 1 1.9 0.7 17.2 17.2 0 0 1 6.1 5 12.8 12.8 0 0 1 1.9 3.4 9.3 9.3 0 0 1 0.3 1 2.1 2.1 0 0 1 0 0.2z"/>
      <path d="m104.1 111.5c0 0.1-0.5 0.4-1.1 0.5s-1.1 0.1-1.2 0 0.5-0.3 1.1-0.5 1.1-0.1 1.2 0z"/>
      <path d="m105.7 123c0.1 0.1-0.3 0.4-0.8 0.7s-1 0.3-1 0.2 0.3-0.4 0.8-0.7 0.9-0.3 1-0.2z"/>
      <path d="m107.7 135.7c0 0.1-0.3 0.4-0.8 0.6s-1 0.2-1 0.1 0.3-0.4 0.8-0.6 1-0.2 1-0.1z"/>
      <path d="m110.2 148.1c0 0.1-0.4 0.4-1 0.6s-1.1 0.2-1.1 0.1 0.4-0.4 0.9-0.6 1.1-0.2 1.2-0.1z"/>
      <path d="m180.1 88.4a5.2 5.2 0 0 1 1.2-0.3c0.8-0.1 2-0.3 3.5-0.5 3-0.4 7.2-1 12.3-1.6h0.2v0.2c0.4 4.3 0.9 9.2 1.3 14.4v0.5h-0.2l-16.6 2h-0.2v-0.2c-0.5-4.3-0.8-8-1.1-10.6-0.1-1.2-0.2-2.2-0.3-2.9a8.4 8.4 0 0 1-0.1-1 9 9 0 0 1 0.2 1.1c0.1 0.7 0.2 1.7 0.4 3 0.3 2.6 0.8 6.2 1.3 10.5l-0.2-0.2 16.6-2.1-0.2 0.3v-0.2c-0.5-5.2-0.9-10.1-1.3-14.4l0.3 0.2z"/>
      <path d="m195.5 90.9c0 0.2-2.8 0.2-6.3 0.5s-6.3 1-6.3 0.8a30.8 30.8 0 0 1 12.6-1.3z"/>
      <path d="m195.7 94.6c0 0.2-2.7 0.3-5.9 0.6s-5.9 0.7-5.9 0.6a23.2 23.2 0 0 1 5.9-1.1 22.8 22.8 0 0 1 6 0z"/>
      <path d="m191.7 97.8a10.9 10.9 0 0 1-3.4 0.7 11.7 11.7 0 0 1-3.4 0.2 11.3 11.3 0 0 1 3.4-0.7 11.7 11.7 0 0 1 3.4-0.2z"/>
      <path d="m384.4 99c-36.3-11.1-66.9-20.5-108-20.2l-6.3 64.6c42.7 3.8 57 6.6 96.4 20.9z"/>
    </g>
    <g class="c">
      <path d="m384.4 99c-36.3-11.1-66.9-20.5-108-20.2l-6.3 64.6c42.7 3.8 57 6.6 96.4 20.9z" class="d"/>
    </g>
    <path d="m302.3 110.1 1.6-13.7a16.1 16.1 0 0 0-11.2 3.1 16.8 16.8 0 0 0-6.9 13.5 19.7 19.7 0 0 0 0.1 2l16-1.8z" class="b"/>
    <path d="m318.8 107.8a15.5 15.5 0 0 0-11.4-10.8l-0.5-0.1-0.3-0.1-0.9-0.1h-0.1l-1.6 13.7-0.4 3.2 15.1 5.5a17.3 17.3 0 0 0 0.8-3.5 18.9 18.9 0 0 0-0.7-7.7z" class="b"/>
    <g class="e">
      <path d="m318.8 107.8a15.5 15.5 0 0 0-11.4-10.8l-0.5-0.1-0.3-0.1-0.9-0.1h-0.1l-1.6 13.7-0.4 3.2 15.1 5.5a17.3 17.3 0 0 0 0.8-3.5 18.9 18.9 0 0 0-0.7-7.7z"/>
    </g>
    <g class="b">
      <path d="m302.5 115.1-16 1.8c0.7 7.8 6.3 14.2 13.9 15.1s14.7-4 17.2-11.4l-15.1-5.5"/>
      <path d="m370.4 111.3a8.6 8.6 0 0 1-1.4-0.6c-0.9-0.4-2.2-1-3.8-1.6a116.4 116.4 0 0 0-12.9-4.5 117.6 117.6 0 0 0-13.3-3c-1.7-0.3-3.1-0.5-4.1-0.6a7.8 7.8 0 0 1-1.5-0.3 9.8 9.8 0 0 1 1.5 0.1c1 0.1 2.4 0.2 4.1 0.5a96.3 96.3 0 0 1 26.3 7.5c1.6 0.7 2.9 1.3 3.8 1.8a9 9 0 0 1 1.3 0.8z"/>
      <path d="m369.3 118a9.5 9.5 0 0 1-1.4-0.6c-0.9-0.4-2.2-1-3.8-1.6a113.4 113.4 0 0 0-26.2-7.5c-1.7-0.3-3.1-0.5-4.1-0.6a10.4 10.4 0 0 1-1.5-0.3 7.4 7.4 0 0 1 1.5 0.1c1 0.1 2.4 0.2 4.1 0.4a96.6 96.6 0 0 1 13.4 2.8 98.3 98.3 0 0 1 12.9 4.7c1.6 0.7 2.9 1.3 3.8 1.8a7.4 7.4 0 0 1 1.3 0.8z"/>
      <path d="m368.2 124.8a8.6 8.6 0 0 1-1.4-0.6c-0.9-0.4-2.2-1-3.8-1.6a118.5 118.5 0 0 0-12.9-4.5 119.8 119.8 0 0 0-13.3-3c-1.7-0.3-3.1-0.5-4.1-0.6a7.8 7.8 0 0 1-1.5-0.3 9.8 9.8 0 0 1 1.5 0.1c1 0.1 2.4 0.2 4.1 0.5a96.6 96.6 0 0 1 13.4 2.8 95.4 95.4 0 0 1 12.9 4.7c1.6 0.7 2.9 1.3 3.8 1.8a7.9 7.9 0 0 1 1.3 0.8z"/>
      <path d="m366 131.5a9.8 9.8 0 0 1-1.4-0.6c-0.9-0.4-2.1-1-3.7-1.6a107.9 107.9 0 0 0-25.4-7.5c-1.7-0.3-3-0.5-4-0.6a7.5 7.5 0 0 1-1.5-0.3 8 8 0 0 1 1.5 0.1c1 0.1 2.3 0.2 4 0.5a91.3 91.3 0 0 1 13.1 2.8 93.3 93.3 0 0 1 12.5 4.7c1.6 0.7 2.8 1.3 3.6 1.8a7.8 7.8 0 0 1 1.3 0.7z"/>
      <path d="m361.2 136.9a7.6 7.6 0 0 1-1.2-0.5l-3.3-1.5a80.6 80.6 0 0 0-22.8-6.5l-3.6-0.5a8.1 8.1 0 0 1-1.3-0.2 5.7 5.7 0 0 1 1.3 0c0.9 0 2.1 0.2 3.6 0.3a69.5 69.5 0 0 1 22.9 6.5c1.4 0.7 2.5 1.2 3.3 1.6a6.3 6.3 0 0 1 1.1 0.7z"/>
      <path d="m345.1 137.7a17 17 0 0 1-2.6-0.5c-1.6-0.4-3.8-0.8-6.2-1.3s-4.7-0.7-6.3-1a15.4 15.4 0 0 1-2.6-0.4 12.2 12.2 0 0 1 2.6 0.1c1.6 0.1 3.9 0.4 6.3 0.8a56.5 56.5 0 0 1 6.2 1.4 11.6 11.6 0 0 1 2.5 0.9z"/>
      <path d="m282.7 86.4 0.8 0 2.5-0.1c2.2 0 5.4 0 9.5 0.2a151.6 151.6 0 0 1 33.3 6l0.2 0.1v0.2c-2.5 14.3-5.5 31.4-8.7 49.6-0.1 0.7-0.3 1.5-0.4 2.2v0.3l-0.3-0.1a216.3 216.3 0 0 0-22.2-4.6c-7.2-1.1-14-1.9-20.4-2.3h-0.2v-0.2c1.8-15.3 3.2-28.1 4.3-37.1 0.5-4.5 0.9-8 1.2-10.4 0.1-1.2 0.3-2.1 0.3-2.7 0-0.3 0.1-0.5 0.1-0.7s0-0.2 0-0.2a1.2 1.2 0 0 1 0 0.3c0 0.2 0 0.4-0.1 0.7-0.1 0.7-0.2 1.6-0.3 2.8-0.2 2.4-0.6 6-1.1 10.5-1 9-2.4 21.8-4 37l-0.2-0.2c6.4 0.4 13.3 1.2 20.4 2.2a217.2 217.2 0 0 1 22.3 4.6l-0.3 0.2c0.1-0.7 0.3-1.5 0.4-2.2 3.2-18.2 6.2-35.2 8.7-49.6l0.2 0.3a154.7 154.7 0 0 0-33.2-6.1c-4.1-0.3-7.3-0.3-9.4-0.3h-3.4z"/>
      <polyline points="243 218.4 278.4 226.3 283.9 218.4 283 208.4 277.6 203.4 259.1 203.4 241.7 219"/>
    </g>
    <g class="e">
      <polyline points="243 218.4 278.4 226.3 283.9 218.4 283 208.4 277.6 203.4 259.1 203.4 241.7 219"/>
    </g>
    <path d="m297 145.5 44.7-6 7-2s16.1-3.5 17.6-4.1c1.7-0.6 2.5 0.1 2.6 0.7 0.3 1-0.7 2.2-2.2 2.8-0.5 0.2-8.7 3-8.7 3a20 20 0 0 1 2.8 0.8c2 0.7 3.8 3.2 4.8 6.1s1 3.8-0.2 4.3a1.6 1.6 0 0 1-1.3-0.2 3.1 3.1 0 0 1-1.3-1.7c-1.6-4.7-4.5-5.1-4.5-5.1l-0.9 0.3s3 2.1 3 4.7a2.9 2.9 0 0 1-0.2 1.1 3.9 3.9 0 0 1-4.3 5.1c-0.6-0.1-1.3-0.5-1.4-1.1a2 2 0 0 1 0.2-1 4.6 4.6 0 0 0 0.2-0.5l-2.7 0.4s-6.1 0.5-8.7 1l-41.8 12.6a10.8 10.8 0 0 1-13.6-7.4 10.8 10.8 0 0 1 9-13.7z" class="f"/>
    <path d="m342.7 140.7a2.3 2.3 0 0 0 1.9 1.8c0.9 0.2 1.9 0.1 2.8 0.2 2.8 0.4 5 2.9 7.7 3.2 0.4 0 0.9 0 1-0.4s-0.2-0.7-0.5-0.9l-7-6.2" class="f"/>
    <g class="g">
      <path d="m348.8 138.3a4.8 4.8 0 0 1 0.8 0.6c0.5 0.4 1.2 1 2.1 1.8l3.1 2.7 0.9 0.8c0.3 0.3 0.7 0.5 0.8 1.1a0.8 0.8 0 0 1-0.5 0.7 1.6 1.6 0 0 1-0.7 0.1 5.6 5.6 0 0 1-1.3-0.3 35.7 35.7 0 0 1-4.5-2.3 6.8 6.8 0 0 0-2-0.7c-0.6-0.1-1.3-0.1-1.9-0.1a3.3 3.3 0 0 1-2.5-1.1c-0.4-0.6-0.3-1-0.3-1a2.9 2.9 0 0 0 0.5 0.8 3.1 3.1 0 0 0 2.4 0.9 18.7 18.7 0 0 1 1.9 0.1 7.4 7.4 0 0 1 2.1 0.7 40.5 40.5 0 0 0 4.4 2.2 5.9 5.9 0 0 0 1.2 0.2c0.4 0 0.7-0.1 0.7-0.3s-0.3-0.5-0.6-0.8l-0.9-0.8-3-2.7-2-1.9c-0.5-0.4-0.7-0.7-0.7-0.7z"/>
      <path d="m357.4 144.4a3.8 3.8 0 0 1 1.8 0 2.9 2.9 0 0 1 1.5 1 7.4 7.4 0 0 1 1.1 2.1 12.3 12.3 0 0 0 1 2.2 3.9 3.9 0 0 0 1.5 1.4 1.5 1.5 0 0 0 1.4 0c0.3-0.1 0.4-0.3 0.4-0.3s-0.2 0.1-0.4 0.2a1.5 1.5 0 0 1-1.2-0.1 3.9 3.9 0 0 1-1.3-1.4 12.7 12.7 0 0 1-1-2.2 7.4 7.4 0 0 0-1.2-2.2 3.1 3.1 0 0 0-1.7-1.1 2.9 2.9 0 0 0-1.4 0c-0.3 0.2-0.4 0.3-0.4 0.3z"/>
      <path d="m367.4 136.7a8.9 8.9 0 0 0-1.6 0.6l-3.9 1.4-3.9 1.4a8.3 8.3 0 0 0-1.6 0.6 8 8 0 0 0 1.7-0.4c1-0.3 2.4-0.7 3.9-1.3s2.9-1.1 3.9-1.5a7.5 7.5 0 0 0 1.5-0.8z"/>
      <path d="m356.2 146.9s0.1 0.2 0.4 0.4a1.6 1.6 0 0 1 0.5 1.2 0.9 0.9 0 0 1-0.5 0.7 4.8 4.8 0 0 1-1.1 0.3 1.9 1.9 0 0 0-1.2 0.6 1.7 1.7 0 0 0-0.2 1.5 1.9 1.9 0 0 0 1 1.1 2.3 2.3 0 0 0 1.3 0.2 7.6 7.6 0 0 0 2.1-0.8 4.4 4.4 0 0 0 1.2-0.9 1.1 1.1 0 0 0 0.3-0.5s-0.1 0.2-0.4 0.4a5 5 0 0 1-1.2 0.8 7.9 7.9 0 0 1-2 0.7 1.8 1.8 0 0 1-2-1.1 1.3 1.3 0 0 1 0.1-1.2 1.6 1.6 0 0 1 1-0.5 4.9 4.9 0 0 0 1.1-0.4 1.1 1.1 0 0 0 0.6-0.9 1.7 1.7 0 0 0-0.6-1.4c-0.2-0.2-0.4-0.3-0.4-0.3z"/>
      <path d="m355.2 152.5s-0.2 0-0.4 0.2a1.5 1.5 0 0 0-0.5 1.2 2 2 0 0 0 1.2 1.6 3.3 3.3 0 0 0 2.4 0 3.9 3.9 0 0 0 1.9-1.5 3.8 3.8 0 0 0 0.7-1.9 3.4 3.4 0 0 0-0.1-1.3 1.1 1.1 0 0 0-0.2-0.4 6.9 6.9 0 0 1 0.1 1.7 3.7 3.7 0 0 1-2.4 3 3 3 0 0 1-2.2 0 1.8 1.8 0 0 1-1.1-1.3 1.4 1.4 0 0 1 0.4-1.1c0.2-0.1 0.4-0.2 0.4-0.2z"/>
      <path d="m347.8 148.8s0-0.3-0.3-0.8a3.3 3.3 0 0 0-1.6-1.3v0.3a8 8 0 0 0 1-0.6 7.4 7.4 0 0 0 2.8-2.9 19 19 0 0 1-3 2.6c-0.3 0.2-0.7 0.4-1 0.6l-0.3 0.2 0.4 0.1a3.4 3.4 0 0 1 1.6 1.1c0.4 0.4 0.5 0.7 0.5 0.7z"/>
      <path d="m361.7 144c-0.1-0.1-0.5 0.5-0.6 1.3s0.3 1.4 0.4 1.4-0.1-0.6-0.1-1.3 0.3-1.2 0.2-1.3z"/>
    </g>
    <path d="m153.2 159.6s-6.5-10.6-7.7-11.5-11.5-4.7-12.4-4.4-13.4 2.4-12 3.9 10.2-0.1 10.2-0.1l1.2 0.6s-7.5 1.2-9.1 2.1-1 2.6 0.4 2.5 7.9-1.4 8.3-1.1-7.1 1.8-7.9 2.2c-1.1 0.7-1.2 2.6 0.2 2.5 0.8-0.1 7.9-1.9 7.9-1.9a61.1 61.1 0 0 0-6.1 2.7c-0.8 0.8-0.2 2 1 1.8 0.8-0.2 4.8-2.1 5.9-2.3 0 0 1 0.3 2 2.4 0.4 1 2.5 7.2 6.2 7.1 3.3-0.1 6.5 2.6 6.5 2.6z" class="f"/>
    <path d="m121.2 147.6a5.7 5.7 0 0 0 2.3 0.6 13 13 0 0 0 2.6 0.1c1-0.1 2-0.2 3.1-0.4l2.3-0.3h-0.1a32.7 32.7 0 0 0 5.4 1.7 34.4 34.4 0 0 0-5.2-2.2h-0.1l-2.3 0.3-3.1 0.5a16.2 16.2 0 0 1-2.5 0c-1.4-0.1-2.3-0.3-2.3-0.2z" class="g"/>
    <path d="m148.3 158.3a2.5 2.5 0 0 1-2.9 0c-0.9-0.5-1.6-1.4-2.4-2-2.5-1.8-6.2-1.4-8.7-3.3-0.3-0.3-0.7-0.7-0.5-1.1s0.7-0.4 1.1-0.4l10.3 0.2" class="f"/>
    <path d="m145.2 151.8a4.7 4.7 0 0 0-1.1-0.1c-0.7 0-1.8-0.1-3-0.2l-4.5-0.2h-1.3a2 2 0 0 0-1.5 0.3 0.9 0.9 0 0 0-0.2 1 1.8 1.8 0 0 0 0.5 0.7 6.9 6.9 0 0 0 1.3 0.8 39.7 39.7 0 0 0 5.4 1.5 7.9 7.9 0 0 1 2.1 1c0.6 0.4 1.1 0.9 1.6 1.3a3.7 3.7 0 0 0 2.9 1c0.8-0.1 1-0.6 1-0.6a3.2 3.2 0 0 1-1 0.3 3.6 3.6 0 0 1-2.6-1.1c-0.5-0.4-1-0.9-1.6-1.4a8 8 0 0 0-2.2-1.1 45.3 45.3 0 0 1-5.2-1.5 6.6 6.6 0 0 1-1.2-0.7c-0.3-0.3-0.5-0.6-0.3-0.8s0.7-0.2 1.1-0.2h5.8 3a4.2 4.2 0 0 0 1.1-0.1z" class="g"/>
    <path d="m204 393.8-2.4 26.2-7.9 20.2a2.7 2.7 0 0 0 1.7 3.6 2.7 2.7 0 0 0 2.4-0.4c4.4-3.4 20.7-15.9 20.7-17.8 0.1-2.2 4.4-27.5 4.4-27.5z" class="b"/>
    <g style="fill:#fff;opacity:0.6">
      <path d="m195.5 443.8 23.4-20-0.1 1.1a4.1 4.1 0 0 1-1.3 2.5c-1.9 1.8-7.2 6.5-19.5 16a2.7 2.7 0 0 1-2.5 0.4z"/>
      <path d="m214.4 414.7a1.6 1.6 0 0 0-0.7 2.1 1.6 1.6 0 0 0 2 0.7 1.7 1.7 0 0 0 0.7-2.2 1.6 1.6 0 0 0-2.2-0.5"/>
    </g>
    <g class="h">
      <path d="m202.8 433c-0.2 0.1-0.6-1.4-2.1-2.3a8.3 8.3 0 0 0-2.9-0.9c0-0.1 0.3-0.2 1-0.2a4.2 4.2 0 0 1 2.3 0.7 4.1 4.1 0 0 1 1.6 1.8c0.2 0.6 0.2 1 0.1 1z"/>
      <path d="m200.5 436.3c-0.1 0.1-0.9-0.8-2.2-1.4a22.7 22.7 0 0 0-2.5-0.6 3 3 0 0 1 2.7 0.1c1.5 0.6 2.1 1.9 2 1.9z"/>
      <path d="m206.7 428.9a26.8 26.8 0 0 0-3.2-2.4c-1.9-1-3.8-1.2-3.8-1.3a6 6 0 0 1 4.1 0.8 6 6 0 0 1 3 2.9z"/>
      <path d="m208.1 421c-0.1 0.2-1.5-0.6-3.3-0.9s-3.4 0-3.4-0.2a6.7 6.7 0 0 1 6.8 1.1z"/>
      <path d="m209 413.3a13 13 0 0 0-3.4-1 13.5 13.5 0 0 0-3.6 0.5c0-0.1 0.3-0.3 0.9-0.6a5.7 5.7 0 0 1 2.7-0.4 5.9 5.9 0 0 1 2.6 0.8c0.6 0.4 0.9 0.7 0.8 0.8z"/>
      <path d="m205.8 410.8a2.2 2.2 0 0 1 0.1-1 7 7 0 0 1 1.1-2.5 3.1 3.1 0 0 1 1.5-1.3 1.1 1.1 0 0 1 1.2 0.4 1.8 1.8 0 0 1 0.3 1.2 3.8 3.8 0 0 1-3.7 3.1 4.4 4.4 0 0 1-4.1-2.8 1.6 1.6 0 0 1 0.1-1.3 1.1 1.1 0 0 1 1.2-0.4 3.7 3.7 0 0 1 1.6 1.1 7.6 7.6 0 0 1 1.6 2.2 2.5 2.5 0 0 1 0.3 1 12.4 12.4 0 0 0-2.1-2.9 3.5 3.5 0 0 0-1.4-0.9 0.6 0.6 0 0 0-0.6 0.2 1.1 1.1 0 0 0 0 0.8 3.9 3.9 0 0 0 3.5 2.4 3.3 3.3 0 0 0 3.2-2.6 1.3 1.3 0 0 0-0.2-0.9 0.6 0.6 0 0 0-0.6-0.2 2.7 2.7 0 0 0-1.3 1.1 10.2 10.2 0 0 0-1.5 3.3z"/>
      <path d="m228.1 409.2 19.6-155.4-6.3-36.1-37 2-4.6 186.7a2.8 2.8 0 0 0 2.3 2.9l21.6 3.3a3.9 3.9 0 0 0 4.4-3.3z"/>
      <path d="m247.2 258.9 35.7 35.3-51.4 12.5 3.7 25.9 69.5-9.5a21.9 21.9 0 0 0 14.8-8.9 21.9 21.9 0 0 0 0.3-25.1l-54.2-79.5-24.2 7.9z"/>
    </g>
    <g class="i">
      <path d="m245.2 249.9a20.2 20.2 0 0 1 1.2 4.4 19.5 19.5 0 0 1 0.7 4.6 21.1 21.1 0 0 1-1.2-4.4 20.8 20.8 0 0 1-0.7-4.5z"/>
      <path d="m240 310 0.9-0.3 2.5-0.8 9.6-2.9 34.9-10.5-0.1 0.3-42.9-45.6 0.5-0.1c-0.8 7.2-1.7 14.7-2.6 22.3-4.4 37-8.6 70.5-11.8 94.7-1.6 12.1-3 21.9-4 28.7-0.6 3.4-1 6-1.3 7.8-0.2 0.9-0.3 1.5-0.4 2s-0.2 0.7-0.2 0.7 0-0.2 0.1-0.7 0.2-1.1 0.4-2c0.4-1.8 0.7-4.4 1.2-7.8 1-6.8 2.3-16.6 3.9-28.7 3.1-24.2 7.2-57.7 11.6-94.7 0.9-7.6 1.8-15.1 2.7-22.3l0.1-0.5 0.4 0.4 42.8 45.7 0.2 0.2-0.3 0.1-34.9 10.3-9.6 2.8-2.5 0.7c-0.5 0.2-0.9 0.2-0.9 0.2z"/>
      <path d="m228.5 406.2c-0.1 0 3.9-33 9.1-73.7s9.5-73.6 9.6-73.6-3.9 33-9.1 73.7-9.5 73.6-9.6 73.6z"/>
      <path d="m241.4 233.5a12 12 0 0 1 0.8 2.4c0.4 1.5 1 3.6 1.5 6s0.9 4.5 1.1 6a11.6 11.6 0 0 1 0.3 2.5 12.9 12.9 0 0 1-0.6-2.5c-0.4-1.7-0.8-3.7-1.3-6s-1-4.3-1.3-6a12 12 0 0 1-0.5-2.4z"/>
      <path d="m243.7 230.4s0.5-0.5 1.5-0.2a1.7 1.7 0 0 1 1.1 1.3 1.9 1.9 0 0 1-0.8 1.9 1.8 1.8 0 0 1-2-0.2 1.5 1.5 0 0 1-0.5-1.6 1.5 1.5 0 0 1 0.7-0.9c0.2-0.1 0.4-0.1 0.4-0.1a2 2 0 0 0-0.7 1.1 1.2 1.2 0 0 0 0.4 1.2 1.4 1.4 0 0 0 1.5 0.1 1.4 1.4 0 0 0 0.6-1.4 1.4 1.4 0 0 0-0.8-1 2.7 2.7 0 0 0-1.3-0.2z"/>
      <path d="m293.4 300.3c-0.1 0.1-2.1-1.7-5-3.4s-5.5-2.5-5.4-2.7a15.6 15.6 0 0 1 5.7 2.2 15.7 15.7 0 0 1 4.7 3.9z"/>
    </g>
    <path d="m216.3 111.6-20.5 9.9 8.8 61.7-3.5 27.7a10.8 10.8 0 0 0 3.6 9.5l33.1-0.6 23.2-12.7 10.7-1.8-4.4-21.1 2-29.9 24.2 12.9a8.4 8.4 0 0 0 6.1 0.7l44.4-11.5-2.3-17.1-40.2 4.6-30.6-27.1-22.8-5.1-4-6.7h-23.3l-1.7 1.2a4.9 4.9 0 0 0-1.7 2.3z" class="b"/>
    <path d="m195.8 121.5a24.6 24.6 0 0 0-9.2 12c-2.3 7.3-7.6 36.7-7.6 36.7l-23.3-14.4-13.4 14.1 31 27.4a15.8 15.8 0 0 0 17.3 2.4 15.8 15.8 0 0 0 8.8-12.1l3.8-27.9z" class="b"/>
    <polygon points="246.1 216.9 265.7 209.7 264.3 207.6 248.9 210.4" class="f"/>
    <path d="m204.7 220.4c13.7 5.5 28.3 3.5 41.4-3.4 3.9-2.1 7.6-4.7 11.6-6.7s8.3-3.6 12.8-3.3 8.9 2.8 10.7 6.9 0 9.7-4.2 11.2l1.5 1.3c6.2-2.9 9.1-11.1 6.1-17.2-2.3-4.7-7.1-7.4-10.7-11.3-5.2-5.6-5.7-16.4-5.8-24.9" class="b"/>
    <path d="m234.8 123.5a6.2 6.2 0 0 1-1 0 3.9 3.9 0 0 0-2.4 1.1 5.7 5.7 0 0 0-1.2 3.9 13.3 13.3 0 0 0 1.1 5.3l0.4 0.9-0.7-0.6a40.4 40.4 0 0 1-5.2-4.6 38.1 38.1 0 0 1-7.9-12.2 27.8 27.8 0 0 1-1.3-4.2 10.7 10.7 0 0 1-0.2-1.6 47.5 47.5 0 0 0 1.9 5.7 40.1 40.1 0 0 0 8 11.9 42.4 42.4 0 0 0 5.1 4.5l-0.4 0.3a11.9 11.9 0 0 1-0.8-2.8 12.3 12.3 0 0 1-0.2-2.6 5.9 5.9 0 0 1 1.4-4.1 3.9 3.9 0 0 1 2.6-1.1 4.3 4.3 0 0 1 1 0.2z" class="h"/>
    <path d="m236 123.5c1.7-0.7 4.2 0.3 5.4 1.7 0.8 0.9 1.3 2.2 2.3 2.8s4.4 1.1 5.4 0.3c0 0 0.6-2.8 0.9-4a88.5 88.5 0 0 0 2.3-13.7c-3.2-1.6-2.3-3.6-8.1-3.2a14.8 14.8 0 0 1 0.2 8.2" class="b"/>
    <g class="h">
      <path d="m244.3 115.6c-0.1 0 0.2-0.8 0.3-2.2a16.1 16.1 0 0 0-0.7-5.9l-0.1-0.2h0.2a9.9 9.9 0 0 1 4.3 0.4 6.5 6.5 0 0 1 2 1.4 7.8 7.8 0 0 0 2 1.4l0.2 0.1v0.2c-0.3 2.4-0.5 5.1-1 7.8-0.3 1.8-0.7 3.5-1.1 5.2s-0.7 3.2-1.1 4.7v0.1l-0.1 0.1a3.2 3.2 0 0 1-1.7 0.4 10.5 10.5 0 0 1-1.6-0.1 10.2 10.2 0 0 1-1.5-0.3 3.2 3.2 0 0 1-1.3-0.7 13.2 13.2 0 0 1-1.5-2.1 5.4 5.4 0 0 0-1.6-1.4 5.6 5.6 0 0 0-2.9-0.9 5.8 5.8 0 0 0-1.1 0.2 2.2 2.2 0 0 1 1.1-0.3 5.5 5.5 0 0 1 3 0.8 5.6 5.6 0 0 1 1.7 1.5 13.1 13.1 0 0 0 1.5 2 4.9 4.9 0 0 0 2.6 0.9 9.7 9.7 0 0 0 1.5 0.1 2.9 2.9 0 0 0 1.4-0.3l-0.1 0.1c0.3-1.5 0.7-3.1 1.1-4.8s0.8-3.4 1.1-5.1c0.5-2.7 0.8-5.4 1-7.8l0.1 0.3a8.5 8.5 0 0 1-2.2-1.5 5.9 5.9 0 0 0-1.8-1.4 9.8 9.8 0 0 0-4.1-0.4l0.2-0.2a15.6 15.6 0 0 1 0.6 6.1 11.1 11.1 0 0 1-0.3 1.6 2.3 2.3 0 0 1-0.2 0.5z"/>
      <path d="m278.5 210v-1.1a7.1 7.1 0 0 0-1-3.1 10.4 10.4 0 0 0-3.7-3.5 15.5 15.5 0 0 0-6.6-1.8c-2.5-0.2-5.4-0.1-8.4-0.3a31.6 31.6 0 0 1-9.5-2 19.5 19.5 0 0 1-8.5-6.4 14.9 14.9 0 0 1-2.4-5.1 19.6 19.6 0 0 1-0.6-5.8c0.2-4 1.1-7.7 1.6-11.3a86.4 86.4 0 0 0 1-10.6 87.6 87.6 0 0 0-4.3-29.7c-0.4-1.4-0.8-2.4-1.1-3.1-0.1-0.3-0.2-0.6-0.3-0.8a1.2 1.2 0 0 1-0.1-0.3s0.1 0.1 0.1 0.3 0.2 0.5 0.3 0.8c0.3 0.7 0.7 1.7 1.2 3.1a83 83 0 0 1 3.1 11.8 87 87 0 0 1 1.4 18 85.6 85.6 0 0 1-1 10.6c-0.5 3.7-1.4 7.4-1.6 11.3a16.2 16.2 0 0 0 2.9 10.6 19 19 0 0 0 8.3 6.2 31.2 31.2 0 0 0 9.3 2c3 0.2 5.8 0.1 8.4 0.4a15.7 15.7 0 0 1 6.7 2 10.4 10.4 0 0 1 3.7 3.7 6.9 6.9 0 0 1 0.9 3.2 4.1 4.1 0 0 1 0 0.9c-0.1 0.2-0.1 0.3-0.1 0.3z"/>
      <path d="m263.5 191.8a8.9 8.9 0 0 1-1.1 1.2c-0.4 0.4-0.9 0.8-1.4 1.3s-1.2 1.1-2 1.7a54.7 54.7 0 0 1-5.5 3.8 56.5 56.5 0 0 1-15.2 6.4 53.8 53.8 0 0 1-6.6 1.3c-0.9 0.2-1.8 0.2-2.6 0.3s-1.4 0.1-1.9 0.1a9.7 9.7 0 0 1-1.7 0 11.5 11.5 0 0 1 1.7-0.2c0.5 0 1.2-0.1 1.9-0.2s1.6-0.2 2.6-0.3a62.1 62.1 0 0 0 6.5-1.4 64.9 64.9 0 0 0 7.7-2.6 63.6 63.6 0 0 0 7.3-3.7 62.2 62.2 0 0 0 5.6-3.7c0.8-0.5 1.4-1.1 2-1.6s1.1-0.9 1.5-1.2a11.9 11.9 0 0 1 1.3-1.1z"/>
      <path d="m257.1 159a1.9 1.9 0 0 1-0.1 0.6l-0.3 1.6a22 22 0 0 1-0.7 2.4c-0.3 0.9-0.6 2-1.1 3.2-0.2 0.6-0.5 1.2-0.7 1.8s-0.6 1.3-0.9 1.9c-0.6 1.4-1.3 2.7-2.1 4.2a57.7 57.7 0 0 1-13.7 16.3c-1.3 1-2.5 2-3.7 2.8-0.6 0.4-1.2 0.8-1.7 1.2l-1.7 1c-1 0.7-2.1 1.2-2.9 1.6a24 24 0 0 1-2.3 1.1l-1.5 0.6a3.1 3.1 0 0 1-0.5 0.2 2.5 2.5 0 0 1 0.5-0.3l1.4-0.7c0.6-0.3 1.4-0.7 2.2-1.1s1.9-1 2.9-1.7l1.6-1c0.6-0.4 1.1-0.8 1.7-1.2 1.2-0.8 2.4-1.8 3.7-2.8a65.3 65.3 0 0 0 7.5-7.5 66.4 66.4 0 0 0 6.1-8.7c0.8-1.4 1.6-2.8 2.1-4.1 0.3-0.7 0.6-1.3 0.9-1.9l0.7-1.8c0.5-1.1 0.8-2.2 1.1-3.1s0.6-1.7 0.8-2.4l0.4-1.5a2 2 0 0 1 0.2-0.5z"/>
      <path d="m214.9 225.4a6 6 0 0 1-1.8-1.4 13.8 13.8 0 0 1-4.2-9.9 6.3 6.3 0 0 1 0.3-2.2c0.1 0 0 0.9 0.1 2.2a15.7 15.7 0 0 0 4.1 9.7c0.9 1 1.7 1.5 1.6 1.6z"/>
      <path d="m214.2 217.6c0.2 0-0.1 1.3 0 2.9s0.6 2.8 0.5 2.9a6 6 0 0 1-0.5-5.8z"/>
      <path d="m204.3 181.8a1.6 1.6 0 0 1-0.1-0.5c-0.1-0.4-0.1-0.8-0.2-1.4-0.2-1.3-0.5-3-0.8-5-0.7-4.2-1.7-10.1-2.9-16.5s-2.4-12.2-3.2-16.5c-0.4-2-0.8-3.7-1-5-0.1-0.5-0.2-1-0.3-1.3a1.5 1.5 0 0 1-0.1-0.5 1.9 1.9 0 0 1 0.2 0.5c0.1 0.4 0.2 0.8 0.4 1.3 0.3 1.2 0.7 2.9 1.2 4.9 1 4.2 2.2 10 3.4 16.4s2.1 12.3 2.7 16.5c0.3 2.1 0.5 3.9 0.7 5 0.1 0.6 0.1 1 0.2 1.4a1.6 1.6 0 0 1 0 0.6z"/>
      <path d="m268.3 181.8a2.8 2.8 0 0 1 0-0.5v-1.4-5.2c0-4.4 0.2-10.5 0.8-17.2s1.2-12.8 1.7-17.1c0.3-2.1 0.5-3.9 0.7-5.2q0.1-0.8 0.2-1.4a2.3 2.3 0 0 1 0.1-0.5 1.6 1.6 0 0 1 0 0.5c0 0.4-0.1 0.9-0.1 1.4-0.1 1.3-0.3 3.1-0.5 5.2-0.4 4.4-1 10.4-1.5 17.2s-0.8 12.8-0.9 17.2c-0.1 2.1-0.1 3.9-0.1 5.2l0 1.4a1.6 1.6 0 0 1-0.1 0.5z"/>
      <path d="m188.4 184.4c-0.2 0.1-1.5-3.6-4-7.5s-5.5-6.4-5.4-6.6a9.2 9.2 0 0 1 2 1.6 27.5 27.5 0 0 1 3.9 4.7 32.5 32.5 0 0 1 2.8 5.4 10.1 10.1 0 0 1 0.7 2.4z"/>
      <path d="m190.1 180a19.1 19.1 0 0 1-1.1-2 15.5 15.5 0 0 0-3.5-4 21.9 21.9 0 0 0-4.6-2.8 13.2 13.2 0 0 1-2-1 7.8 7.8 0 0 1 2.2 0.6 17.5 17.5 0 0 1 4.8 2.7 13.4 13.4 0 0 1 3.5 4.3 6.5 6.5 0 0 1 0.8 2.2z"/>
    </g>
    <g fill="#fafafa">
      <path d="m200.4 156s0 0.2-0.2 0.4a4.3 4.3 0 0 1-0.9 1.1 6.1 6.1 0 0 1-4.9 1.3 9.5 9.5 0 0 1-6.2-4.3 21.2 21.2 0 0 1-2-4c-0.3-0.7-0.6-1.5-0.8-2.2a6.2 6.2 0 0 1-0.3-2.5 3.5 3.5 0 0 1 1.2-2.3 2.9 2.9 0 0 1 2.5-0.4 4.9 4.9 0 0 1 3.3 3.1 4.7 4.7 0 0 1-0.4 4.1 5.1 5.1 0 0 1-2.8 2.2 4.5 4.5 0 0 1-3-0.1 5 5 0 0 1-1.8-1.3 3.9 3.9 0 0 1-0.8-1.2c-0.1-0.3-0.2-0.5-0.1-0.5a6.4 6.4 0 0 0 1.1 1.5 5.1 5.1 0 0 0 1.8 1.1 4.3 4.3 0 0 0 2.8 0.1 4.7 4.7 0 0 0 2.6-2.1 4.3 4.3 0 0 0 0.3-3.7 4.4 4.4 0 0 0-3-2.8 2.4 2.4 0 0 0-2 0.4 2.9 2.9 0 0 0-1 1.9c-0.2 1.6 0.5 3.1 1 4.5a20 20 0 0 0 2 4 9.2 9.2 0 0 0 5.8 4.3 6 6 0 0 0 4.7-1.1 7.6 7.6 0 0 0 1.2-1.4z"/>
      <path d="m239.7 171.3-0.3 0.2c-0.2 0.2-0.5 0.4-0.8 0.7a22.1 22.1 0 0 1-3.4 2.2 10.5 10.5 0 0 1-2.8 0.9 7.4 7.4 0 0 1-3.5-0.2 12.4 12.4 0 0 1-6.3-5.6 20.4 20.4 0 0 1 0.2-21.2 11 11 0 0 1 4.7-4.4 6.1 6.1 0 0 1 3.4-0.4 4.6 4.6 0 0 1 3 1.7 4.9 4.9 0 0 1 0.9 3.4 7.7 7.7 0 0 1-1.1 3.4 11.1 11.1 0 0 1-5.6 4.5 14.3 14.3 0 0 1-7.1 0.7 14.7 14.7 0 0 1-6.4-2.7 22.1 22.1 0 0 1-7.6-10.6 12.9 12.9 0 0 1-0.9-6.1 6.1 6.1 0 0 1 1.2-2.8 4.2 4.2 0 0 1 2.4-1.6 5.3 5.3 0 0 1 5 1.7 5.7 5.7 0 0 1 1.2 4.8 7.6 7.6 0 0 1-2 4 9.7 9.7 0 0 1-3.4 2.2 15.2 15.2 0 0 1-6.3 1 36.6 36.6 0 0 1-4-0.4l-1-0.2-0.3-0.1h0.4l1.1 0.1c0.9 0.1 2.3 0.3 4 0.3a15.5 15.5 0 0 0 6.2-1 9.4 9.4 0 0 0 3.3-2.2 7.3 7.3 0 0 0 1.9-3.9 5.4 5.4 0 0 0-1.1-4.5 5 5 0 0 0-4.6-1.6 4.6 4.6 0 0 0-3.2 4 12.2 12.2 0 0 0 0.9 5.8 21.6 21.6 0 0 0 7.4 10.4 14.3 14.3 0 0 0 6.2 2.6 13.7 13.7 0 0 0 6.9-0.7 10.5 10.5 0 0 0 5.3-4.3 7.3 7.3 0 0 0 1-3.2 4.3 4.3 0 0 0-0.8-3 4.2 4.2 0 0 0-2.7-1.5 5.7 5.7 0 0 0-3.1 0.4 10.5 10.5 0 0 0-4.5 4.2 19.6 19.6 0 0 0-3 11.1 19.8 19.8 0 0 0 2.8 9.7 12.1 12.1 0 0 0 6.1 5.5 8.3 8.3 0 0 0 6.1-0.6 24.5 24.5 0 0 0 3.5-2.1l0.9-0.6a1.7 1.7 0 0 1 0.4-0.2z"/>
      <path d="m212.1 115.2a3.4 3.4 0 0 1-0.3 0.9 13.7 13.7 0 0 1-1.3 2.3 16.4 16.4 0 0 1-14.8 7.1 13.7 13.7 0 0 1-2.5-0.4 3 3 0 0 1-0.9-0.3c0-0.1 1.3 0.3 3.5 0.4a17.2 17.2 0 0 0 14.5-6.9c1.3-1.7 1.8-3 1.9-2.9z"/>
      <path d="m226.9 119.5a9.2 9.2 0 0 0-2.8 1.4 9.1 9.1 0 0 0-1.8 2.6c-0.1 0-0.1-0.4 0.1-1a4.7 4.7 0 0 1 3.5-3c0.6-0.1 1 0 1 0.1z"/>
      <path d="m248 125.4a2.1 2.1 0 0 1-0.8-0.4 6.9 6.9 0 0 1-1.9-1.7 6.8 6.8 0 0 1-1.4-3.5 3.4 3.4 0 0 1 0.6-2.2 2.3 2.3 0 0 1 2.3-1 2.6 2.6 0 0 1 1.8 1.8 2.4 2.4 0 0 1-0.5 2.3 3.2 3.2 0 0 1-3.6 1 4.1 4.1 0 0 1-2-1.6 2 2 0 0 1-0.4-0.9s0.2 0.3 0.5 0.7a4.2 4.2 0 0 0 1.9 1.4 2.9 2.9 0 0 0 3.1-0.9 1.9 1.9 0 0 0 0.4-1.8 2.1 2.1 0 0 0-1.4-1.4 1.8 1.8 0 0 0-1.8 0.8 3 3 0 0 0-0.5 1.9 6.7 6.7 0 0 0 1.2 3.4 10.4 10.4 0 0 0 2.5 2.3z"/>
      <path d="m252 113.7a12.7 12.7 0 0 0-3.3-2.3 13 13 0 0 0-4-0.7c0-0.1 0.4-0.2 1.2-0.3a6.6 6.6 0 0 1 3 0.5 6.8 6.8 0 0 1 2.5 1.7c0.5 0.6 0.7 1 0.7 1.1z"/>
      <path d="m279.5 125.3s-0.1 0.1-0.2 0.1l-0.6 0.3c-0.5 0.3-1.3 0.6-2.4 1a29.1 29.1 0 0 1-9.4 1.8 13.8 13.8 0 0 1-3.2-0.3 7 7 0 0 1-3.1-1.5 4.7 4.7 0 0 1-1.5-3.4 5.8 5.8 0 0 1 1.3-3.8 7.7 7.7 0 0 1 8-2 9.3 9.3 0 0 1 6.4 6.2 9.1 9.1 0 0 1-1.9 8.7 14 14 0 0 1-7.4 4 43.2 43.2 0 0 1-7.6 0.8 41.6 41.6 0 0 0-6.5 0.6 13.3 13.3 0 0 0-8 4.6 9.6 9.6 0 0 0-1.5 3.1 0.7 0.7 0 0 1 0-0.2c0-0.1 0.1-0.4 0.2-0.7a8.4 8.4 0 0 1 1.2-2.3 13.3 13.3 0 0 1 8.2-4.8 40 40 0 0 1 6.6-0.7 42.7 42.7 0 0 0 7.5-0.8 13.6 13.6 0 0 0 7.1-3.9 8.6 8.6 0 0 0 1.8-8.2 8.8 8.8 0 0 0-6-5.8 7.3 7.3 0 0 0-7.5 1.9 5.3 5.3 0 0 0-1.2 3.5 4.2 4.2 0 0 0 1.4 3.1 6.7 6.7 0 0 0 3 1.5 13.4 13.4 0 0 0 3.1 0.3 30.3 30.3 0 0 0 9.4-1.6c1.1-0.4 1.9-0.7 2.4-0.9a5.9 5.9 0 0 1 0.8-0.4z"/>
      <path d="m254.6 164.6c-0.1 0-0.4-0.8-1.3-2a10.3 10.3 0 0 0-10.2-3.8c-1.4 0.3-2.3 0.7-2.3 0.6a5.4 5.4 0 0 1 2.3-1 9.9 9.9 0 0 1 10.6 4 5.4 5.4 0 0 1 1 2.2z"/>
      <path d="m266.2 172.2a4.9 4.9 0 0 1-1.4 2 8.4 8.4 0 0 1-11 0.9 5 5 0 0 1-1.7-1.8c0.1-0.1 0.6 0.7 1.9 1.5a8.8 8.8 0 0 0 5.4 1.4 8.9 8.9 0 0 0 5.1-2.2c1.1-1 1.6-1.8 1.7-1.7z"/>
      <path d="m269.3 152.3c0 0.1-0.6-0.3-1.7-0.6a7.3 7.3 0 0 0-7.7 2.5c-0.7 0.9-1 1.5-1.1 1.5a3.5 3.5 0 0 1 0.8-1.7 7 7 0 0 1 8.1-2.6 3.6 3.6 0 0 1 1.6 0.9z"/>
      <path d="m306.5 143.1a5.2 5.2 0 0 1 0.2 0.7 5.3 5.3 0 0 1 0.1 0.9 7.3 7.3 0 0 1 0 1.3 12.6 12.6 0 0 1-2.9 7.5 13.1 13.1 0 0 1-4.3 3.6 13.3 13.3 0 0 1-6.2 1.4 16.8 16.8 0 0 1-12.8-6.3 10.1 10.1 0 0 1-1.8-3.5 6.6 6.6 0 0 1 0.1-3.8 4.9 4.9 0 0 1 2.3-2.9 5.3 5.3 0 0 1 3.5-0.4 5.9 5.9 0 0 1 3 1.6 7 7 0 0 1 1.6 2.7 9.1 9.1 0 0 1 0 5.6 10.5 10.5 0 0 1-2.4 4 11 11 0 0 1-2.7 2.1 10.5 10.5 0 0 1-2 0.8 5 5 0 0 1-0.8 0.1 14.8 14.8 0 0 0 2.7-1.1 10.8 10.8 0 0 0 4.9-6 8.8 8.8 0 0 0 0-5.3 6.4 6.4 0 0 0-1.5-2.5 5.5 5.5 0 0 0-2.7-1.4 4.9 4.9 0 0 0-3.2 0.4 4.4 4.4 0 0 0-2.1 2.6 6 6 0 0 0 0 3.5 9.5 9.5 0 0 0 1.7 3.3 16.4 16.4 0 0 0 12.4 6.2 12.7 12.7 0 0 0 10.3-4.7 12.8 12.8 0 0 0 3-7.2 20.1 20.1 0 0 0-0.2-3z"/>
      <path d="m314.3 163.8a2.8 2.8 0 0 1-0.6-0.7 7.2 7.2 0 0 1-1.1-2.3 9.2 9.2 0 0 1-0.1-3.7 34.2 34.2 0 0 1 1-4.4 31.7 31.7 0 0 1 3.6-7.4c0.6-0.9 1-1.6 1.4-2.1a3.6 3.6 0 0 1 0.6-0.7 23.9 23.9 0 0 1-1.6 3 37 37 0 0 0-3.4 7.3 40.9 40.9 0 0 0-1 4.3 9.4 9.4 0 0 0 0 3.6 13.3 13.3 0 0 0 1.4 3z"/>
      <path d="m333.2 140.8a2.5 2.5 0 0 1 0.3 0.7 12.5 12.5 0 0 1 0.5 2.1 18.3 18.3 0 0 1-3 13.4 12.3 12.3 0 0 1-1.3 1.7c-0.3 0.4-0.5 0.6-0.6 0.5s0.7-0.9 1.6-2.4a20.9 20.9 0 0 0 2.6-6.3 20.6 20.6 0 0 0 0.3-6.8c-0.2-1.7-0.5-2.8-0.4-2.8z"/>
      <path d="m267.8 187.5a2.3 2.3 0 0 1-0.4-0.2 12.7 12.7 0 0 0-1.2-0.7 14.5 14.5 0 0 0-4.9-1.4 14.8 14.8 0 0 0-7.3 1.2 12.6 12.6 0 0 0-3.7 2.4 7.5 7.5 0 0 0-1.4 1.8 3.6 3.6 0 0 0-0.5 2.2 2.6 2.6 0 0 0 1.1 1.9 2.1 2.1 0 0 0 2 0.1 3.6 3.6 0 0 0 1.9-3.5 7.1 7.1 0 0 0-3.7-6 7.3 7.3 0 0 0-4.9-0.6 17.2 17.2 0 0 0-1.8 0.6 1.7 1.7 0 0 1 0.4-0.3 7 7 0 0 1 1.3-0.5 7.3 7.3 0 0 1 5.1 0.5 7.5 7.5 0 0 1 4 6.3 5.3 5.3 0 0 1-0.4 2.3 3.4 3.4 0 0 1-1.7 1.7 2.7 2.7 0 0 1-2.5-0.1 3.1 3.1 0 0 1-1.3-2.2 4 4 0 0 1 0.6-2.5 7.8 7.8 0 0 1 1.5-1.9 13 13 0 0 1 3.8-2.5 15 15 0 0 1 7.6-1.1 13.5 13.5 0 0 1 4.9 1.6 8.8 8.8 0 0 1 1.2 0.8c0.3 0.2 0.5 0.3 0.4 0.3z"/>
      <path d="m271.4 195.8a6.5 6.5 0 0 1-1.2 2.3c-0.8 1.2-1.5 2.1-1.6 2a6.5 6.5 0 0 1 1.2-2.3c0.8-1.2 1.5-2.1 1.6-2z"/>
      <path d="m284.1 210.1c-0.1 0-0.2-0.3-0.6-0.9a5.2 5.2 0 0 0-4.1-2.3c-0.6 0-1 0.1-1 0s0.4-0.3 1-0.3a4.6 4.6 0 0 1 4.4 2.5c0.3 0.6 0.3 1 0.2 1z"/>
      <path d="m242.8 205c0 0.1-1.2 0.7-3.1 1.8a27.1 27.1 0 0 0-6.8 5.3 14.5 14.5 0 0 0-3.6 7.6 18.1 18.1 0 0 0 0.1 3.6 3 3 0 0 1-0.3-0.9 9.1 9.1 0 0 1-0.1-2.7 14 14 0 0 1 3.6-7.9 24.5 24.5 0 0 1 7-5.2c1-0.5 1.8-0.9 2.4-1.1a3.2 3.2 0 0 1 0.9-0.3z"/>
      <path d="m257.5 209.9s-0.6-0.3-1.1-1.2a6.7 6.7 0 0 1 0.6-7.5 2.9 2.9 0 0 1 1.3-1c0.1 0.1-0.4 0.5-1 1.2a7.2 7.2 0 0 0-0.6 7.1c0.4 0.9 0.9 1.3 0.8 1.4z"/>
      <path d="m234.5 191.8s-0.2-0.2-0.6-0.6a4.1 4.1 0 0 0-2.1-0.9 5.2 5.2 0 0 0-3.5 0.7 10.7 10.7 0 0 0-3.3 3.5c-1 1.5-1.8 3.4-3.1 5.1a10.9 10.9 0 0 1-5.5 4.1 10.2 10.2 0 0 1-7.6-0.4 10.8 10.8 0 0 1-5.6-5.9 6.5 6.5 0 0 1-0.2-4.2 5.9 5.9 0 0 1 2.6-3.2 6 6 0 0 1 3.9-0.9 6.4 6.4 0 0 1 3.4 1.6 8.4 8.4 0 0 1 2.7 6.3 10.4 10.4 0 0 1-1.9 5.7 11.6 11.6 0 0 1-3.6 3.4 14.6 14.6 0 0 1-3.4 1.5 16.2 16.2 0 0 1-2.3 0.5l-0.6 0.1h-0.2a5.7 5.7 0 0 1 0.8-0.2 17.6 17.6 0 0 0 2.3-0.6 14.6 14.6 0 0 0 3.3-1.5 11.4 11.4 0 0 0 3.5-3.3 10.1 10.1 0 0 0 1.7-5.5 8 8 0 0 0-2.6-5.9 5.9 5.9 0 0 0-3.2-1.5 5.5 5.5 0 0 0-3.5 0.8 5.5 5.5 0 0 0-2.4 2.9 6 6 0 0 0 0.2 3.9 10.4 10.4 0 0 0 5.3 5.7 9.7 9.7 0 0 0 7.2 0.4 10.5 10.5 0 0 0 5.3-3.9c1.3-1.7 2.1-3.5 3.1-5.1a10.9 10.9 0 0 1 3.5-3.5 5.4 5.4 0 0 1 3.7-0.7 4.1 4.1 0 0 1 2.1 1 2.5 2.5 0 0 1 0.5 0.7z"/>
      <path d="m234.8 207.4a4.6 4.6 0 0 1-1.6-1.3 11 11 0 0 1-2.8-9.3 4.8 4.8 0 0 1 0.7-2c0.1 0-0.1 0.8-0.3 2a12.2 12.2 0 0 0 2.7 9c0.8 1 1.4 1.5 1.3 1.6z"/>
      <path d="m238.5 184.3s-0.7-0.3-2-0.8a24 24 0 0 0-14.4-1.1 19.6 19.6 0 0 0-4.8 1.8 3.2 3.2 0 0 0-1.6 1.9 1.8 1.8 0 0 0 1 2 1.1 1.1 0 0 0 1-0.3 2.5 2.5 0 0 0 0.6-1.1 9.2 9.2 0 0 0 0.2-2.7 11.9 11.9 0 0 0-1.3-4.9 11.5 11.5 0 0 0-2.8-3.6 11.3 11.3 0 0 0-3.5-2 12.2 12.2 0 0 0-5.8-0.6c-1.4 0.2-2.1 0.5-2.1 0.5a2 2 0 0 1 0.5-0.2 11.1 11.1 0 0 1 7.5 0 11.7 11.7 0 0 1 3.6 2 12 12 0 0 1 3 3.7 12.3 12.3 0 0 1 1.4 5.1 9.7 9.7 0 0 1-0.2 2.8 3.2 3.2 0 0 1-0.7 1.3 1.6 1.6 0 0 1-1.6 0.5 2 2 0 0 1-1.2-1.1 2.6 2.6 0 0 1-0.2-1.5 3.7 3.7 0 0 1 1.8-2.2 19.3 19.3 0 0 1 5-1.8 23.7 23.7 0 0 1 8.9-0.3 22.3 22.3 0 0 1 5.7 1.7 14.2 14.2 0 0 1 1.5 0.8q0.5 0.3 0.5 0.3z"/>
      <path d="m160.6 187.2s0.6-0.5 1.6-1.5a13.9 13.9 0 0 0 3.1-5 10.9 10.9 0 0 0-0.2-8.5 10.7 10.7 0 0 0-3.2-3.9 9 9 0 0 0-5-1.9 5.8 5.8 0 0 0-2.6 0.6 3.4 3.4 0 0 0-1.8 1.8 2.6 2.6 0 0 0 0.4 2.3 3.8 3.8 0 0 0 1.9 1.4 5.2 5.2 0 0 0 4.3-0.7 7.3 7.3 0 0 0 2.6-3 15.2 15.2 0 0 0 1.3-5.7c0-0.7 0-1.2 0.1-1.6a1.9 1.9 0 0 1 0.1-0.6 1.9 1.9 0 0 1 0 0.6v1.6a14.5 14.5 0 0 1-1.1 6 7.6 7.6 0 0 1-2.7 3.2 5.6 5.6 0 0 1-4.7 0.8 4.2 4.2 0 0 1-2.2-1.6 3.1 3.1 0 0 1-0.4-2.8 3.8 3.8 0 0 1 2-2.1 6.3 6.3 0 0 1 2.9-0.6 9.5 9.5 0 0 1 5.3 2 11.2 11.2 0 0 1 3.3 4.2 10.5 10.5 0 0 1 1 4.7 12.1 12.1 0 0 1-0.8 4.1 13.7 13.7 0 0 1-3.3 5 8.8 8.8 0 0 1-1.3 1c-0.3 0.2-0.5 0.3-0.5 0.3z"/>
      <path d="m181.3 202.1a3.7 3.7 0 0 1-0.8-0.8 16.1 16.1 0 0 1-1.7-2.6 18.5 18.5 0 0 1 1.3-19.6 16.5 16.5 0 0 1 2-2.3 4.3 4.3 0 0 1 0.9-0.7c0.1 0.1-1.2 1.1-2.6 3.3a19 19 0 0 0-1.3 19.2 39.2 39.2 0 0 0 2.2 3.6z"/>
      <path d="m200.8 180.3c-0.1 0-0.5-1.5-1.7-3.7a20.6 20.6 0 0 0-15.8-10.4c-2.5-0.3-4.1-0.1-4.1-0.2a4.2 4.2 0 0 1 1.1-0.2 18.4 18.4 0 0 1 3 0 19.8 19.8 0 0 1 16.1 10.7 17 17 0 0 1 1.2 2.8 4 4 0 0 1 0.3 1.1z"/>
    </g>
    <g class="e">
      <path d="m228.2 208.3c-1 0.4-0.9 1.9-0.1 2.6a4.3 4.3 0 0 0 3 0.6 38.6 38.6 0 0 0 29.6-16.6c-9 7.4-20.9 10.2-32.3 12.8"/>
      <path d="m226.4 198.1c-1-1.5-0.3-3.6 1-4.9a16.8 16.8 0 0 1 4.6-2.7 29.2 29.2 0 0 0 13.5-13.8c1.8-3.9 3.2-8.8 7.2-10.4a39.1 39.1 0 0 1-25.7 30.7"/>
      <path d="m198 146.2a101.5 101.5 0 0 1-2.3 32.7 27.5 27.5 0 0 0-1.1 6.9 9.2 9.2 0 0 0 3.3 6.5c1.7-3.8 1.7-7.5 2.4-11.6 0.6-3.7 1.7-12.4 1.7-12.5 0.2-7.6-1.6-14.1-4.6-20.9"/>
      <path d="m216.8 113.4a39.9 39.9 0 0 0 11.3 21.2c2.2 2.2 5 4.1 8.1 4a18.8 18.8 0 0 1-1.5-11.8 48.7 48.7 0 0 0 8.2 4.5 16.4 16.4 0 0 0 9.2 1l1.9-16.5a3.1 3.1 0 0 0-0.2-1.9 1.1 1.1 0 0 0-1.6-0.4 1.6 1.6 0 0 0-0.3 0.7c-1.1 4.9-1.7 9.2-2.9 14.1-0.8 0.8-3.3 0.5-4.9-0.1-1.4-0.5-2-1.7-2.9-2.9s-0.8-1-2.2-1.6c-2.6-1.1-7.5-0.2-8.6 2.1s-0.3 5.4 0.5 7.6a34.7 34.7 0 0 1-14.6-20.2"/>
      <path d="m271.4 136.9c-0.2 0.4 6.2 22.1 6.2 22.1l-8.3-4.7z"/>
    </g>
    <path d="m219.6 74v34.5a8.4 8.4 0 0 0 2 5.4 25.1 25.1 0 0 0 6.9 5.7l7 3.9 5.8-5.1a8.4 8.4 0 0 0 2.8-5.9c0.1-2.5 0.1-5 0.1-5s9.8-0.7 10.7-10.3c0.4-4.5 0.6-13.8 0.6-22.4a18.7 18.7 0 0 0-17.3-18.8h-0.3a17.9 17.9 0 0 0-18.3 18z" class="f"/>
    <path d="m244.1 107.4a23.4 23.4 0 0 1-12.2-4.7s2.5 7.3 12.2 7.2z" class="g"/>
    <g class="h">
      <path d="m252.5 80.9a1.4 1.4 0 0 1-1.4 1.3 1.3 1.3 0 0 1-1.3-1.4 1.4 1.4 0 0 1 1.4-1.3 1.3 1.3 0 0 1 1.3 1.4z"/>
      <path d="m252.9 78.6c-0.2 0.2-1.2-0.7-2.6-0.8s-2.6 0.5-2.8 0.3 0.1-0.4 0.6-0.7a3.8 3.8 0 0 1 2.2-0.5 3.6 3.6 0 0 1 2.1 0.9c0.4 0.4 0.5 0.7 0.5 0.8z"/>
      <path d="m238.6 80.2a1.4 1.4 0 0 1-1.4 1.3 1.3 1.3 0 0 1-1.3-1.4 1.4 1.4 0 0 1 1.4-1.3 1.3 1.3 0 0 1 1.3 1.4z"/>
      <path d="m238.4 77.7c-0.2 0.2-1.2-0.7-2.6-0.8s-2.6 0.5-2.8 0.3 0.1-0.4 0.6-0.7a3.9 3.9 0 0 1 2.2-0.5 3.7 3.7 0 0 1 2.1 0.9c0.4 0.4 0.6 0.8 0.5 0.8z"/>
      <path d="m242.8 89.1a9.6 9.6 0 0 1 2.4-0.2c0.4 0 0.8 0 0.8-0.3a1.9 1.9 0 0 0-0.2-1.1c-0.3-1-0.6-1.9-0.9-3-1.2-4.2-2-7.7-1.9-7.7s1.3 3.3 2.5 7.6c0.3 1 0.6 2 0.8 3a2.2 2.2 0 0 1 0.1 1.5 1 1 0 0 1-0.7 0.5 2.5 2.5 0 0 1-0.6 0 10.3 10.3 0 0 1-2.4-0.1z"/>
      <path d="m238.4 89.8c0.2 0 0.1 1.6 1.4 2.9s3 1.2 3 1.4-0.4 0.3-1.1 0.3a4 4 0 0 1-2.5-1.1 3.5 3.5 0 0 1-1.1-2.4c0-0.7 0.2-1.1 0.3-1z"/>
      <path d="m239.2 71.9c-0.2 0.4-1.6 0.1-3.4 0.1s-3.2 0.4-3.4 0c-0.1-0.2 0.2-0.5 0.8-0.9a5.9 5.9 0 0 1 5.2-0.1c0.6 0.4 0.9 0.7 0.8 0.9z"/>
      <path d="m252.7 74.3c-0.3 0.3-1.3-0.1-2.5-0.2s-2.3 0-2.5-0.3c-0.1-0.2 0.1-0.5 0.6-0.8a3.6 3.6 0 0 1 4 0.5c0.4 0.4 0.5 0.7 0.4 0.9z"/>
      <path d="m230.9 64.3h-0.1a7.6 7.6 0 0 0-3.2 4.7v0.2c-0.6 2.7-0.8 5.5-1.4 8.2s-0.5 4.8-3.2 5.4a3.6 3.6 0 0 1-3.8-1.5 2.5 2.5 0 0 1-0.2-1.3c0-6.7-1.3-9.3-0.7-16.2a5.9 5.9 0 0 1 2.8-4.6c1.5-0.9 3.4-1.9 5-1s3.4 4.1 4.5 5.5"/>
    </g>
    <path d="m222.5 78.6c-0.1-0.1-6.4-2.5-6.8 4.1s6.4 5.6 6.4 5.4 0.4-9.5 0.4-9.5z" class="f"/>
    <path d="m220.2 85.5s-0.1 0.1-0.3 0.2a1.1 1.1 0 0 1-0.9 0 2.8 2.8 0 0 1-1.2-2.6 3.7 3.7 0 0 1 0.4-1.6 1.3 1.3 0 0 1 0.9-0.8 0.6 0.6 0 0 1 0.7 0.4c0.1 0.2 0 0.3 0.1 0.3s0.2-0.1 0.1-0.4a0.7 0.7 0 0 0-0.2-0.4 0.8 0.8 0 0 0-0.6-0.2 1.6 1.6 0 0 0-1.3 1 4 4 0 0 0-0.5 1.8 3 3 0 0 0 1.5 2.9 1.3 1.3 0 0 0 1.1-0.1c0.2-0.2 0.3-0.4 0.2-0.4z" class="g"/>
    <path d="m225.7 59.2c-1.4-2.8 3.4-6.2 6.7-6.9s7.5 1.2 10.6 2.5c2 0.8 3.9 2 6.1 2a14.7 14.7 0 0 0 4.3-0.7 10.8 10.8 0 0 1 4.3-0.5 4 4 0 0 1 3.3 2.5 2.5 2.5 0 0 1-2 3.2 3.3 3.3 0 1 1 0.4 6.1c1-0.6 2.3 0.7 2.1 1.8a3.4 3.4 0 0 1-2.4 2.3c-2.8 1-6 0.3-8.8-0.9s-5.3-2.9-8-4.2-7.3-3.5-10.2-2.7c-2.1 0.6-3.8 3-4.9 2.3a4 4 0 0 1-1.8-3.1 11.6 11.6 0 0 1 0.4-3.7" class="h"/>
    <path d="m259.8 61.3c0 0-0.4 0.5-1.1 1.2a9.1 9.1 0 0 1-3.9 2.1 8.4 8.4 0 0 1-6.3-0.8c-2.1-1.2-3.9-3.3-5.9-5.4a13.7 13.7 0 0 0-7.1-4.2 7.6 7.6 0 0 0-6.5 1.7 5.7 5.7 0 0 0-1.8 4.1 4.2 4.2 0 0 0 0.2 1.2 1.3 1.3 0 0 0 0.2 0.4 9.9 9.9 0 0 1-0.1-1.6 5.6 5.6 0 0 1 1.9-3.8 7.2 7.2 0 0 1 6.1-1.4 13.3 13.3 0 0 1 6.8 4c2 2 3.8 4.3 6.1 5.5a9 9 0 0 0 10.6-1.6 7.1 7.1 0 0 0 0.8-1c0.2-0.2 0.2-0.3 0.2-0.3z" class="i"/>
    <path d="m220.8 78.2s0.3-0.2 0.6-0.7a4.5 4.5 0 0 0 0.5-2.4c0-2.1-1.7-4.6-1.7-7.5a6.7 6.7 0 0 1 1.1-3.9 5 5 0 0 1 2.6-1.9 4.3 4.3 0 0 1 2.2-0.1c0.5 0.1 0.8 0.3 0.8 0.2s-0.2-0.3-0.7-0.5a4.1 4.1 0 0 0-2.4-0.1 5.3 5.3 0 0 0-3 2 7 7 0 0 0-1.2 4.2 12.1 12.1 0 0 0 0.9 4.3 12.9 12.9 0 0 1 0.9 3.3 5.1 5.1 0 0 1-0.7 3z" class="i"/>
    <g class="b">
      <path d="m248 268.9h-1.5l-4.4 0.1c-3.8 0.1-9.5 0.2-16.8 0.6s-16.2 1-26.5 2.2c-5.1 0.6-10.6 1.3-16.4 2.3s-11.9 2.1-18.2 3.5-13 3.2-19.7 5.4a131.7 131.7 0 0 0-20.4 8.4 66 66 0 0 0-9.8 6.3 31.2 31.2 0 0 0-8 8.8c-0.2 0.4-0.5 0.9-0.7 1.3l-0.6 1.4-0.3 0.7c-0.1 0.2-0.1 0.5-0.2 0.7l-0.3 1.5a14.8 14.8 0 0 0 0.3 6.1c1 4.1 3.7 7.5 6.7 10.5 6.3 5.9 14.3 10 22.5 13.4a185.8 185.8 0 0 0 26.3 8.3 345.8 345.8 0 0 0 57.3 8.4 457.2 457.2 0 0 0 58 0.2 365.7 365.7 0 0 0 53.6-7 226.1 226.1 0 0 0 24.3-6.5 120.6 120.6 0 0 0 21.7-9.5 60.1 60.1 0 0 0 9.2-6.5 26.4 26.4 0 0 0 6.6-8.4l0.5-1.2a7 7 0 0 0 0.4-1.2l0.3-1.3c0.1-0.2 0.1-0.4 0.2-0.6v-0.6a12.6 12.6 0 0 0-0.4-5 17.7 17.7 0 0 0-2.1-4.5 27.3 27.3 0 0 0-3.1-3.8 46.5 46.5 0 0 0-7.3-6 75.4 75.4 0 0 0-7.8-4.6 133.4 133.4 0 0 0-15.1-6.7 230.4 230.4 0 0 0-25.4-7.8c-7.1-1.8-12.6-2.9-16.4-3.6-1.9-0.4-3.3-0.6-4.3-0.8l-1.5-0.3s2 0.3 5.8 1 9.3 1.8 16.4 3.5a224.9 224.9 0 0 1 25.4 7.7 133.7 133.7 0 0 1 15.2 6.7 77.1 77.1 0 0 1 7.8 4.6 47.1 47.1 0 0 1 7.4 6.1 28 28 0 0 1 3.1 3.9 18 18 0 0 1 2.2 4.6 13 13 0 0 1 0.4 5.2l0 0.7c0 0.2-0.1 0.4-0.1 0.7l-0.3 1.3a7 7 0 0 1-0.4 1.3l-0.5 1.3a26.9 26.9 0 0 1-6.7 8.6 60 60 0 0 1-9.2 6.6 120.9 120.9 0 0 1-21.8 9.5 225.4 225.4 0 0 1-24.3 6.6 365.5 365.5 0 0 1-53.6 7 456.2 456.2 0 0 1-58.1-0.2 345.8 345.8 0 0 1-57.4-8.5 184.6 184.6 0 0 1-26.3-8.3c-8.3-3.5-16.3-7.6-22.7-13.5-3.1-3-5.8-6.5-6.8-10.7a15.4 15.4 0 0 1-0.3-6.3l0.4-1.5c0.1-0.3 0.1-0.5 0.2-0.8l0.3-0.7 0.6-1.4c0.2-0.5 0.5-0.9 0.8-1.4a31.7 31.7 0 0 1 8.2-8.9 67.2 67.2 0 0 1 9.9-6.3 131.2 131.2 0 0 1 20.5-8.4c6.8-2.2 13.4-3.9 19.8-5.4s12.5-2.6 18.3-3.5 11.3-1.6 16.4-2.2c10.3-1.1 19.2-1.8 26.5-2.1s13-0.4 16.8-0.5h5.9z"/>
      <path d="m166.3 193.1s-0.6 0.1-1.7 0.4-2.8 0.5-4.9 1c-4.3 0.9-10.7 2.3-18.8 4.5a193.1 193.1 0 0 0-28.8 10.2c-2.7 1.2-5.5 2.6-8.3 4.2a78.7 78.7 0 0 0-8.3 5.3 46.3 46.3 0 0 0-7.6 7 24.2 24.2 0 0 0-5.2 9.5 17.4 17.4 0 0 0 0.8 11.2 28.8 28.8 0 0 0 6.9 9.7c5.9 5.7 13.4 10 21.4 13.7 16.1 7.3 34.5 12.2 54 15.9a451.6 451.6 0 0 0 62 6.8 534.7 534.7 0 0 0 67-1.2c22.9-1.9 45.1-5.3 66.1-10.8a197.7 197.7 0 0 0 30.1-10.3 103.8 103.8 0 0 0 13.5-7.2 51.9 51.9 0 0 0 11.5-9.7c3.2-3.7 5.5-8.3 5.7-13.1a13.3 13.3 0 0 0-0.1-1.8 13 13 0 0 0-0.2-1.8l-0.4-1.7a12.8 12.8 0 0 0-0.6-1.7 25.4 25.4 0 0 0-3.4-6.1 47.1 47.1 0 0 0-10.1-9.4 92.9 92.9 0 0 0-11.6-6.8 164.7 164.7 0 0 0-23.8-9.3c-7.8-2.4-15.5-4.4-22.8-6a439.4 439.4 0 0 0-70.6-9c-8.4-0.4-14.9-0.4-19.4-0.6l-5-0.1-1.7-0.1h1.7l5 0.1c4.4 0.1 11 0.1 19.4 0.5a434.7 434.7 0 0 1 70.7 8.9c7.4 1.6 15 3.6 22.9 6a163.6 163.6 0 0 1 23.9 9.3 92.1 92.1 0 0 1 11.7 6.7 47.7 47.7 0 0 1 10.3 9.5 25.7 25.7 0 0 1 3.5 6.3 11.6 11.6 0 0 1 0.6 1.7l0.4 1.8a12.2 12.2 0 0 1 0.2 1.8 12.5 12.5 0 0 1 0.1 1.8 18.7 18.7 0 0 1-1.7 7.2 26.6 26.6 0 0 1-4 6.3 52.1 52.1 0 0 1-11.6 9.8 102.9 102.9 0 0 1-13.6 7.3 199 199 0 0 1-30.1 10.4c-21 5.5-43.2 8.9-66.1 10.8a533.7 533.7 0 0 1-67 1.2 452.6 452.6 0 0 1-62-6.9c-19.5-3.7-38-8.6-54.1-16-8-3.7-15.5-8-21.5-13.8a29.2 29.2 0 0 1-7-9.8 17.9 17.9 0 0 1-0.8-11.4 24.4 24.4 0 0 1 5.3-9.6 46.3 46.3 0 0 1 7.7-7.1 78.2 78.2 0 0 1 8.3-5.3c2.8-1.6 5.6-2.9 8.3-4.2a192.2 192.2 0 0 1 28.9-10.1c8.1-2.2 14.5-3.5 18.9-4.4s6.6-1.2 6.6-1.2z"/>
      <path d="m201.3 344-5 0.8c-3.3 0.5-8.1 1.4-14.2 2.7a182.6 182.6 0 0 0-22 6.2 104 104 0 0 0-13.1 5.7 56 56 0 0 0-6.6 4.1 34.3 34.3 0 0 0-6.1 5.4 19.8 19.8 0 0 0-2.4 3.5 13.9 13.9 0 0 0-1.5 4c0 0.4-0.1 0.7-0.2 1.1l-0.1 1.1c0 0.7 0.1 1.5 0.2 2.2a21.1 21.1 0 0 0 0.6 2.2l0.4 1.1 0.2 0.5 0.3 0.5a24.7 24.7 0 0 0 6 7.1 49.3 49.3 0 0 0 8.1 5.4 107.1 107.1 0 0 0 18.9 7.9 193.9 193.9 0 0 0 21 5.4 311.9 311.9 0 0 0 46.3 5.5 375.4 375.4 0 0 0 50-0.9c17.1-1.5 33.7-4.1 49.3-8.5a124.1 124.1 0 0 0 22.2-8.5 55.9 55.9 0 0 0 9.7-6.2c0.8-0.6 1.4-1.3 2.1-1.9s1.3-1.4 1.9-2.1a18.1 18.1 0 0 0 2.8-4.7 12.7 12.7 0 0 0-0.4-10.5 25.3 25.3 0 0 0-6.9-8c-5.5-4.4-11.8-7.3-17.9-9.8a151.1 151.1 0 0 0-18.2-5.8c-5.9-1.5-11.7-2.7-17.2-3.7a341.9 341.9 0 0 0-53-4.8l-19.5-0.1s7-0.1 19.5 0a338.7 338.7 0 0 1 53 4.8c5.6 1 11.3 2.2 17.3 3.7a150.3 150.3 0 0 1 18.3 5.9c6.1 2.5 12.4 5.4 18 9.8a25.7 25.7 0 0 1 7 8.1 13 13 0 0 1 0.5 10.8 18.7 18.7 0 0 1-2.9 4.8c-0.6 0.7-1.2 1.4-1.9 2.1s-1.3 1.3-2.1 1.9a55.8 55.8 0 0 1-9.7 6.3 124.4 124.4 0 0 1-22.2 8.5 266.9 266.9 0 0 1-49.3 8.5 376.1 376.1 0 0 1-50.1 0.9 313.6 313.6 0 0 1-46.3-5.5 196.2 196.2 0 0 1-21-5.4 106.2 106.2 0 0 1-18.9-7.9 50 50 0 0 1-8.1-5.4 24.7 24.7 0 0 1-6.1-7.1l-0.3-0.5-0.2-0.5-0.4-1.1c-0.3-0.7-0.4-1.5-0.6-2.2s-0.2-1.5-0.2-2.3l0.1-1.1c0-0.4 0.1-0.7 0.2-1.1a14 14 0 0 1 1.5-4.1 20.2 20.2 0 0 1 2.5-3.5 34.3 34.3 0 0 1 6.2-5.5 57.4 57.4 0 0 1 6.7-4.1 102.6 102.6 0 0 1 13-5.7 180.6 180.6 0 0 1 22.1-6.2c6.2-1.3 11-2.1 14.2-2.6s5-0.7 5-0.7z"/>
      <path d="m331.9 435.5a10.4 10.4 0 0 0-0.8-3.6c-0.9-2.3-3.4-5.1-7.3-7.7-7.8-5.2-21-9.5-37.5-12.2a227.8 227.8 0 0 0-27.2-2.7 262.3 262.3 0 0 0-31.4 0.6c-5.5 0.4-11.2 1.1-16.9 2a160 160 0 0 0-17.4 3.7c-2.9 0.8-5.8 1.7-8.7 2.7a69.9 69.9 0 0 0-8.5 3.7 34.3 34.3 0 0 0-7.7 5.3c-2.3 2.1-4.1 5-4.2 8.2s1.9 6.1 4.2 8.2a34.3 34.3 0 0 0 7.6 5.3 68.4 68.4 0 0 0 8.5 3.7c2.9 1.1 5.8 2 8.7 2.8a160.1 160.1 0 0 0 17.4 3.7c5.7 0.9 11.4 1.6 16.9 2a260.4 260.4 0 0 0 31.5 0.6 227.8 227.8 0 0 0 27.3-2.7c16.5-2.7 29.7-7 37.5-12.2 3.9-2.6 6.4-5.4 7.3-7.7a10.3 10.3 0 0 0 0.8-3.6c0 0.2 0 0.4-0.1 1a4.9 4.9 0 0 1-0.2 1.2 7.4 7.4 0 0 1-0.5 1.5c-0.9 2.3-3.4 5.2-7.3 7.8-7.9 5.2-21 9.6-37.5 12.3a229.8 229.8 0 0 1-27.3 2.7 262.7 262.7 0 0 1-31.5-0.6c-5.5-0.4-11.2-1.1-16.9-2a157.6 157.6 0 0 1-17.4-3.7c-2.9-0.8-5.8-1.7-8.7-2.7a71.1 71.1 0 0 1-8.5-3.7 34.9 34.9 0 0 1-7.7-5.4 15.5 15.5 0 0 1-2.9-3.7 9 9 0 0 1 0-9.2 15.6 15.6 0 0 1 3-3.7 34.9 34.9 0 0 1 7.7-5.4 71.6 71.6 0 0 1 8.5-3.7c2.9-1.1 5.8-2 8.7-2.7a160.3 160.3 0 0 1 17.4-3.7c5.7-0.9 11.4-1.5 16.9-2a260.5 260.5 0 0 1 31.5-0.6 227.8 227.8 0 0 1 27.3 2.7c16.5 2.7 29.7 7.1 37.6 12.3 3.9 2.6 6.4 5.5 7.3 7.8a7.6 7.6 0 0 1 0.5 1.5 4.9 4.9 0 0 1 0.2 1.2c0 0.6 0 0.8 0 1z"/>
      <path d="m111 280.4a3.2 3.2 0 1 1-3.2-3.2 3.2 3.2 0 0 1 3.2 3.2z"/>
      <circle cx="396.5" cy="282.5" r="3.2"/>
      <path d="m269.5 400.2a3.2 3.2 0 1 1-3.2-3.2 3.2 3.2 0 0 1 3.2 3.2z"/>
      <path d="m172.6 318.1a1.6 1.6 0 1 1-1.6-1.6 1.6 1.6 0 0 1 1.6 1.6z"/>
      <path d="m371.1 356.8a1.6 1.6 0 1 1-1.6-1.6 1.6 1.6 0 0 1 1.6 1.6z"/>
      <path d="m245 430.6a1.6 1.6 0 1 1-1.6-1.6 1.6 1.6 0 0 1 1.6 1.6z"/>
      <circle cx="161.7" cy="151.2" r="0.8"/>
      <path d="m305.7 274c-38.8 10.3-76.1 9.5-116.9 0l-4.8-74.5c42.1 8.2 84.3 7.2 121.6-1.8z"/>
    </g>
    <g class="c">
      <path d="m305.7 274c-38.8 10.3-76.1 9.5-116.9 0l-4.8-74.5c42.1 8.2 84.3 7.2 121.6-1.8z" class="d"/>
    </g>
    <g class="b">
      <path d="m299.6 262.7a1 1 0 0 1-0.2 0.1l-0.7 0.3c-0.6 0.3-1.6 0.7-2.8 1.1a107.3 107.3 0 0 1-10.7 3.4 140.3 140.3 0 0 1-36.8 4.2 214.8 214.8 0 0 1-36.9-3.9c-4.7-0.9-8.4-1.7-11-2.3-1.3-0.3-2.3-0.5-3-0.7l-0.8-0.2c-0.2 0-0.3-0.1-0.2-0.1h0.3l0.8 0.2 3 0.6c2.6 0.5 6.4 1.3 11 2.1a226.3 226.3 0 0 0 36.8 3.8 145 145 0 0 0 36.7-4c4.6-1.2 8.3-2.3 10.8-3.2 1.3-0.4 2.2-0.8 2.9-1l0.8-0.3a0.8 0.8 0 0 1 0.3-0.1z"/>
      <path d="m242.7 265.7a25.4 25.4 0 0 1-14.9-0.5v-26.5a37.5 37.5 0 0 1 14.9 0z"/>
      <path d="m266.8 264.1a1.1 1.1 0 0 1 0-0.2v-0.6c0-0.5 0-1.3-0.1-2.2 0-1.9-0.1-4.7-0.2-8.2-0.1-7-0.2-16.9-0.4-28.3l0.2 0.2a40.3 40.3 0 0 0-15.4 0l0.2-0.2v0.5c0.2 15.7 0.3 29.8 0.4 39.9l-0.1-0.2a35.8 35.8 0 0 0 6.5 0.8 24.5 24.5 0 0 0 4.9-0.4 23 23 0 0 0 3-0.8l0.8-0.3a1.1 1.1 0 0 1 0.3-0.1l-0.2 0.1-0.8 0.3a21.2 21.2 0 0 1-3 0.9 23.5 23.5 0 0 1-4.9 0.5 34.2 34.2 0 0 1-6.6-0.7h-0.1v-0.2c-0.1-10.1-0.3-24.2-0.6-39.9v-0.7h0.2a40.3 40.3 0 0 1 15.6 0l0.2 0.1v0.2c0.1 11.5 0.2 21.4 0.2 28.4v8.2 2.2 0.6c0 0.2 0 0.2-0.1 0.2z"/>
      <path d="m289.7 261c-4 2.2-9.2 2.5-14.9 2.1v-43.8a31.9 31.9 0 0 1 14.9 0z"/>
      <path d="m219 263.5s0-0.4 0-1.1 0-1.8-0.1-3.1c0-2.7-0.1-6.3-0.1-10.7l0.1 0.2a33.4 33.4 0 0 0-14.4-2.4l0.2-0.3v14.9l-0.1-0.2a27.9 27.9 0 0 0 5.8 1.6c1.8 0.3 3.3 0.5 4.6 0.6l3 0.3a9.4 9.4 0 0 1 1.1 0.1 7.9 7.9 0 0 1-1.1 0c-0.7 0-1.7 0-3-0.1s-2.9-0.2-4.6-0.5a26.8 26.8 0 0 1-5.9-1.6l-0.1-0.1v-0.1-14.9-0.2h0.3a33.1 33.1 0 0 1 14.6 2.5l0.2 0.1v0.2c0 4.5-0.1 8.2-0.1 10.9 0 1.3 0 2.3-0.1 3a6 6 0 0 1-0.2 1z"/>
      <path d="m226 224.8a15 15 0 0 1-2.9 0.2c-1.8 0-4.3 0-7.1-0.2s-5.2-0.4-7-0.7a14.8 14.8 0 0 1-2.9-0.5 18.3 18.3 0 0 1 2.9 0.2c1.8 0.1 4.3 0.3 7 0.5s5.2 0.3 7 0.3a19.4 19.4 0 0 1 3 0.2z"/>
      <path d="m223.8 228.1a12.9 12.9 0 0 1-2.6 0c-1.6-0.1-3.8-0.2-6.2-0.4s-4.6-0.4-6.2-0.5a12.7 12.7 0 0 1-2.5-0.4 12.9 12.9 0 0 1 2.6 0c1.6 0.1 3.8 0.2 6.2 0.4s4.6 0.4 6.2 0.6a13.1 13.1 0 0 1 2.5 0.4z"/>
      <path d="m229.2 232.3v-0.9c0-0.6 0.1-1.5 0.1-2.6 0.1-2.3 0.3-5.4 0.4-9.3l0.2 0.2a213.7 213.7 0 0 1-27.6-1.5l0.3-0.2v0.8l0 0.8c0 0.6-0.1 1.1-0.1 1.7-0.1 1.1-0.1 2.2-0.2 3.3-0.1 2.2-0.2 4.2-0.4 6.2l-0.2-0.3c8 1 14.9 1.4 19.8 1.6l5.7 0.2 1.5 0.1h0.6a2.9 2.9 0 0 1-0.5 0c-0.3 0-0.9 0-1.5 0.1h-5.7c-4.9-0.1-11.8-0.5-19.8-1.4h-0.2v-0.2c0.1-2 0.2-4.1 0.4-6.2 0.1-1.1 0.1-2.2 0.2-3.3l0.1-1.7v-1.7l0.3-0.2a236 236 0 0 0 27.7 1.7h0.2v0.2c-0.3 3.9-0.5 7.2-0.6 9.4-0.1 1.1-0.1 1.9-0.2 2.5a4.5 4.5 0 0 1-0.1 0.9z"/>
      <path d="m232.6 237.9a11.8 11.8 0 0 1-1.9-2.7 9.6 9.6 0 0 1-1.5-2.9 11.8 11.8 0 0 1 1.9 2.7 9.6 9.6 0 0 1 1.5 2.9z"/>
      <path d="m70.6 141 12.7 76.7s19.4 36.2 70.8 44.4l-8.3-68.4s-47.5-14.7-75.1-52.6z"/>
    </g>
    <g class="c">
      <path d="m70.6 141 12.7 76.7s19.4 36.2 70.8 44.4l-8.3-68.4s-47.5-14.7-75.1-52.6z" class="d"/>
    </g>
    <g class="b">
      <path d="m147.4 256.6-0.3-0.1-1-0.3-3.6-1.1c-1.6-0.5-3.5-1-5.7-1.9l-3.5-1.3c-1.2-0.5-2.6-1-3.9-1.6-2.7-1.2-5.6-2.5-8.7-4.2s-6.2-3.5-9.5-5.6a95.3 95.3 0 0 1-19.1-16.5 56.6 56.6 0 0 1-6.9-9.6l-5.8-37.5c-0.7-4.7-1.3-8.4-1.7-11.1l-0.4-3-0.1-0.8a1.1 1.1 0 0 1 0-0.3 1 1 0 0 1 0.1 0.3l0.2 0.8 0.5 3c0.4 2.6 1 6.4 1.8 11 1.5 9.4 3.6 22.5 6 37.5v-0.1a57.3 57.3 0 0 0 6.8 9.5 96 96 0 0 0 19 16.5c3.3 2.1 6.4 4.1 9.5 5.6s6 3 8.6 4.2c1.3 0.7 2.6 1.2 3.9 1.6l3.5 1.4c2.2 0.9 4.1 1.5 5.6 2l3.6 1.2 0.9 0.3a1.4 1.4 0 0 1 0.3 0.1z"/>
      <path d="m142.9 234.3s0 0.1-0.2 0.2l-0.5 0.4-2.1 1.7-8.1 6.2-0.1 0.1-0.1-0.1c-2.7-3.7-6.1-8.4-9.9-13.7l0.3 0.1-7.6 5.4-0.2 0.2-0.1-0.3c-3-8-6.3-17-9.8-26.5l-1.4-3.8h0.5l-6.2 12.2-0.3 0.5-0.2-0.6c-5.4-15.5-9.9-28.6-12.9-37.1h0.3c-0.8 3.4-1.4 6.1-1.9 8-0.2 0.9-0.4 1.6-0.5 2.1l-0.1 0.5a0.6 0.6 0 0 1-0.1 0.2v-0.2c0-0.1 0.1-0.3 0.1-0.5l0.5-2.1c0.4-1.9 1-4.6 1.8-8l0.1-0.5 0.2 0.5c3 8.5 7.6 21.6 13.1 37.1h-0.5l6.2-12.2 0.3-0.5 0.2 0.6 1.4 3.8c3.5 9.5 6.8 18.5 9.7 26.5l-0.4-0.1 7.6-5.4 0.2-0.1 0.1 0.2 9.8 13.7h-0.2l8.2-6.1 2.2-1.6 0.6-0.4z"/>
      <path d="m141.1 197.6a4.7 4.7 0 0 1-1.1-0.2c-0.7-0.2-1.7-0.5-2.9-0.9a94 94 0 0 1-9.2-3.6 98.1 98.1 0 0 1-8.8-4.5c-1.1-0.6-2-1.2-2.6-1.6a4.5 4.5 0 0 1-0.9-0.6 4.6 4.6 0 0 1 1 0.5l2.6 1.4c2.2 1.2 5.3 2.8 8.9 4.4s6.8 2.9 9.1 3.8c1.1 0.4 2 0.8 2.8 1a4 4 0 0 1 1 0.5z"/>
      <path d="m143.2 200.7a10.4 10.4 0 0 1-2.5-0.4 57.4 57.4 0 0 1-5.8-1.7 58.2 58.2 0 0 1-5.6-2.3 10.8 10.8 0 0 1-2.2-1.2 13.7 13.7 0 0 1 2.4 0.9c1.4 0.6 3.4 1.4 5.6 2.2s4.3 1.4 5.8 1.9a13.6 13.6 0 0 1 2.4 0.8z"/>
      <path d="m122.9 229.1c0 0.6-0.4 1.2-0.9 1.2s-0.9-0.5-0.9-1.1 0.4-1.1 0.9-1.1 0.9 0.5 0.9 1.2z"/>
      <path d="m85.1 179.6c0 0.6-0.4 1.2-0.9 1.2s-0.9-0.5-0.9-1.1 0.4-1.1 0.9-1.1 0.9 0.5 0.9 1.2z"/>
      <path d="m406 154.6-6.3 77.9s-18.6 33.3-69.6 34.6l6.3-78.4s44.6-1.8 69.7-34z"/>
      <path d="m405 150.6c-1.7-5.4-5.7-13.1-15.3-14.7l-11.3 104.8s21.3-4.2 21.9-15.9c0.1-1 4.3-53.1 5.4-66a21.1 21.1 0 0 0-0.6-8.2z"/>
    </g>
    <g class="c">
      <path d="m406 154.6-6.3 77.9s-18.6 33.3-69.6 34.6l6.3-78.4s44.6-1.8 69.7-34z" class="d"/>
    </g>
    <g class="b">
      <path d="m404.5 174.5a46.1 46.1 0 0 0-8.1 25.2c0 2.6 0.1 5.3-0.9 7.7s-3.5 4.4-6 3.7-3.8-3.8-6-5.2a6.8 6.8 0 0 0-6.8 0.2 11.5 11.5 0 0 0-4.5 5.5c-1.8 4.3-2 9.1-3.3 13.5s-4.7 8.9-9.4 9.1c-1.7 0.1-3.4-0.4-5.1-0.4-3.6 0.1-6.7 2.8-8.4 6s-2.2 6.8-2.7 10.4c0 0 27.2 2.6 57.8-33.5z"/>
      <path d="m361.2 221.8c0 1-0.5 1.8-1.1 1.8s-1.1-0.8-1.1-1.7 0.5-1.7 1.1-1.7 1.1 0.8 1.1 1.8z"/>
      <path d="m374 189.4c0 1-0.5 1.8-1.1 1.8s-1.1-0.8-1.1-1.7 0.5-1.7 1.1-1.7 1.1 0.8 1.1 1.8z"/>
      <path d="m403.8 178.3a2.4 2.4 0 0 1-0.2 0.4l-0.6 1.3c-0.5 1.1-1.3 2.7-2.2 4.8l-8.1 16.9-0.1 0.2-0.2-0.1-19.2-12.2 0.4-0.1c-0.2 0.6-0.5 1.3-0.8 2l-12.4 30.4-0.1 0.2-0.2-0.1c-4.8-2.7-8.7-4.9-11.4-6.3-1.4-0.7-2.4-1.3-3.2-1.7l-0.8-0.4-0.3-0.1a23.2 23.2 0 0 1 4.4 2c2.8 1.4 6.7 3.5 11.5 6.2l-0.3 0.1 12.3-30.5c0.3-0.7 0.6-1.3 0.8-2l0.1-0.3 0.3 0.2 19.2 12.2-0.3 0.1c3.4-6.9 6.3-12.7 8.3-16.8l2.4-4.7 0.6-1.2a2.8 2.8 0 0 1 0.2-0.4z"/>
    </g>
  </g>
</svg>