<svg xmlns="http://www.w3.org/2000/svg" width="6004.382" height="1000" viewBox="0 0 1588.657 264.583"  xmlns:v="https://vecta.io/nano"><g transform="scale(.77724912)"><circle cx="1063.439" cy="132.293" r="116.224" fill="#ceeff8"/><g stroke="#000"><path d="M1063.439.134a132.16 132.16 0 0 0-114.756 198.343 132.16 132.16 0 0 0 229.512 0A132.16 132.16 0 0 0 1063.439.134zm0 15.934c64.19 0 116.226 52.035 116.226 116.225s-52.036 116.225-116.226 116.225-116.226-52.035-116.226-116.224 52.036-116.225 116.226-116.225z" stroke-width=".266"/><circle r="109.824" cy="132.293" cx="1063.439" stroke-width=".221"/></g><g fill="#4cd0ff" stroke="#ceeff8"><g stroke-width="2.646"><path d="M1080.494 139.252h-34.375l17.188-29.77z"/><path d="M1063.306 104.962a4.96 4.96 0 0 0-4.958 4.958 4.96 4.96 0 0 0 4.958 4.958 4.96 4.96 0 0 0 4.958-4.958 4.96 4.96 0 0 0-4.958-4.958zm-16.734 29.104a4.96 4.96 0 0 0-4.958 4.958 4.96 4.96 0 0 0 4.958 4.958 4.96 4.96 0 0 0 4.958-4.958 4.96 4.96 0 0 0-4.958-4.958zm33.867 0a4.96 4.96 0 0 0-4.958 4.958 4.96 4.96 0 0 0 4.958 4.958 4.96 4.96 0 0 0 4.958-4.958 4.96 4.96 0 0 0-4.958-4.958z"/></g><path d="M982.864 170.623l34.264-17.462 42.598-74.348-2.029-38.408c-1.881-2.036-3.234-2.418-5.644-1.345l-72.874 125.934c-.954 4.39 1.2 5.142 3.686 5.629zm160.799 0l-34.264-17.463-42.598-74.348 2.029-38.408c1.881-2.036 3.234-2.418 5.644-1.345l72.874 125.935c.954 4.39-1.2 5.142-3.686 5.629zm-156.088 10.492l32.296-20.878 85.686.452 32.207 21.025c.817 2.649.47 4.01-1.668 5.557l-145.5-.144c-4.276-1.377-3.846-3.618-3.02-6.012zm61.832-150.864a102.53 102.53 0 0 0-48.337 20.187l24.563 20.82zm28.251.026l23.803 41.056 25.124-20.293a102.52 102.52 0 0 0-48.926-20.764zM986.244 64.34c-7.995 9.147-14.3 19.642-18.622 30.996l34.535 16.417 14.958-25.802zm155.728 1.562l-31.168 21.544 14.835 25.589 34.151-16.265a102.53 102.53 0 0 0-17.818-30.868zm-179.861 50.293a102.43 102.43 0 0 0-1.197 15.616c0 13.119 2.518 26.116 7.417 38.287l24.385-42.061zm202.667.068l-30.576 11.541 24.417 42.115c4.853-12.119 7.346-25.054 7.346-38.109 0-5.205-.397-10.403-1.186-15.548zm-19.335 77.084l-49.226.147 5.582 33.394a102.53 102.53 0 0 0 43.644-33.542zm-67.845.203l-29.63.089-3.378 38.949c6.216 1.163 12.526 1.748 18.849 1.748 5.767 0 11.524-.487 17.209-1.455zm-46.998.141l-48.794.146c11.255 14.813 26.328 26.284 43.605 33.185z" stroke-width="2.646" stroke-linejoin="round"/></g><path d="M283.463 264.636h-154.96l-26.457-60.472h86.551L141.731 98.338l-73.7 166.298H0L117.165.071h49.134zm260.785-81.259q0 33.638-23.811 57.448-23.811 23.811-57.448 23.811H298.58v-60.472h164.408q8.693 0 14.74-6.047 6.047-6.047 6.047-14.74 0-8.693-6.047-14.74-6.047-6.047-14.74-6.047H379.84q-33.638 0-57.448-23.811-23.811-23.811-23.811-57.448 0-33.638 23.811-57.448Q346.202.071 379.84.071h164.408l-26.457 60.472H379.84q-8.693 0-14.74 6.047-6.047 6.047-6.047 14.74 0 8.693 6.047 14.74 6.047 6.047 14.74 6.047h83.149q33.638 0 57.448 23.811 23.811 23.811 23.811 57.448zm75.589 81.259h-60.472V.071h60.472zm298.581 0h-60.472v-119.81l-62.362 119.81h-37.795l-62.362-119.81v119.81h-60.472V.071h60.472l81.259 162.519L857.945.071h60.472zM1455.91.056l-117.233 264.719h-49.162L1172.282.056h68.071l73.743 166.395L1387.839.056zm232.574 207.994q0 53.7-35.548 93.03-35.548 39.33-87.357 39.33v-60.507q27.228 0 44.624-21.556 17.774-21.556 17.774-50.297V.056h60.507zm260.937 56.725h-83.954l-93.786-102.106 26.472-60.507h69.961q8.698 0 14.749-6.051 6.051-6.051 6.051-14.749 0-8.698-6.051-14.749-6.051-6.051-14.749-6.051h-103.997v204.212h-60.507V.056h164.504q33.657 0 57.482 23.825 23.825 23.825 23.825 57.482 0 33.657-23.825 57.482-23.825 23.825-57.482 23.825H1854.5zm55.566-46.902h38.962v46.902h-38.962z"/></g></svg>