<svg xmlns="http://www.w3.org/2000/svg" viewBox="0 0 1588.657 264.583" height="1000" width="6004.382"  xmlns:v="https://vecta.io/nano"><circle cx="826.557" cy="102.824" r="90.335" fill="#ceeff8"/><g transform="matrix(.777249 0 0 .777249 723.73331 .000397)"><g stroke="#000"><path d="M132.292.133a132.159 132.159 0 1 0 0 264.317 132.159 132.159 0 1 0 0-264.317zm0 15.934a116.226 116.225 0 0 1 0 232.449 116.226 116.225 0 0 1 0-232.449z" stroke-width=".266"/><circle r="109.824" cy="132.292" cx="132.292" stroke-width=".221"/></g><g fill="#4cd0ff" stroke="#ceeff8"><g stroke-width="2.646"><path d="M149.347 139.251h-34.375l17.188-29.77z"/><path d="M132.159 104.961a4.958 4.958 0 0 0 0 9.916 4.958 4.958 0 0 0 0-9.916zm-16.734 29.104a4.958 4.958 0 0 0 0 9.916 4.958 4.958 0 0 0 0-9.916zm33.867 0a4.958 4.958 0 0 0 0 9.916 4.958 4.958 0 0 0 0-9.916z"/></g><path d="M51.717 170.622l34.264-17.462 42.598-74.348-2.029-38.408c-1.881-2.036-3.234-2.418-5.644-1.345L48.032 164.993c-.954 4.39 1.2 5.142 3.686 5.629zm160.799 0l-34.264-17.463-42.598-74.348 2.029-38.408c1.881-2.036 3.234-2.418 5.644-1.345l72.874 125.935c.954 4.39-1.2 5.142-3.686 5.629zM56.428 181.114l32.296-20.878 85.686.452 32.207 21.025c.817 2.649.47 4.01-1.668 5.557l-145.5-.144c-4.276-1.377-3.846-3.618-3.02-6.012zM118.26 30.25a102.53 102.53 0 0 0-48.337 20.187l24.563 20.82zm28.251.026l23.803 41.056 25.124-20.293a102.52 102.52 0 0 0-48.926-20.764zM55.097 64.339c-7.995 9.147-14.3 19.642-18.622 30.996l34.535 16.417L85.968 85.95zm155.728 1.562l-31.168 21.544 14.835 25.589 34.151-16.265a102.53 102.53 0 0 0-17.818-30.868zM30.964 116.194a102.43 102.43 0 0 0-1.197 15.616c0 13.119 2.518 26.116 7.417 38.287l24.385-42.061zm202.667.068l-30.576 11.541 24.417 42.115c4.853-12.119 7.346-25.054 7.346-38.109 0-5.205-.397-10.403-1.186-15.548zm-19.335 77.084l-49.226.147 5.582 33.394a102.53 102.53 0 0 0 43.644-33.542zm-67.845.203l-29.63.089-3.378 38.949c6.216 1.163 12.526 1.748 18.849 1.748 5.767 0 11.524-.487 17.209-1.455zm-46.998.141l-48.794.146c11.255 14.813 26.328 26.284 43.605 33.185z" stroke-width="2.646" stroke-linejoin="round"/></g></g><path d="M220.321 205.688H99.879l-20.563-47.002h67.271l-36.426-82.253-57.283 129.255H0L91.066.055h38.189zm202.695-63.159q0 26.145-18.507 44.652-18.507 18.507-44.652 18.507H232.071v-47.002h127.786q6.757 0 11.457-4.7 4.7-4.7 4.7-11.457 0-6.757-4.7-11.457-4.7-4.7-11.457-4.7H295.23q-26.145 0-44.652-18.507-18.507-18.507-18.507-44.652 0-26.145 18.507-44.652Q269.085.055 295.23.055h127.786l-20.563 47.002H295.23q-6.757 0-11.457 4.7-4.7 4.7-4.7 11.457 0 6.757 4.7 11.457 4.7 4.7 11.457 4.7h64.628q26.145 0 44.652 18.507 18.507 18.507 18.507 44.652zm58.752 63.159h-47.002V.055h47.002zm232.071 0h-47.002v-93.122l-48.471 93.122H588.99l-48.471-93.122v93.122h-47.002V.055h47.002l63.159 126.317L666.837.055h47.002zM1131.605.044l-91.119 205.753h-38.211L911.155.044h52.908l57.317 129.33L1078.697.044zm180.768 161.663q0 41.738-27.63 72.307-27.63 30.569-67.899 30.569v-47.029q21.163 0 34.684-16.754 13.815-16.754 13.815-39.093V.044h47.029zm202.813 44.089h-65.253l-72.895-79.362 20.575-47.029h54.378q6.761 0 11.463-4.703 4.703-4.703 4.703-11.463 0-6.76-4.703-11.463-4.703-4.703-11.463-4.703h-80.831v158.724h-47.029V.044h127.861q26.16 0 44.678 18.518 18.518 18.518 18.518 44.678 0 26.16-18.518 44.678-18.518 18.518-44.678 18.518h-10.582zm43.188-36.454h30.283v36.455h-30.283z" fill="#fff"/></svg>